SplineFontDB: 3.0
FontName: ModernDOS9x14
FullName: Modern DOS 9x14
FamilyName: Modern DOS 9x14
Weight: Regular
Copyright: © 2009-2019 Jayvee Enaguas (HarvettFox96) <harvettfox96@protonmail.com>. Released under a libre/free public domain licence as Creative Commons Zero (CC0) 1.0. Applies worldwide countries including the Philippines, Spain, etc.
Version: 20190101.02
ItalicAngle: 0
UnderlinePosition: -150
UnderlineWidth: 100
Ascent: 1200
Descent: 400
InvalidEm: 0
LayerCount: 2
Layer: 0 0 "Back" 1
Layer: 1 0 "Fore" 0
FSType: 0
OS2Version: 0
OS2_WeightWidthSlopeOnly: 0
OS2_UseTypoMetrics: 1
CreationTime: 1384539481
PfmFamily: 49
TTFWeight: 400
TTFWidth: 5
LineGap: 0
VLineGap: 0
Panose: 2 1 5 9 1 1 1 1 1 1
OS2TypoAscent: 1100
OS2TypoAOffset: 0
OS2TypoDescent: -300
OS2TypoDOffset: 0
OS2TypoLinegap: 0
OS2WinAscent: 1100
OS2WinAOffset: 0
OS2WinDescent: 300
OS2WinDOffset: 0
HheadAscent: 1100
HheadAOffset: 0
HheadDescent: -300
HheadDOffset: 0
OS2SubXSize: 450
OS2SubYSize: 700
OS2SubXOff: 0
OS2SubYOff: 400
OS2SupXSize: 450
OS2SupYSize: 700
OS2SupXOff: 0
OS2SupYOff: -300
OS2StrikeYSize: 100
OS2StrikeYPos: 450
OS2CapHeight: 900
OS2XHeight: 600
OS2Vendor: 'HF96'
MarkAttachClasses: 1
DEI: 91125
LangName: 1033 "" "" "" "ModernDOS9x14:FontForge:20190101.02" "" "20190101.02" "" "" "" "Jayvee Enaguas (HarvettFox96)" "" "" "mailto:harvettfox96@protonmail.com" "Public Domain, Creative Commons Zero (CC0) 1.0" "https://creativecommons.org/licenses/zero/1.0/"
UnicodeInterp: none
NameList: AGL For New Fonts
DisplaySize: -48
AntiAlias: 1
FitToEm: 0
WinInfo: 0 16 8
BeginPrivate: 0
EndPrivate
TeXData: 1 0 0 589824 294912 196608 393216 1048576 196608 783286 444596 497025 792723 393216 433062 380633 303038 157286 324010 404750 52429 2506097 1059062 262144
BeginChars: 361 361

StartChar: exclam
Encoding: 1 33 1
Width: 900
HStem: 0 200<300 500> 500 300<200 300 500 600> 880 20G<300 500>
VStem: 200 400<500 800> 300 200<0 200 300 500 800 900>
Fore
SplineSet
300 900 m 1xe8
 500 900 l 1
 500 800 l 1xe8
 600 800 l 1
 600 500 l 1xf0
 500 500 l 1
 500 300 l 1
 300 300 l 1
 300 500 l 1xe8
 200 500 l 1
 200 800 l 1xf0
 300 800 l 1
 300 900 l 1xe8
300 200 m 1
 500 200 l 1
 500 0 l 1
 300 0 l 1
 300 200 l 1
EndSplineSet
Colour: f46a4b
EndChar

StartChar: quotedbl
Encoding: 2 34 2
Width: 900
HStem: 600 21G<200 300 600 700> 800 200<100 200 500 600>
VStem: 100 200<800 1000> 200 100<600 800> 500 200<800 1000> 600 100<600 800>
Fore
SplineSet
100 1000 m 1xe0
 300 1000 l 1xe0
 300 600 l 1
 200 600 l 1
 200 800 l 1xd0
 100 800 l 1
 100 1000 l 1xe0
500 1000 m 1xc8
 700 1000 l 1xc8
 700 600 l 1
 600 600 l 1
 600 800 l 1xc4
 500 800 l 1
 500 1000 l 1xc8
EndSplineSet
EndChar

StartChar: numbersign
Encoding: 3 35 3
Width: 900
HStem: 300 100<0 100 300 400 600 700> 600 100<0 100 300 400 600 700> 880 20G<100 300 400 600>
VStem: 100 200<100 300 400 600 700 900> 400 200<100 300 400 600 700 900>
Fore
SplineSet
400 600 m 1
 300 600 l 1
 300 400 l 1
 400 400 l 1
 400 600 l 1
100 900 m 1
 300 900 l 1
 300 700 l 1
 400 700 l 1
 400 900 l 1
 600 900 l 1
 600 700 l 1
 700 700 l 1
 700 600 l 1
 600 600 l 1
 600 400 l 1
 700 400 l 1
 700 300 l 1
 600 300 l 1
 600 100 l 1
 400 100 l 1
 400 300 l 1
 300 300 l 1
 300 100 l 1
 100 100 l 1
 100 300 l 1
 0 300 l 1
 0 400 l 1
 100 400 l 1
 100 600 l 1
 0 600 l 1
 0 700 l 1
 100 700 l 1
 100 900 l 1
EndSplineSet
EndChar

StartChar: dollar
Encoding: 4 36 4
Width: 900
HStem: -200 21G<300 400> 0 100<200 300 400 500> 100 200<0 100 600 700> 300 100<400 500> 400 100<200 300> 500 200<0 100 600 700> 700 100<200 300 400 500>
VStem: 0 200<100 300 500 700> 300 100<-200 0 100 300 500 700 800 1000> 500 200<100 300 500 700>
Fore
SplineSet
300 1000 m 1x83c0
 400 1000 l 1
 400 800 l 1
 600 800 l 1x83c0
 600 700 l 1
 700 700 l 1
 700 500 l 1
 500 500 l 1x85c0
 500 700 l 1
 400 700 l 1
 400 400 l 1x93c0
 600 400 l 1
 600 300 l 1
 700 300 l 1
 700 100 l 1
 600 100 l 1xa9c0
 600 0 l 1
 400 0 l 1
 400 -200 l 1
 300 -200 l 1
 300 0 l 1
 100 0 l 1xc1c0
 100 100 l 1
 0 100 l 1
 0 300 l 1xa1c0
 200 300 l 1x91c0
 200 100 l 1
 300 100 l 1
 300 400 l 1
 100 400 l 1xc9c0
 100 500 l 1
 0 500 l 1
 0 700 l 1
 100 700 l 1x85c0
 100 800 l 1
 300 800 l 1
 300 1000 l 1x83c0
300 700 m 1
 200 700 l 1
 200 500 l 1
 300 500 l 1x8bc0
 300 700 l 1
500 300 m 1xd1c0
 400 300 l 1
 400 100 l 1
 500 100 l 1
 500 300 l 1xd1c0
EndSplineSet
EndChar

StartChar: percent
Encoding: 5 37 5
Width: 900
HStem: 0 100<400 600> 100 200<0 100 300 400 600 700> 200 200<100 200> 300 100<200 300 400 600> 400 100<300 400> 500 200<500 600> 500 100<100 300 400 500> 600 200<0 100 300 400 600 700> 800 100<100 300>
VStem: 0 200<200 300> 0 100<100 200 600 800> 100 200<300 400 500 600 800 900> 300 100<100 300 400 500 600 800> 400 200<0 100 300 400 500 600> 500 200<600 700> 600 100<100 300 700 800>
Fore
SplineSet
100 900 m 1x0090
 300 900 l 1x0090
 300 800 l 1x0110
 100 800 l 1x0120
 100 900 l 1x0090
0 800 m 1x0120
 100 800 l 1x0120
 100 600 l 1x0220
 0 600 l 1
 0 800 l 1x0120
300 800 m 1x0110
 400 800 l 1x0108
 400 600 l 1x0208
 300 600 l 1x0210
 300 800 l 1x0110
100 600 m 1x0220
 300 600 l 1x0210
 300 500 l 1x0810
 100 500 l 1x0210
 100 600 l 1x0220
600 800 m 1x0101
 700 800 l 1x0101
 700 600 l 1x0102
 600 600 l 1x0104
 600 500 l 1x0404
 400 500 l 1x0808
 400 600 l 17
 500 600 l 1x020a
 500 700 l 1x040a
 600 700 l 1x0401
 600 800 l 1x0101
300 500 m 1x0810
 400 500 l 1x0808
 400 400 l 1x1008
 300 400 l 1x1010
 300 500 l 1x0810
100 400 m 1x2010
 300 400 l 1x1010
 300 300 l 1x4010
 200 300 l 1x1040
 200 200 l 1x2040
 100 200 l 1x2020
 100 100 l 1
 0 100 l 1x4020
 0 300 l 1x4040
 100 300 l 1x4010
 100 400 l 1x2010
400 400 m 1x1008
 600 400 l 1x1004
 600 300 l 1x4004
 400 300 l 1x4008
 400 400 l 1x1008
300 300 m 1x4010
 400 300 l 1x4008
 400 100 l 1x8008
 300 100 l 1x4008
 300 300 l 1x4010
600 300 m 1x4004
 700 300 l 1
 700 100 l 1x4001
 600 100 l 1x8004
 600 300 l 1x4004
400 100 m 1x8008
 600 100 l 1
 600 0 l 1
 400 0 l 1x8004
 400 100 l 1x8008
300 500 m 1025x0810
400 400 m 1025x1008
EndSplineSet
EndChar

StartChar: ampersand
Encoding: 6 38 6
Width: 900
HStem: 0 100<200 400 600 700> 100 300<0 100 400 500> 400 100<600 700> 600 200<100 200 500 600> 800 100<300 400>
VStem: 0 200<100 400> 100 300<0 100 400 500> 100 200<600 800> 200 300<500 600 800 900> 400 200<100 300 600 800> 500 200<0 100 400 500>
Fore
SplineSet
400 800 m 1x0940
 300 800 l 1x0940
 300 600 l 1
 400 600 l 1x1140
 400 800 l 1x0940
200 900 m 1x0880
 500 900 l 1x0880
 500 800 l 1x1080
 600 800 l 1
 600 600 l 1x1040
 500 600 l 1
 500 500 l 1x3080
 400 500 l 1x32
 400 400 l 1
 500 400 l 1x4220
 500 500 l 1x2080
 700 500 l 1
 700 400 l 1x2020
 600 400 l 1
 600 100 l 1xa040
 700 100 l 1
 700 0 l 1
 500 0 l 1xa020
 500 100 l 1x4020
 400 100 l 1x8220
 400 300 l 1
 300 300 l 1
 300 400 l 1xa140
 200 400 l 1
 200 100 l 1xa4
 400 100 l 1
 400 0 l 1
 100 0 l 1xa2
 100 100 l 1x42
 0 100 l 1
 0 400 l 1x44
 100 400 l 1x42
 100 500 l 1x22
 200 500 l 1
 200 600 l 1x3080
 100 600 l 1
 100 800 l 1x31
 200 800 l 1x3080
 200 900 l 1x0880
EndSplineSet
EndChar

StartChar: quotesingle
Encoding: 7 39 7
Width: 900
HStem: 600 100<300 400> 800 200<300 400>
VStem: 300 100<600 700> 400 100<700 800>
Fore
SplineSet
300 1000 m 1xe0
 500 1000 l 1
 500 700 l 1xd0
 400 700 l 1xe0
 400 800 l 1xd0
 300 800 l 1
 300 1000 l 1xe0
300 700 m 1xe0
 400 700 l 1
 400 600 l 1
 300 600 l 1
 300 700 l 1xe0
EndSplineSet
EndChar

StartChar: parenleft
Encoding: 8 40 8
Width: 900
HStem: 0 200<400 500> 0 100<500 600> 700 200<400 500> 800 100<500 600>
VStem: 200 200<200 700> 300 200<100 200 700 800> 400 200<0 100 800 900>
Fore
SplineSet
400 900 m 1x22
 600 900 l 1
 600 800 l 1x12
 500 800 l 1x14
 500 700 l 1x24
 400 700 l 1
 400 200 l 1xa8
 500 200 l 1xa4
 500 100 l 1x44
 600 100 l 1
 600 0 l 1x42
 400 0 l 1x82
 400 100 l 1x42
 300 100 l 1x44
 300 200 l 1x84
 200 200 l 1
 200 700 l 1xa8
 300 700 l 1xa4
 300 800 l 1x14
 400 800 l 1x12
 400 900 l 1x22
EndSplineSet
EndChar

StartChar: parenright
Encoding: 9 41 9
Width: 900
HStem: 0 200<300 400> 0 100<200 300> 700 200<300 400> 800 100<200 300>
VStem: 200 200<0 100 800 900> 300 200<100 200 700 800> 400 200<200 700>
Fore
SplineSet
200 900 m 1x18
 400 900 l 1x28
 400 800 l 1x18
 500 800 l 1x14
 500 700 l 1x24
 600 700 l 1
 600 200 l 1xa2
 500 200 l 1xa4
 500 100 l 1x44
 400 100 l 1x48
 400 0 l 1x88
 200 0 l 1
 200 100 l 1x48
 300 100 l 1x44
 300 200 l 1x84
 400 200 l 1
 400 700 l 1xa2
 300 700 l 1xa4
 300 800 l 1x14
 200 800 l 1
 200 900 l 1x18
EndSplineSet
EndChar

StartChar: asterisk
Encoding: 10 42 10
Width: 900
HStem: 200 100<100 200 600 700> 400 100<0 200 600 800> 600 100<100 200 600 700>
VStem: 100 200<200 300 600 700> 500 200<200 300 600 700>
Fore
SplineSet
100 700 m 1
 300 700 l 1
 300 600 l 1
 500 600 l 1
 500 700 l 1
 700 700 l 1
 700 600 l 1
 600 600 l 1
 600 500 l 1
 800 500 l 1
 800 400 l 1
 600 400 l 1
 600 300 l 1
 700 300 l 1
 700 200 l 1
 500 200 l 1
 500 300 l 1
 300 300 l 1
 300 200 l 1
 100 200 l 1
 100 300 l 1
 200 300 l 1
 200 400 l 1
 0 400 l 1
 0 500 l 1
 200 500 l 1
 200 600 l 1
 100 600 l 1
 100 700 l 1
EndSplineSet
EndChar

StartChar: plus
Encoding: 11 43 11
Width: 900
HStem: 400 100<100 300 500 700>
VStem: 300 200<200 400 500 700>
Fore
SplineSet
300 700 m 1
 500 700 l 1
 500 500 l 1
 700 500 l 1
 700 400 l 1
 500 400 l 1
 500 200 l 1
 300 200 l 1
 300 400 l 1
 100 400 l 1
 100 500 l 1
 300 500 l 1
 300 700 l 1
EndSplineSet
EndChar

StartChar: comma
Encoding: 12 44 12
Width: 900
HStem: -200 100<200 300> 0 200<200 300>
VStem: 200 100<-200 -100> 300 100<-100 0>
Fore
SplineSet
200 200 m 1xe0
 400 200 l 1
 400 -100 l 1xd0
 300 -100 l 1xe0
 300 0 l 1xd0
 200 0 l 1
 200 200 l 1xe0
200 -100 m 1xe0
 300 -100 l 1
 300 -200 l 1
 200 -200 l 1
 200 -100 l 1xe0
EndSplineSet
Colour: f46a4b
EndChar

StartChar: hyphen
Encoding: 13 45 13
Width: 900
HStem: 400 100<0 700>
Fore
SplineSet
0 500 m 1
 700 500 l 1
 700 400 l 1
 0 400 l 1
 0 500 l 1
EndSplineSet
EndChar

StartChar: period
Encoding: 14 46 14
Width: 900
HStem: 0 200<200 400>
VStem: 200 200<0 200>
Fore
SplineSet
200 200 m 1
 400 200 l 1
 400 0 l 1
 200 0 l 1
 200 200 l 1
EndSplineSet
Colour: f46a4b
EndChar

StartChar: slash
Encoding: 15 47 15
Width: 900
HStem: 0 200<0 100> 100 200<100 200> 200 200<200 300> 300 200<300 400> 400 200<400 500> 500 200<500 600> 600 200<600 700>
VStem: 0 200<100 200> 0 100<0 100> 100 200<200 300> 200 200<300 400> 300 200<400 500> 400 200<500 600> 500 200<600 700> 600 100<700 800>
Fore
SplineSet
600 800 m 1x0202
 700 800 l 1x0202
 700 600 l 1x0204
 600 600 l 1x0208
 600 500 l 1x0408
 500 500 l 1x0410
 500 400 l 1x0810
 400 400 l 1x0820
 400 300 l 1x1020
 300 300 l 1x1040
 300 200 l 1x2040
 200 200 l 1x21
 200 100 l 1x41
 100 100 l 1x4080
 100 0 l 1
 0 0 l 1x8080
 0 200 l 1x81
 100 200 l 1x8040
 100 300 l 1x4040
 200 300 l 1x4020
 200 400 l 1x2020
 300 400 l 1x2010
 300 500 l 1x1010
 400 500 l 1x1008
 400 600 l 1x0808
 500 600 l 1x0804
 500 700 l 1x0404
 600 700 l 1x0402
 600 800 l 1x0202
EndSplineSet
EndChar

StartChar: zero
Encoding: 16 48 16
Width: 900
HStem: 0 100<200 500> 300 200<200 300> 400 200<300 400> 500 200<400 500> 800 100<200 500>
VStem: 0 200<100 300 500 800> 500 200<100 500 700 800>
Fore
SplineSet
500 800 m 1x9e
 200 800 l 1
 200 500 l 1
 300 500 l 1xce
 300 600 l 1
 400 600 l 1xae
 400 700 l 1
 500 700 l 1
 500 800 l 1x9e
500 500 m 1x9e
 400 500 l 1x9e
 400 400 l 1
 300 400 l 1xae
 300 300 l 1
 200 300 l 1xce
 200 100 l 1
 500 100 l 1
 500 500 l 1x9e
100 900 m 1
 600 900 l 1
 600 800 l 1
 700 800 l 1
 700 100 l 1
 600 100 l 1
 600 0 l 1
 100 0 l 1
 100 100 l 1
 0 100 l 1
 0 800 l 1
 100 800 l 1
 100 900 l 1
EndSplineSet
EndChar

StartChar: one
Encoding: 17 49 17
Width: 900
HStem: 0 100<100 300 500 700> 600 200<200 300> 600 100<100 200> 880 20G<300 500>
VStem: 300 200<100 600 800 900>
Fore
SplineSet
300 900 m 1xd8
 500 900 l 1
 500 100 l 1
 700 100 l 1
 700 0 l 1
 100 0 l 1
 100 100 l 1
 300 100 l 1
 300 600 l 1xd8
 100 600 l 1
 100 700 l 1
 200 700 l 1xb8
 200 800 l 1
 300 800 l 1
 300 900 l 1xd8
EndSplineSet
EndChar

StartChar: two
Encoding: 18 50 18
Width: 900
HStem: 0 200<0 100 500 700> 0 100<200 500> 200 200<200 300> 300 200<300 400> 400 200<400 500> 600 200<600 700> 700 100<0 100> 800 100<200 500>
VStem: 0 200<100 200 700 800> 100 200<200 300> 200 200<300 400> 300 200<400 500> 400 200<500 600> 500 200<100 200 600 800>
Fore
SplineSet
100 900 m 1x0140
 600 900 l 1x0148
 600 800 l 1x0448
 700 800 l 1
 700 600 l 1x0404
 600 600 l 1
 600 500 l 1x1408
 500 500 l 1x1410
 500 400 l 1x0810
 400 400 l 1x0820
 400 300 l 1x1020
 300 300 l 1x1040
 300 200 l 1x2040
 200 200 l 1
 200 100 l 1
 500 100 l 1x6084
 500 200 l 1
 700 200 l 1
 700 0 l 1
 0 0 l 1
 0 200 l 1x8084
 100 200 l 1
 100 300 l 1x9040
 200 300 l 1x9020
 200 400 l 1x2020
 300 400 l 1x2010
 300 500 l 1x1010
 400 500 l 1x1008
 400 600 l 1x0808
 500 600 l 1
 500 800 l 1
 200 800 l 1x0984
 200 700 l 1
 0 700 l 1
 0 800 l 1x0284
 100 800 l 1x0240
 100 900 l 1x0140
EndSplineSet
EndChar

StartChar: three
Encoding: 19 51 19
Width: 900
HStem: 0 100<200 500> 100 100<0 100> 400 100<200 500> 700 100<0 100> 800 100<200 500>
VStem: 0 200<100 200 700 800> 500 200<100 400 500 800>
Fore
SplineSet
100 900 m 1x2e
 600 900 l 1
 600 800 l 1
 700 800 l 1
 700 500 l 1
 600 500 l 1
 600 400 l 1
 700 400 l 1
 700 100 l 1
 600 100 l 1x6e
 600 0 l 1
 100 0 l 1xa6
 100 100 l 1
 0 100 l 1
 0 200 l 1
 200 200 l 1x66
 200 100 l 1
 500 100 l 1
 500 400 l 1
 200 400 l 1
 200 500 l 1
 500 500 l 1
 500 800 l 1
 200 800 l 1xae
 200 700 l 1
 0 700 l 1
 0 800 l 1
 100 800 l 1x36
 100 900 l 1x2e
EndSplineSet
EndChar

StartChar: four
Encoding: 20 52 20
Width: 900
HStem: 0 100<300 400 600 700> 300 200<0 100> 300 100<200 400 600 700> 500 200<200 300> 600 200<300 400> 880 20G<400 600>
VStem: 0 200<400 500> 100 200<500 600> 400 200<100 300 400 600 800 900>
Fore
SplineSet
400 900 m 1x8d80
 600 900 l 1
 600 400 l 1
 700 400 l 1
 700 300 l 1
 600 300 l 1
 600 100 l 1
 700 100 l 1
 700 0 l 1
 300 0 l 1
 300 100 l 1
 400 100 l 1
 400 300 l 1xad80
 0 300 l 1
 0 500 l 1xc680
 100 500 l 1
 100 600 l 1xcd80
 200 600 l 1xce80
 200 700 l 1x9680
 300 700 l 1x9580
 300 800 l 1
 400 800 l 1
 400 900 l 1x8d80
400 600 m 1
 300 600 l 1xad80
 300 500 l 1x9580
 200 500 l 1
 200 400 l 1xb680
 400 400 l 1
 400 600 l 1
EndSplineSet
EndChar

StartChar: five
Encoding: 21 53 21
Width: 900
HStem: 0 100<200 500> 100 100<0 100> 500 100<200 500> 800 100<200 700>
VStem: 0 200<100 200 600 800> 500 200<100 500>
Fore
SplineSet
0 900 m 1xbc
 700 900 l 1
 700 800 l 1
 200 800 l 1
 200 600 l 1
 600 600 l 1
 600 500 l 1
 700 500 l 1
 700 100 l 1
 600 100 l 1x7c
 600 0 l 1
 100 0 l 1xbc
 100 100 l 1
 0 100 l 1
 0 200 l 1
 200 200 l 1x7c
 200 100 l 1
 500 100 l 1
 500 500 l 1
 0 500 l 1
 0 900 l 1xbc
EndSplineSet
EndChar

StartChar: six
Encoding: 22 54 22
Width: 900
HStem: 0 100<200 500> 400 100<200 500> 700 100<600 700> 800 100<200 500>
VStem: 0 200<100 400 500 800> 500 200<100 400 700 800>
Fore
SplineSet
100 900 m 1xdc
 600 900 l 1xdc
 600 800 l 1
 700 800 l 1
 700 700 l 1
 500 700 l 1xec
 500 800 l 1
 200 800 l 1
 200 500 l 1
 600 500 l 1
 600 400 l 1
 700 400 l 1
 700 100 l 1
 600 100 l 1
 600 0 l 1
 100 0 l 1
 100 100 l 1
 0 100 l 1
 0 800 l 1
 100 800 l 1
 100 900 l 1xdc
500 400 m 1
 200 400 l 1
 200 100 l 1
 500 100 l 1
 500 400 l 1
EndSplineSet
EndChar

StartChar: seven
Encoding: 23 55 23
Width: 900
HStem: 0 21G<200 400> 400 200<400 500> 700 200<0 200> 800 100<200 500>
VStem: 0 200<700 800> 200 200<0 400> 300 200<400 500> 400 200<500 600> 500 200<600 800>
Fore
SplineSet
0 900 m 1xe880
 700 900 l 1
 700 600 l 1xd880
 600 600 l 1
 600 500 l 1xd1
 500 500 l 1
 500 400 l 1xd2
 400 400 l 1
 400 0 l 1
 200 0 l 1
 200 400 l 1xd4
 300 400 l 1
 300 500 l 1xd2
 400 500 l 1
 400 600 l 1xd1
 500 600 l 1
 500 800 l 1
 200 800 l 1xd880
 200 700 l 1
 0 700 l 1
 0 900 l 1xe880
EndSplineSet
EndChar

StartChar: eight
Encoding: 24 56 24
Width: 900
HStem: 0 100<200 500> 100 300<0 100 600 700> 400 100<200 500> 500 300<0 100 600 700> 800 100<200 500>
VStem: 0 200<100 400 500 800> 500 200<100 400 500 800>
Fore
SplineSet
500 800 m 1x2e
 200 800 l 1
 200 500 l 1
 500 500 l 1
 500 800 l 1x2e
500 400 m 1
 200 400 l 1
 200 100 l 1
 500 100 l 1xa6
 500 400 l 1
100 900 m 1x0e
 600 900 l 1x0e
 600 800 l 1
 700 800 l 1
 700 500 l 1
 600 500 l 1
 600 400 l 1
 700 400 l 1
 700 100 l 1
 600 100 l 1x56
 600 0 l 1
 100 0 l 1x86
 100 100 l 1
 0 100 l 1
 0 400 l 1
 100 400 l 1
 100 500 l 1
 0 500 l 1
 0 800 l 1
 100 800 l 1x56
 100 900 l 1x0e
EndSplineSet
EndChar

StartChar: nine
Encoding: 25 57 25
Width: 900
HStem: 0 100<200 500> 100 100<0 100> 400 100<200 500> 800 100<200 500>
VStem: 0 200<100 200 500 800> 500 200<100 400 500 800>
Fore
SplineSet
500 800 m 1x3c
 200 800 l 1
 200 500 l 1
 500 500 l 1
 500 800 l 1x3c
100 900 m 1
 600 900 l 1
 600 800 l 1
 700 800 l 1
 700 100 l 1
 600 100 l 1x7c
 600 0 l 1
 100 0 l 1xbc
 100 100 l 1
 0 100 l 1
 0 200 l 1
 200 200 l 1x7c
 200 100 l 1
 500 100 l 1xbc
 500 400 l 1
 100 400 l 1
 100 500 l 1
 0 500 l 1
 0 800 l 1
 100 800 l 1
 100 900 l 1
EndSplineSet
EndChar

StartChar: less
Encoding: 28 60 28
Width: 900
HStem: 0 200<500 600> 0 100<600 700> 100 200<400 500> 200 200<300 400> 400 100<100 200> 500 200<300 400> 600 200<400 500> 700 200<500 600> 800 100<600 700>
VStem: 100 200<400 500> 200 200<300 400 500 600> 300 200<200 300 600 700> 400 200<100 200 700 800> 500 200<0 100 800 900>
Fore
SplineSet
500 900 m 1x0104
 700 900 l 1
 700 800 l 1x0084
 600 800 l 1x0088
 600 700 l 1x0108
 500 700 l 1x0110
 500 600 l 1x0210
 400 600 l 1x0220
 400 500 l 1x0420
 300 500 l 1
 300 400 l 1x1440
 400 400 l 1x1420
 400 300 l 1x2020
 500 300 l 1x2010
 500 200 l 1x8010
 600 200 l 1x8008
 600 100 l 1x4008
 700 100 l 1
 700 0 l 1x4004
 500 0 l 1x8004
 500 100 l 1x2004
 400 100 l 1x2008
 400 200 l 1x1008
 300 200 l 1x1010
 300 300 l 1x2010
 200 300 l 1
 200 400 l 1x2820
 100 400 l 1
 100 500 l 1x2840
 200 500 l 1
 200 600 l 1x2a20
 300 600 l 1x2a10
 300 700 l 1x0410
 400 700 l 1x0408
 400 800 l 1x0208
 500 800 l 1x0204
 500 900 l 1x0104
EndSplineSet
EndChar

StartChar: equal
Encoding: 29 61 29
Width: 900
HStem: 300 100<100 700> 600 100<100 700>
Fore
SplineSet
100 700 m 1
 700 700 l 1
 700 600 l 1
 100 600 l 1
 100 700 l 1
100 400 m 1
 700 400 l 1
 700 300 l 1
 100 300 l 1
 100 400 l 1
EndSplineSet
EndChar

StartChar: greater
Encoding: 30 62 30
Width: 900
HStem: 0 200<200 300> 0 100<100 200> 100 200<300 400> 200 200<400 500> 400 100<600 700> 500 200<400 500> 600 200<300 400> 700 200<200 300> 800 100<100 200>
VStem: 100 200<0 100 800 900> 200 200<100 200 700 800> 300 200<200 300 600 700> 400 200<300 400 500 600> 500 200<400 500>
Fore
SplineSet
100 900 m 1x00c0
 300 900 l 1x0140
 300 800 l 1x0240
 400 800 l 1x0220
 400 700 l 1x0420
 500 700 l 1x0410
 500 600 l 1x0210
 600 600 l 1
 600 500 l 1x0a08
 700 500 l 1
 700 400 l 1x0a04
 600 400 l 1
 600 300 l 1x2a08
 500 300 l 1x2a10
 500 200 l 1x1010
 400 200 l 1x1020
 400 100 l 1x2020
 300 100 l 1x2040
 300 0 l 1x8040
 100 0 l 1
 100 100 l 1x4040
 200 100 l 1x4020
 200 200 l 1x8020
 300 200 l 1x8010
 300 300 l 1x2010
 400 300 l 1x2008
 400 400 l 1x1008
 500 400 l 1
 500 500 l 1x1404
 400 500 l 1x1408
 400 600 l 1x0208
 300 600 l 1x0210
 300 700 l 1x0110
 200 700 l 1x0120
 200 800 l 1x00a0
 100 800 l 1
 100 900 l 1x00c0
EndSplineSet
EndChar

StartChar: question
Encoding: 31 63 31
Width: 900
HStem: 0 200<300 500> 300 200<300 400> 600 200<0 100 600 700> 800 100<200 500>
VStem: 0 200<600 800> 300 200<0 200 300 500> 400 200<500 600> 500 200<600 800>
Fore
SplineSet
100 900 m 1xd9
 600 900 l 1xda
 600 800 l 1xea
 700 800 l 1
 700 600 l 1xe9
 600 600 l 1
 600 500 l 1xea
 500 500 l 1
 500 300 l 1
 300 300 l 1
 300 500 l 1xec
 400 500 l 1
 400 600 l 1xea
 500 600 l 1xe9
 500 800 l 1
 200 800 l 1xd9
 200 600 l 1
 0 600 l 1
 0 800 l 1
 100 800 l 1xe9
 100 900 l 1xd9
300 200 m 1xcc
 500 200 l 1
 500 0 l 1
 300 0 l 1
 300 200 l 1xcc
EndSplineSet
Colour: f46a4b
EndChar

StartChar: at
Encoding: 32 64 32
Width: 900
HStem: 0 100<200 600> 100 100<100 200> 200 100<300 400 600 700> 300 100<400 500> 500 100<300 500> 600 100<100 200 600 700> 700 100<200 600>
VStem: 0 100<200 600> 100 100<100 200 600 700> 200 200<200 300> 200 100<300 500> 400 200<300 400> 500 100<400 500> 600 100<600 700> 700 100<300 600>
Fore
SplineSet
200 800 m 1x0220
 600 800 l 1x0224
 600 700 l 1
 200 700 l 1x0484
 200 800 l 1x0220
100 700 m 1x0480
 200 700 l 1
 200 600 l 1x0480
 100 600 l 1x05
 100 700 l 1x0480
600 700 m 1x0404
 700 700 l 1
 700 600 l 1
 600 600 l 1
 600 700 l 1x0404
700 600 m 1
 800 600 l 1
 800 300 l 1x1402
 700 300 l 1x2002
 700 600 l 1
0 600 m 1x25
 100 600 l 1
 100 200 l 1x45
 0 200 l 1
 0 600 l 1x25
200 500 m 1x4820
 300 500 l 1
 300 300 l 1x2820
 400 300 l 1
 400 200 l 1x2840
 200 200 l 1x4080
 200 500 l 1x4820
300 600 m 1
 600 600 l 1x0424
 600 300 l 1x2410
 700 300 l 1
 700 200 l 1
 500 200 l 1x240a
 500 300 l 1x100a
 400 300 l 1x204a
 400 400 l 1x1010
 500 400 l 1
 500 500 l 1x1808
 300 500 l 1
 300 600 l 1
100 200 m 1x41
 200 200 l 1x4080
 200 100 l 1x8080
 100 100 l 1x4080
 100 200 l 1x41
200 100 m 1x8080
 600 100 l 1
 600 0 l 1
 200 0 l 1x8024
 200 100 l 1x8080
EndSplineSet
EndChar

StartChar: A
Encoding: 33 65 33
Width: 900
HStem: 0 21G<0 200 500 700> 400 100<200 500> 700 200<200 300 400 500> 800 100<300 400>
VStem: 0 200<0 400 500 700> 100 200<700 800> 400 200<700 800> 500 200<0 400 500 700>
Fore
SplineSet
400 800 m 1xd2
 300 800 l 1xd6
 300 700 l 1xe6
 200 700 l 1
 200 500 l 1
 500 500 l 1
 500 700 l 1xe9
 400 700 l 1xe2
 400 800 l 1xd2
200 900 m 1xe8
 500 900 l 1xe9
 500 800 l 1xd9
 600 800 l 1xd2
 600 700 l 1xe2
 700 700 l 1
 700 0 l 1
 500 0 l 1
 500 400 l 1
 200 400 l 1
 200 0 l 1
 0 0 l 1
 0 700 l 1xe9
 100 700 l 1xe4
 100 800 l 1xd4
 200 800 l 1xd8
 200 900 l 1xe8
EndSplineSet
EndChar

StartChar: B
Encoding: 34 66 34
Width: 900
HStem: 0 100<0 100 300 500> 400 100<300 500> 800 100<0 100 300 500>
VStem: 100 200<100 400 500 800> 500 200<100 400 500 800>
Fore
SplineSet
500 800 m 1
 300 800 l 1
 300 500 l 1
 500 500 l 1
 500 800 l 1
500 400 m 1
 300 400 l 1
 300 100 l 1
 500 100 l 1
 500 400 l 1
0 900 m 1
 600 900 l 1
 600 800 l 1
 700 800 l 1
 700 500 l 1
 600 500 l 1
 600 400 l 1
 700 400 l 1
 700 100 l 1
 600 100 l 1
 600 0 l 1
 0 0 l 1
 0 100 l 1
 100 100 l 1
 100 800 l 1
 0 800 l 1
 0 900 l 1
EndSplineSet
EndChar

StartChar: C
Encoding: 35 67 35
Width: 900
HStem: 0 100<200 500> 100 200<600 700> 600 200<600 700> 800 100<200 500>
VStem: 0 200<100 800> 500 200<100 300 600 800>
Fore
SplineSet
100 900 m 1x5c
 600 900 l 1x5c
 600 800 l 1
 700 800 l 1
 700 600 l 1
 500 600 l 1x2c
 500 800 l 1
 200 800 l 1
 200 100 l 1
 500 100 l 1x9c
 500 300 l 1
 700 300 l 1
 700 100 l 1
 600 100 l 1x4c
 600 0 l 1
 100 0 l 1x8c
 100 100 l 1
 0 100 l 1
 0 800 l 1
 100 800 l 1
 100 900 l 1x5c
EndSplineSet
EndChar

StartChar: D
Encoding: 36 68 36
Width: 900
HStem: 0 100<0 100 300 500> 800 100<0 100 300 500>
VStem: 100 200<100 800> 500 200<100 800>
Fore
SplineSet
500 800 m 1
 300 800 l 1
 300 100 l 1
 500 100 l 1
 500 800 l 1
0 900 m 1
 600 900 l 1
 600 800 l 1
 700 800 l 1
 700 100 l 1
 600 100 l 1
 600 0 l 1
 0 0 l 1
 0 100 l 1
 100 100 l 1
 100 800 l 1
 0 800 l 1
 0 900 l 1
EndSplineSet
EndChar

StartChar: E
Encoding: 37 69 37
Width: 900
HStem: 0 200<500 600> 0 100<0 100 300 500> 400 100<300 400> 580 20G<400 500> 600 21G<600 700> 700 200<500 600> 800 100<0 100 300 500>
VStem: 100 200<100 400 500 800> 400 100<300 400 500 600> 500 200<100 200 700 800> 600 100<200 300 600 700>
Fore
SplineSet
0 900 m 1x6320
 700 900 l 1x6320
 700 600 l 1
 600 600 l 1
 600 700 l 1x2d20
 500 700 l 1x2d40
 500 800 l 1x2340
 300 800 l 1
 300 500 l 1
 400 500 l 1
 400 600 l 1
 500 600 l 1
 500 300 l 1
 400 300 l 1
 400 400 l 1x3380
 300 400 l 1
 300 100 l 1
 500 100 l 1x7340
 500 200 l 1xa140
 600 200 l 1xa120
 600 300 l 1
 700 300 l 1
 700 0 l 1
 0 0 l 1
 0 100 l 1
 100 100 l 1
 100 800 l 1
 0 800 l 1
 0 900 l 1x6320
EndSplineSet
EndChar

StartChar: F
Encoding: 38 70 38
Width: 900
HStem: 0 100<0 100 300 400> 400 100<300 400> 580 20G<400 500> 600 21G<600 700> 700 200<500 600> 800 100<0 100 300 500>
VStem: 100 200<100 400 500 800> 400 100<300 400 500 600> 500 200<700 800> 600 100<600 700>
Fore
SplineSet
0 900 m 1xe7
 700 900 l 1xe740
 700 600 l 1
 600 600 l 1
 600 700 l 1xdb40
 500 700 l 1xda80
 500 800 l 1xc680
 300 800 l 1
 300 500 l 1
 400 500 l 1
 400 600 l 1
 500 600 l 1
 500 300 l 1
 400 300 l 1
 400 400 l 1
 300 400 l 1
 300 100 l 1
 400 100 l 1
 400 0 l 1
 0 0 l 1
 0 100 l 1
 100 100 l 1
 100 800 l 1
 0 800 l 1
 0 900 l 1xe7
EndSplineSet
EndChar

StartChar: G
Encoding: 39 71 39
Width: 900
HStem: 0 100<200 500> 300 100<400 500> 600 200<600 700> 800 100<200 500>
VStem: 0 200<100 800> 500 200<100 300 600 800>
Fore
SplineSet
100 900 m 1xdc
 600 900 l 1xdc
 600 800 l 1
 700 800 l 1
 700 600 l 1
 500 600 l 1xec
 500 800 l 1
 200 800 l 1
 200 100 l 1
 500 100 l 1
 500 300 l 1
 400 300 l 1
 400 400 l 1
 700 400 l 1
 700 0 l 1
 100 0 l 1
 100 100 l 1
 0 100 l 1
 0 800 l 1
 100 800 l 1
 100 900 l 1xdc
EndSplineSet
EndChar

StartChar: H
Encoding: 40 72 40
Width: 900
HStem: 0 21G<0 200 500 700> 400 100<200 500> 880 20G<0 200 500 700>
VStem: 0 200<0 400 500 900> 500 200<0 400 500 900>
Fore
SplineSet
0 900 m 1
 200 900 l 1
 200 500 l 1
 500 500 l 1
 500 900 l 1
 700 900 l 1
 700 0 l 1
 500 0 l 1
 500 400 l 1
 200 400 l 1
 200 0 l 1
 0 0 l 1
 0 900 l 1
EndSplineSet
EndChar

StartChar: I
Encoding: 41 73 41
Width: 900
HStem: 0 100<200 300 500 600> 800 100<200 300 500 600>
VStem: 300 200<100 800>
Fore
SplineSet
200 900 m 1
 600 900 l 1
 600 800 l 1
 500 800 l 1
 500 100 l 1
 600 100 l 1
 600 0 l 1
 200 0 l 1
 200 100 l 1
 300 100 l 1
 300 800 l 1
 200 800 l 1
 200 900 l 1
EndSplineSet
EndChar

StartChar: J
Encoding: 42 74 42
Width: 900
HStem: 0 100<200 400> 100 200<0 100> 800 100<300 400 600 700>
VStem: 0 200<100 300> 400 200<100 800>
Fore
SplineSet
300 900 m 1xb8
 700 900 l 1
 700 800 l 1
 600 800 l 1
 600 100 l 1
 500 100 l 1x78
 500 0 l 1
 100 0 l 1xb8
 100 100 l 1
 0 100 l 1
 0 300 l 1
 200 300 l 1x78
 200 100 l 1
 400 100 l 1
 400 800 l 1
 300 800 l 1
 300 900 l 1xb8
EndSplineSet
EndChar

StartChar: K
Encoding: 43 75 43
Width: 900
HStem: 0 200<600 700> 0 100<0 100> 400 100<300 400> 700 200<600 700> 800 100<0 100>
VStem: 0 300<0 100 800 900> 100 200<100 400 500 800> 400 200<200 400 500 700> 500 200<0 200 700 900>
Fore
SplineSet
0 900 m 1x6c
 300 900 l 1x6c
 300 500 l 1
 400 500 l 1
 400 700 l 1x33
 500 700 l 1x3080
 500 900 l 1x2880
 700 900 l 1
 700 700 l 1x3080
 600 700 l 1
 600 500 l 1x31
 500 500 l 1
 500 400 l 1x3080
 600 400 l 1
 600 200 l 1xb1
 700 200 l 1
 700 0 l 1xb080
 500 0 l 1x6080
 500 200 l 1xa080
 400 200 l 1
 400 400 l 1
 300 400 l 1xa3
 300 0 l 1
 0 0 l 1
 0 100 l 1x64
 100 100 l 1
 100 800 l 1x6a
 0 800 l 1
 0 900 l 1x6c
EndSplineSet
EndChar

StartChar: L
Encoding: 44 76 44
Width: 900
HStem: 0 200<500 600> 0 100<0 100 300 500> 800 100<0 100 300 400>
VStem: 100 200<100 800> 500 200<100 200> 600 100<200 300>
Fore
SplineSet
0 900 m 1x74
 400 900 l 1
 400 800 l 1
 300 800 l 1
 300 100 l 1
 500 100 l 1x78
 500 200 l 1xb8
 600 200 l 1xb4
 600 300 l 1
 700 300 l 1
 700 0 l 1
 0 0 l 1
 0 100 l 1
 100 100 l 1
 100 800 l 1
 0 800 l 1
 0 900 l 1x74
EndSplineSet
EndChar

StartChar: M
Encoding: 45 77 45
Width: 900
HStem: 0 21G<0 200 500 700> 400 200<300 400> 500 200<200 300 400 500> 880 20G<0 100 600 700>
VStem: 0 200<0 500 700 800> 0 100<800 900> 300 100<400 500> 500 200<0 500 700 800> 600 100<800 900>
Fore
SplineSet
0 900 m 1xb6
 100 900 l 1
 100 800 l 1xb6
 200 800 l 1
 200 700 l 1
 300 700 l 1xba
 300 600 l 1
 400 600 l 1xda
 400 700 l 1
 500 700 l 1
 500 800 l 1xbb
 600 800 l 1
 600 900 l 1
 700 900 l 1xb280
 700 0 l 1
 500 0 l 1
 500 500 l 1
 400 500 l 1xb3
 400 400 l 1
 300 400 l 1xd3
 300 500 l 1
 200 500 l 1
 200 0 l 1
 0 0 l 1xbb
 0 900 l 1xb6
EndSplineSet
EndChar

StartChar: N
Encoding: 46 78 46
Width: 900
HStem: 0 21G<0 200 500 700> 300 200<400 500> 400 200<300 400> 500 200<200 300> 880 20G<0 100 500 700>
VStem: 0 200<0 500 700 800> 0 100<800 900> 500 200<0 300 500 900>
Fore
SplineSet
0 900 m 1x9b
 100 900 l 1
 100 800 l 1x9b
 200 800 l 1
 200 700 l 1
 300 700 l 1x9d
 300 600 l 1
 400 600 l 1xad
 400 500 l 1
 500 500 l 1
 500 900 l 1
 700 900 l 1
 700 0 l 1
 500 0 l 1
 500 300 l 1
 400 300 l 1xcd
 400 400 l 1
 300 400 l 1xad
 300 500 l 1
 200 500 l 1
 200 0 l 1
 0 0 l 1x9d
 0 900 l 1x9b
EndSplineSet
EndChar

StartChar: O
Encoding: 47 79 47
Width: 900
HStem: 0 100<200 500> 800 100<200 500>
VStem: 0 200<100 800> 500 200<100 800>
Fore
SplineSet
500 800 m 1
 200 800 l 1
 200 100 l 1
 500 100 l 1
 500 800 l 1
100 900 m 1
 600 900 l 1
 600 800 l 1
 700 800 l 1
 700 100 l 1
 600 100 l 1
 600 0 l 1
 100 0 l 1
 100 100 l 1
 0 100 l 1
 0 800 l 1
 100 800 l 1
 100 900 l 1
EndSplineSet
EndChar

StartChar: P
Encoding: 48 80 48
Width: 900
HStem: 0 100<0 100 300 400> 400 100<300 500> 800 100<0 100 300 500>
VStem: 100 200<100 400 500 800> 500 200<500 800>
Fore
SplineSet
500 800 m 1
 300 800 l 1
 300 500 l 1
 500 500 l 1
 500 800 l 1
0 900 m 1
 600 900 l 1
 600 800 l 1
 700 800 l 1
 700 500 l 1
 600 500 l 1
 600 400 l 1
 300 400 l 1
 300 100 l 1
 400 100 l 1
 400 0 l 1
 0 0 l 1
 0 100 l 1
 100 100 l 1
 100 800 l 1
 0 800 l 1
 0 900 l 1
EndSplineSet
EndChar

StartChar: Q
Encoding: 49 81 49
Width: 900
HStem: -100 100<600 700> 0 200<400 500> 0 100<200 300> 800 100<200 500>
VStem: 0 200<100 800> 300 100<200 300> 500 200<-100 0 200 800>
Fore
SplineSet
500 800 m 1x5e
 200 800 l 1
 200 100 l 1
 300 100 l 1x3e
 300 300 l 1
 400 300 l 1
 400 200 l 1
 500 200 l 1
 500 800 l 1x5e
100 900 m 1
 600 900 l 1
 600 800 l 1
 700 800 l 1
 700 100 l 1
 600 100 l 1x3e
 600 0 l 1
 700 0 l 1
 700 -100 l 1
 500 -100 l 1x9e
 500 0 l 1x5e
 100 0 l 1
 100 100 l 1
 0 100 l 1
 0 800 l 1
 100 800 l 1
 100 900 l 1
EndSplineSet
EndChar

StartChar: R
Encoding: 50 82 50
Width: 900
HStem: 0 100<0 100> 300 200<400 500> 400 100<300 400> 800 100<0 100 300 500>
VStem: 100 200<100 400 500 800> 400 200<300 400> 500 200<0 300 500 800>
Fore
SplineSet
500 800 m 1xda
 300 800 l 1
 300 500 l 1xba
 500 500 l 1
 500 800 l 1xda
0 900 m 1
 600 900 l 1
 600 800 l 1xbc
 700 800 l 1
 700 500 l 1xba
 600 500 l 1xbc
 600 300 l 1xdc
 700 300 l 1
 700 0 l 1
 500 0 l 1
 500 300 l 1xda
 400 300 l 1xdc
 400 400 l 1xbc
 300 400 l 1
 300 0 l 1
 0 0 l 1
 0 100 l 1
 100 100 l 1
 100 800 l 1
 0 800 l 1
 0 900 l 1
EndSplineSet
EndChar

StartChar: S
Encoding: 51 83 51
Width: 900
HStem: 0 100<200 500> 100 200<0 100 600 700> 300 200<400 500> 400 200<200 300> 400 100<300 400> 600 200<0 100 600 700> 800 100<200 500>
VStem: 0 200<100 300 600 800> 100 200<500 600> 400 200<300 400> 500 200<100 300 600 800>
Fore
SplineSet
100 900 m 1x0280
 600 900 l 1x02c0
 600 800 l 1x04c0
 700 800 l 1
 700 600 l 1
 500 600 l 1x0420
 500 800 l 1
 200 800 l 1
 200 600 l 1x1320
 300 600 l 1x1280
 300 500 l 1x0880
 500 500 l 1x20a0
 500 400 l 1x08a0
 600 400 l 1
 600 300 l 1x4840
 700 300 l 1
 700 100 l 1x4820
 600 100 l 1x4840
 600 0 l 1
 100 0 l 1x80c0
 100 100 l 1x40c0
 0 100 l 1
 0 300 l 1x41
 200 300 l 1
 200 100 l 1
 500 100 l 1
 500 300 l 1xa120
 400 300 l 1xa040
 400 400 l 1x0840
 200 400 l 1x1140
 200 500 l 1x0940
 100 500 l 1
 100 600 l 1x0c80
 0 600 l 1
 0 800 l 1x0d
 100 800 l 1x0c80
 100 900 l 1x0280
EndSplineSet
EndChar

StartChar: T
Encoding: 52 84 52
Width: 900
HStem: 0 100<200 300 500 600> 600 300<100 200 600 700> 700 200<200 300 500 600>
VStem: 100 100<600 700> 300 200<100 700> 600 100<600 700>
Fore
SplineSet
100 900 m 1xdc
 700 900 l 1
 700 600 l 1
 600 600 l 1xdc
 600 700 l 1
 500 700 l 1
 500 100 l 1
 600 100 l 1
 600 0 l 1
 200 0 l 1
 200 100 l 1
 300 100 l 1
 300 700 l 1
 200 700 l 1xbc
 200 600 l 1
 100 600 l 1
 100 900 l 1xdc
EndSplineSet
EndChar

StartChar: U
Encoding: 53 85 53
Width: 900
HStem: 0 100<200 500> 880 20G<0 200 500 700>
VStem: 0 200<100 900> 500 200<100 900>
Fore
SplineSet
0 900 m 1
 200 900 l 1
 200 100 l 1
 500 100 l 1
 500 900 l 1
 700 900 l 1
 700 100 l 1
 600 100 l 1
 600 0 l 1
 100 0 l 1
 100 100 l 1
 0 100 l 1
 0 900 l 1
EndSplineSet
EndChar

StartChar: V
Encoding: 54 86 54
Width: 900
HStem: 0 200<300 400> 100 200<200 300 400 500> 880 20G<0 200 500 700>
VStem: 0 200<300 900> 100 200<200 300> 300 100<0 100> 400 200<200 300> 500 200<300 900>
Fore
SplineSet
0 900 m 1x70
 200 900 l 1
 200 300 l 1x70
 300 300 l 1x68
 300 200 l 1
 400 200 l 1xaa
 400 300 l 1x6a
 500 300 l 1
 500 900 l 1
 700 900 l 1
 700 300 l 1x61
 600 300 l 1x62
 600 200 l 1xa2
 500 200 l 1xa1
 500 100 l 1
 400 100 l 1x65
 400 0 l 1
 300 0 l 1xa5
 300 100 l 1
 200 100 l 1x75
 200 200 l 1xb5
 100 200 l 1xa8
 100 300 l 1x68
 0 300 l 1
 0 900 l 1x70
EndSplineSet
EndChar

StartChar: W
Encoding: 55 87 55
Width: 900
HStem: 0 21G<0 100 600 700> 200 200<200 300 400 500> 300 200<300 400> 880 20G<0 200 500 700>
VStem: 0 200<100 200 400 900> 0 100<0 100> 300 100<400 500> 500 200<100 200 400 900> 600 100<0 100>
Fore
SplineSet
0 900 m 1xda
 200 900 l 1
 200 400 l 1
 300 400 l 1xda
 300 500 l 1
 400 500 l 1xba
 400 400 l 1
 500 400 l 1
 500 900 l 1
 700 900 l 1xdb
 700 0 l 1
 600 0 l 1
 600 100 l 1xd280
 500 100 l 1
 500 200 l 1
 400 200 l 1xd3
 400 300 l 1
 300 300 l 1xb3
 300 200 l 1
 200 200 l 1
 200 100 l 1xdb
 100 100 l 1
 100 0 l 1
 0 0 l 1xd6
 0 900 l 1xda
EndSplineSet
EndChar

StartChar: X
Encoding: 56 88 56
Width: 900
HStem: 0 200<0 100 600 700> 700 200<0 100 600 700>
VStem: 0 200<0 200 700 900> 100 200<200 300 600 700> 400 200<200 300 600 700> 500 200<0 200 700 900>
Fore
SplineSet
0 900 m 1xe0
 200 900 l 1
 200 700 l 1xe0
 300 700 l 1
 300 600 l 1
 400 600 l 1
 400 700 l 1xd8
 500 700 l 1
 500 900 l 1
 700 900 l 1
 700 700 l 1xc4
 600 700 l 1
 600 500 l 1xc8
 500 500 l 1
 500 400 l 1xc4
 600 400 l 1
 600 200 l 1xc8
 700 200 l 1
 700 0 l 1
 500 0 l 1
 500 200 l 1xc4
 400 200 l 1
 400 300 l 1
 300 300 l 1
 300 200 l 1xd8
 200 200 l 1
 200 0 l 1
 0 0 l 1
 0 200 l 1xe0
 100 200 l 1
 100 400 l 1xd0
 200 400 l 1
 200 500 l 1xe0
 100 500 l 1
 100 700 l 1xd0
 0 700 l 1
 0 900 l 1xe0
EndSplineSet
EndChar

StartChar: Y
Encoding: 57 89 57
Width: 900
HStem: 0 100<200 300 500 600> 880 20G<100 300 500 700>
VStem: 100 200<500 900> 300 200<100 400> 500 200<500 900>
Fore
SplineSet
100 900 m 1xe0
 300 900 l 1
 300 500 l 1
 500 500 l 1
 500 900 l 1
 700 900 l 1
 700 500 l 1xe8
 600 500 l 1
 600 400 l 1
 500 400 l 1
 500 100 l 1
 600 100 l 1
 600 0 l 1
 200 0 l 1
 200 100 l 1
 300 100 l 1
 300 400 l 1xd0
 200 400 l 1
 200 500 l 1
 100 500 l 1
 100 900 l 1xe0
EndSplineSet
EndChar

StartChar: Z
Encoding: 58 90 58
Width: 900
HStem: 0 300<100 200 600 700> 0 200<0 100 500 600> 0 100<200 500> 200 200<200 300> 300 200<300 400> 400 200<400 500> 600 300<0 100 600 700> 700 200<100 200> 800 100<200 500>
VStem: 0 200<100 200 700 800> 0 100<600 700> 100 200<200 300> 200 200<300 400> 300 200<400 500> 400 200<500 600> 500 200<100 200 600 800> 600 100<200 300>
Fore
SplineSet
0 900 m 1x0220
 700 900 l 1x022080
 700 600 l 1x0201
 600 600 l 1
 600 500 l 1x0a02
 500 500 l 1x0a04
 500 400 l 1x0404
 400 400 l 1x0408
 400 300 l 1x0808
 300 300 l 1x0810
 300 200 l 1x1010
 200 200 l 1
 200 100 l 1
 500 100 l 1x3041
 500 200 l 1x4041
 600 200 l 1x400080
 600 300 l 1
 700 300 l 1
 700 0 l 1x800080
 0 0 l 1x402080
 0 200 l 1x4040
 100 200 l 1x4010
 100 300 l 1x8010
 200 300 l 1x8008
 200 400 l 1x1008
 300 400 l 1x1004
 300 500 l 1x0804
 400 500 l 1x0802
 400 600 l 1x0402
 500 600 l 1
 500 800 l 1
 200 800 l 1x04c1
 200 700 l 1x0141
 100 700 l 1x0120
 100 600 l 1
 0 600 l 1
 0 900 l 1x0220
EndSplineSet
EndChar

StartChar: bracketleft
Encoding: 59 91 59
Width: 900
HStem: 0 100<400 600> 800 100<400 600>
VStem: 200 200<100 800>
Fore
SplineSet
200 900 m 1
 600 900 l 1
 600 800 l 1
 400 800 l 1
 400 100 l 1
 600 100 l 1
 600 0 l 1
 200 0 l 1
 200 900 l 1
EndSplineSet
EndChar

StartChar: backslash
Encoding: 60 92 60
Width: 900
HStem: 100 200<600 700> 200 200<500 600> 300 200<400 500> 400 200<300 400> 500 200<200 300> 600 200<100 200> 700 200<0 100>
VStem: 0 200<700 800> 0 100<800 900> 100 200<600 700> 200 200<500 600> 300 200<400 500> 400 200<300 400> 500 200<200 300> 600 100<100 200>
Fore
SplineSet
0 900 m 1x0280
 100 900 l 1x0280
 100 800 l 1x0480
 200 800 l 1x05
 200 700 l 1x09
 300 700 l 1x0840
 300 600 l 1x1040
 400 600 l 1x1020
 400 500 l 1x2020
 500 500 l 1x2010
 500 400 l 1x4010
 600 400 l 1x4008
 600 300 l 1x8008
 700 300 l 1x8004
 700 100 l 1
 600 100 l 1x8002
 600 200 l 1x4002
 500 200 l 1x4004
 500 300 l 1x2004
 400 300 l 1x2008
 400 400 l 1x1008
 300 400 l 1x1010
 300 500 l 1x0810
 200 500 l 1x0820
 200 600 l 1x0420
 100 600 l 1x0440
 100 700 l 1x0240
 0 700 l 1x03
 0 900 l 1x0280
EndSplineSet
EndChar

StartChar: bracketright
Encoding: 61 93 61
Width: 900
HStem: 0 100<200 400> 800 100<200 400>
VStem: 400 200<100 800>
Fore
SplineSet
200 900 m 1
 600 900 l 1
 600 0 l 1
 200 0 l 1
 200 100 l 1
 400 100 l 1
 400 800 l 1
 200 800 l 1
 200 900 l 1
EndSplineSet
EndChar

StartChar: asciicircum
Encoding: 62 94 62
Width: 900
HStem: 700 200<100 200 500 600> 700 100<0 100 600 700> 800 200<200 300 400 500> 900 200<300 400>
VStem: 0 200<700 800> 100 200<800 900> 300 100<1000 1100> 400 200<800 900> 500 200<700 800>
Fore
SplineSet
300 1100 m 1x1a
 400 1100 l 1x1a
 400 1000 l 1
 500 1000 l 1x2a80
 500 900 l 1x8a80
 600 900 l 1x81
 600 800 l 1x41
 700 800 l 1
 700 700 l 1x4080
 500 700 l 1x8080
 500 800 l 1x2080
 400 800 l 1x21
 400 900 l 1
 300 900 l 1x15
 300 800 l 1x25
 200 800 l 1x28
 200 700 l 1x88
 0 700 l 1
 0 800 l 1x48
 100 800 l 1x44
 100 900 l 1x84
 200 900 l 1x88
 200 1000 l 1
 300 1000 l 1x2a
 300 1100 l 1x1a
EndSplineSet
EndChar

StartChar: underscore
Encoding: 63 95 63
Width: 900
HStem: -200 100<0 800>
Fore
SplineSet
0 -100 m 1
 800 -100 l 1
 800 -200 l 1
 0 -200 l 1
 0 -100 l 1
EndSplineSet
EndChar

StartChar: grave
Encoding: 64 96 64
Width: 900
HStem: 600 100<400 500> 800 200<400 500>
VStem: 300 100<700 800> 400 100<600 700>
Fore
SplineSet
300 1000 m 1xe0
 500 1000 l 1
 500 800 l 1xd0
 400 800 l 1
 400 700 l 1
 300 700 l 1
 300 1000 l 1xe0
400 700 m 1xe0
 500 700 l 1
 500 600 l 1
 400 600 l 1xd0
 400 700 l 1xe0
EndSplineSet
EndChar

StartChar: a
Encoding: 65 97 65
Width: 900
HStem: 0 100<200 400 600 700> 100 200<0 100> 300 100<200 400> 500 100<100 400>
VStem: 0 200<100 300> 400 200<100 300 400 500> 500 200<0 100>
Fore
SplineSet
100 600 m 1x3c
 500 600 l 1
 500 500 l 1x3a
 600 500 l 1
 600 100 l 1xbc
 700 100 l 1
 700 0 l 1
 500 0 l 1xba
 500 100 l 1x5a
 400 100 l 1
 400 300 l 1
 200 300 l 1
 200 100 l 1
 400 100 l 1
 400 0 l 1
 100 0 l 1xbc
 100 100 l 1
 0 100 l 1
 0 300 l 1
 100 300 l 1x5c
 100 400 l 1
 400 400 l 1
 400 500 l 1
 100 500 l 1
 100 600 l 1x3c
EndSplineSet
Colour: f46a4b
EndChar

StartChar: b
Encoding: 66 98 66
Width: 900
HStem: 0 100<300 500> 500 100<300 500> 800 100<0 100>
VStem: 100 200<100 500 600 800> 500 200<100 500>
Fore
SplineSet
0 900 m 1
 300 900 l 1
 300 600 l 1
 600 600 l 1
 600 500 l 1
 700 500 l 1
 700 100 l 1
 600 100 l 1
 600 0 l 1
 100 0 l 1
 100 800 l 1
 0 800 l 1
 0 900 l 1
500 500 m 1
 300 500 l 1
 300 100 l 1
 500 100 l 1
 500 500 l 1
EndSplineSet
EndChar

StartChar: c
Encoding: 67 99 67
Width: 900
HStem: 0 100<200 500> 100 100<600 700> 400 100<600 700> 500 100<200 500>
VStem: 0 200<100 500> 500 200<100 200 400 500>
Fore
SplineSet
100 600 m 1x5c
 600 600 l 1x5c
 600 500 l 1
 700 500 l 1
 700 400 l 1
 500 400 l 1x2c
 500 500 l 1
 200 500 l 1
 200 100 l 1
 500 100 l 1x9c
 500 200 l 1
 700 200 l 1
 700 100 l 1
 600 100 l 1x4c
 600 0 l 1
 100 0 l 1x8c
 100 100 l 1
 0 100 l 1
 0 500 l 1
 100 500 l 1
 100 600 l 1x5c
EndSplineSet
Colour: f46a4b
EndChar

StartChar: d
Encoding: 68 100 68
Width: 900
HStem: 0 100<200 400 600 700> 500 100<200 400> 800 100<300 400>
VStem: 0 200<100 500> 400 200<100 500 600 800> 500 200<0 100>
Fore
SplineSet
300 900 m 1xf8
 600 900 l 1
 600 100 l 1xf8
 700 100 l 1
 700 0 l 1
 500 0 l 1
 500 100 l 1xf4
 400 100 l 1
 400 500 l 1
 200 500 l 1
 200 100 l 1
 400 100 l 1
 400 0 l 1
 100 0 l 1
 100 100 l 1
 0 100 l 1
 0 500 l 1
 100 500 l 1
 100 600 l 1
 400 600 l 1
 400 800 l 1
 300 800 l 1
 300 900 l 1xf8
EndSplineSet
EndChar

StartChar: e
Encoding: 69 101 69
Width: 900
HStem: 0 100<200 500> 100 100<600 700> 300 200<600 700> 300 100<200 500> 500 100<200 500>
VStem: 0 200<100 300 400 500> 500 200<100 200 400 500>
Fore
SplineSet
500 500 m 1x1e
 200 500 l 1
 200 400 l 1
 500 400 l 1
 500 500 l 1x1e
100 600 m 1
 600 600 l 1x4e
 600 500 l 1
 700 500 l 1
 700 300 l 1x26
 200 300 l 1
 200 100 l 1
 500 100 l 1x96
 500 200 l 1
 700 200 l 1
 700 100 l 1
 600 100 l 1x46
 600 0 l 1
 100 0 l 1x86
 100 100 l 1
 0 100 l 1x46
 0 500 l 1
 100 500 l 1
 100 600 l 1
EndSplineSet
Colour: f46a4b
EndChar

StartChar: f
Encoding: 70 102 70
Width: 900
HStem: 0 100<100 200 400 500> 500 100<100 200 400 500> 700 100<600 700> 800 100<400 500>
VStem: 200 200<100 500 600 800> 500 200<700 800>
Fore
SplineSet
300 900 m 1xdc
 600 900 l 1xdc
 600 800 l 1
 700 800 l 1
 700 700 l 1
 500 700 l 1xec
 500 800 l 1
 400 800 l 1
 400 600 l 1
 500 600 l 1
 500 500 l 1
 400 500 l 1
 400 100 l 1
 500 100 l 1
 500 0 l 1
 100 0 l 1
 100 100 l 1
 200 100 l 1
 200 500 l 1
 100 500 l 1
 100 600 l 1
 200 600 l 1
 200 800 l 1
 300 800 l 1
 300 900 l 1xdc
EndSplineSet
EndChar

StartChar: g
Encoding: 71 103 71
Width: 900
HStem: -200 100<200 400> -100 100<0 100> 100 100<200 400> 500 100<200 400 600 700>
VStem: 0 200<-100 0 200 500> 400 200<-100 100 200 500> 500 200<500 600>
Fore
SplineSet
100 600 m 1xbc
 400 600 l 1
 400 500 l 1
 200 500 l 1
 200 200 l 1
 400 200 l 1
 400 500 l 1xbc
 500 500 l 1
 500 600 l 1
 700 600 l 1
 700 500 l 1xba
 600 500 l 1
 600 -100 l 1x7c
 500 -100 l 1x7a
 500 -200 l 1
 100 -200 l 1xba
 100 -100 l 1
 0 -100 l 1
 0 0 l 1
 200 0 l 1x7a
 200 -100 l 1
 400 -100 l 1
 400 100 l 1
 100 100 l 1
 100 200 l 1
 0 200 l 1
 0 500 l 1
 100 500 l 1
 100 600 l 1xbc
EndSplineSet
EndChar

StartChar: h
Encoding: 72 104 72
Width: 900
HStem: 0 100<0 100> 400 100<300 400> 500 100<400 500> 800 100<0 100>
VStem: 0 300<0 100 800 900> 100 200<100 400 500 800> 400 200<500 600> 500 200<0 500>
Fore
SplineSet
0 900 m 1xd8
 300 900 l 1xd8
 300 500 l 1
 400 500 l 1
 400 400 l 1
 300 400 l 1xd6
 300 0 l 1
 0 0 l 1
 0 100 l 1xd8
 100 100 l 1
 100 800 l 1xd4
 0 800 l 1
 0 900 l 1xd8
400 600 m 1xb2
 600 600 l 1
 600 500 l 1xb2
 700 500 l 1
 700 0 l 1
 500 0 l 1
 500 500 l 1xb1
 400 500 l 1xd2
 400 600 l 1xb2
EndSplineSet
EndChar

StartChar: i
Encoding: 73 105 73
Width: 900
HStem: 0 100<200 300 500 600> 500 100<200 300> 700 200<300 500>
VStem: 300 200<100 500 700 900>
Fore
SplineSet
300 900 m 1
 500 900 l 1
 500 700 l 1
 300 700 l 1
 300 900 l 1
200 600 m 1
 500 600 l 1
 500 100 l 1
 600 100 l 1
 600 0 l 1
 200 0 l 1
 200 100 l 1
 300 100 l 1
 300 500 l 1
 200 500 l 1
 200 600 l 1
EndSplineSet
EndChar

StartChar: j
Encoding: 74 106 74
Width: 900
HStem: -200 100<200 400> -100 200<0 100> 500 100<300 400> 700 200<400 600>
VStem: 0 200<-100 100> 400 200<-100 500 700 900>
Fore
SplineSet
400 900 m 1x3c
 600 900 l 1
 600 700 l 1
 400 700 l 1
 400 900 l 1x3c
300 600 m 1
 600 600 l 1
 600 -100 l 1
 500 -100 l 1x7c
 500 -200 l 1
 100 -200 l 1xbc
 100 -100 l 1
 0 -100 l 1
 0 100 l 1
 200 100 l 1x7c
 200 -100 l 1
 400 -100 l 1xbc
 400 500 l 1
 300 500 l 1
 300 600 l 1
EndSplineSet
EndChar

StartChar: k
Encoding: 75 107 75
Width: 900
HStem: 0 200<500 600> 0 100<0 100 600 700> 200 200<300 400> 400 200<500 600> 500 100<600 700> 800 100<0 100>
VStem: 0 300<0 100 800 900> 100 200<100 200 400 800> 400 200<100 200 400 500> 500 200<0 100 500 600>
Fore
SplineSet
0 900 m 1x66
 300 900 l 1x66
 300 400 l 1
 400 400 l 1
 400 500 l 1x6d80
 500 500 l 1x6c40
 500 600 l 1x1440
 700 600 l 1
 700 500 l 1x0c40
 600 500 l 1x0c80
 600 400 l 1x1480
 500 400 l 1
 500 200 l 1x9440
 600 200 l 1x9480
 600 100 l 1x4480
 700 100 l 1
 700 0 l 1x4440
 500 0 l 1x8440
 500 100 l 1x4440
 400 100 l 1
 400 200 l 1
 300 200 l 1x6580
 300 0 l 1
 0 0 l 1
 0 100 l 1x66
 100 100 l 1
 100 800 l 1x65
 0 800 l 1
 0 900 l 1x66
EndSplineSet
EndChar

StartChar: l
Encoding: 76 108 76
Width: 900
HStem: 0 100<200 300 500 600> 800 100<200 300>
VStem: 300 200<100 800>
Fore
SplineSet
200 900 m 1
 500 900 l 1
 500 100 l 1
 600 100 l 1
 600 0 l 1
 200 0 l 1
 200 100 l 1
 300 100 l 1
 300 800 l 1
 200 800 l 1
 200 900 l 1
EndSplineSet
EndChar

StartChar: m
Encoding: 77 109 77
Width: 900
HStem: 0 21G<0 200 500 700> 400 200<200 300 400 500>
VStem: 0 200<0 400> 300 100<100 400> 400 200<500 600> 500 200<0 400>
Fore
SplineSet
0 600 m 1xf4
 300 600 l 1
 300 500 l 1xf4
 400 500 l 1
 400 600 l 1
 600 600 l 1
 600 500 l 1xe8
 700 500 l 1
 700 0 l 1
 500 0 l 1
 500 400 l 1
 400 400 l 1
 400 100 l 1
 300 100 l 1
 300 400 l 1
 200 400 l 1
 200 0 l 1
 0 0 l 1
 0 600 l 1xf4
EndSplineSet
EndChar

StartChar: n
Encoding: 78 110 78
Width: 900
HStem: 0 21G<100 300 500 700> 500 100<0 100 300 500>
VStem: 0 200<500 600> 100 200<0 500> 500 200<0 500>
Fore
SplineSet
0 600 m 1xe8
 200 600 l 1
 200 500 l 1xe8
 300 500 l 1
 300 0 l 1
 100 0 l 1
 100 500 l 1xd8
 0 500 l 1
 0 600 l 1xe8
300 600 m 1xd8
 600 600 l 1
 600 500 l 1
 700 500 l 1
 700 0 l 1
 500 0 l 1
 500 500 l 1
 300 500 l 1
 300 600 l 1xd8
EndSplineSet
Colour: f46a4b
EndChar

StartChar: o
Encoding: 79 111 79
Width: 900
HStem: 0 100<200 500> 500 100<200 500>
VStem: 0 200<100 500> 500 200<100 500>
Fore
SplineSet
500 500 m 1
 200 500 l 1
 200 100 l 1
 500 100 l 1
 500 500 l 1
100 600 m 1
 600 600 l 1
 600 500 l 1
 700 500 l 1
 700 100 l 1
 600 100 l 1
 600 0 l 1
 100 0 l 1
 100 100 l 1
 0 100 l 1
 0 500 l 1
 100 500 l 1
 100 600 l 1
EndSplineSet
Colour: f46a4b
EndChar

StartChar: p
Encoding: 80 112 80
Width: 900
HStem: -200 100<0 100 300 400> 100 100<300 500> 500 100<0 100 300 500>
VStem: 0 200<500 600> 100 200<-100 100 200 500> 500 200<200 500>
Fore
SplineSet
0 600 m 1xf4
 200 600 l 1
 200 500 l 1xf4
 300 500 l 1
 300 200 l 1
 500 200 l 1
 500 500 l 1
 300 500 l 1
 300 600 l 1
 600 600 l 1
 600 500 l 1
 700 500 l 1
 700 200 l 1
 600 200 l 1
 600 100 l 1
 300 100 l 1
 300 -100 l 1xec
 400 -100 l 1
 400 -200 l 1
 0 -200 l 1
 0 -100 l 1xf4
 100 -100 l 1
 100 500 l 1xec
 0 500 l 1
 0 600 l 1xf4
EndSplineSet
EndChar

StartChar: q
Encoding: 81 113 81
Width: 900
HStem: -200 100<300 400 600 700> 100 100<200 400> 500 100<200 400>
VStem: 0 200<200 500> 400 200<-100 100 200 500>
Fore
SplineSet
400 500 m 1
 200 500 l 1
 200 200 l 1
 400 200 l 1
 400 500 l 1
100 600 m 1
 600 600 l 1
 600 -100 l 1
 700 -100 l 1
 700 -200 l 1
 300 -200 l 1
 300 -100 l 1
 400 -100 l 1
 400 100 l 1
 100 100 l 1
 100 200 l 1
 0 200 l 1
 0 500 l 1
 100 500 l 1
 100 600 l 1
EndSplineSet
EndChar

StartChar: r
Encoding: 82 114 82
Width: 900
HStem: 0 100<0 100 300 400> 400 200<300 400 500 700> 500 100<0 100 400 500>
VStem: 0 200<500 600> 100 200<100 400> 500 200<400 500>
Fore
SplineSet
0 600 m 1xb4
 200 600 l 1
 200 500 l 1xb4
 300 500 l 1xac
 300 600 l 1
 700 600 l 1
 700 400 l 1
 500 400 l 1xcc
 500 500 l 1
 400 500 l 1xac
 400 400 l 1
 300 400 l 1
 300 100 l 1xcc
 400 100 l 1
 400 0 l 1
 0 0 l 1
 0 100 l 1xd4
 100 100 l 1
 100 500 l 1xac
 0 500 l 1
 0 600 l 1xb4
EndSplineSet
Colour: f46a4b
EndChar

StartChar: s
Encoding: 83 115 83
Width: 900
HStem: 0 100<200 500> 100 100<0 100 600 700> 200 100<400 500> 300 100<200 300> 400 100<0 100 600 700> 500 100<200 500>
VStem: 0 200<100 200 400 500> 500 200<100 200 400 500>
Fore
SplineSet
100 600 m 1x07
 600 600 l 1x07
 600 500 l 1
 700 500 l 1
 700 400 l 1
 500 400 l 1x0b
 500 500 l 1
 200 500 l 1
 200 400 l 1x17
 400 400 l 1
 400 300 l 1x2b
 600 300 l 1
 600 200 l 1
 700 200 l 1
 700 100 l 1
 600 100 l 1x53
 600 0 l 1
 100 0 l 1x83
 100 100 l 1
 0 100 l 1
 0 200 l 1x43
 200 200 l 1
 200 100 l 1
 500 100 l 1
 500 200 l 1
 300 200 l 1xa3
 300 300 l 1
 100 300 l 1x13
 100 400 l 1
 0 400 l 1
 0 500 l 1
 100 500 l 1x0b
 100 600 l 1x07
EndSplineSet
Colour: f46a4b
EndChar

StartChar: t
Encoding: 84 116 84
Width: 900
HStem: 0 100<400 500> 100 100<500 600> 500 100<0 200 400 600> 880 20G<300 400>
VStem: 200 200<100 500 600 800> 300 200<0 100> 300 100<800 900> 500 100<100 200>
Fore
SplineSet
300 900 m 1x72
 400 900 l 1x72
 400 600 l 1
 600 600 l 1
 600 500 l 1
 400 500 l 1
 400 100 l 1xb9
 500 100 l 1
 500 0 l 1
 300 0 l 1xb4
 300 100 l 1x74
 200 100 l 1
 200 500 l 1
 0 500 l 1
 0 600 l 1
 200 600 l 1
 200 800 l 1x78
 300 800 l 1
 300 900 l 1x72
500 200 m 1x71
 600 200 l 1
 600 100 l 1x71
 500 100 l 1xb4
 500 200 l 1x71
EndSplineSet
EndChar

StartChar: u
Encoding: 85 117 85
Width: 900
HStem: 0 100<200 400 600 700> 580 20G<0 200 400 600>
VStem: 0 200<100 600> 400 200<100 600> 500 200<0 100>
Fore
SplineSet
0 600 m 1xf0
 200 600 l 1
 200 100 l 1
 400 100 l 1
 400 0 l 1
 100 0 l 1
 100 100 l 1
 0 100 l 1
 0 600 l 1xf0
400 600 m 1
 600 600 l 1
 600 100 l 1xf0
 700 100 l 1
 700 0 l 1
 500 0 l 1
 500 100 l 1xe8
 400 100 l 1
 400 600 l 1
EndSplineSet
Colour: f46a4b
EndChar

StartChar: v
Encoding: 86 118 86
Width: 900
HStem: 0 200<300 400> 100 200<200 300 400 500> 300 300<0 100 600 700>
VStem: 0 200<300 600> 100 200<200 300> 300 100<0 100> 400 200<200 300> 500 200<300 600>
Fore
SplineSet
0 600 m 1xb0
 200 600 l 1xb0
 200 300 l 1x50
 300 300 l 1x48
 300 200 l 1
 400 200 l 1x8a
 400 300 l 1x4a
 500 300 l 1x41
 500 600 l 1
 700 600 l 1
 700 300 l 1x21
 600 300 l 1
 600 200 l 1xa2
 500 200 l 1xa1
 500 100 l 1
 400 100 l 1x45
 400 0 l 1
 300 0 l 1x85
 300 100 l 1
 200 100 l 1x55
 200 200 l 1x95
 100 200 l 1
 100 300 l 1xa8
 0 300 l 1
 0 600 l 1xb0
EndSplineSet
EndChar

StartChar: w
Encoding: 87 119 87
Width: 900
HStem: 0 200<200 300 400 500> 580 20G<0 200 500 700>
VStem: 0 200<200 600> 100 200<0 100> 300 100<200 500> 400 200<0 100> 500 200<200 600>
Fore
SplineSet
0 600 m 1xe0
 200 600 l 1
 200 200 l 1
 300 200 l 1
 300 500 l 1
 400 500 l 1
 400 200 l 1
 500 200 l 1
 500 600 l 1
 700 600 l 1
 700 100 l 1xea
 600 100 l 1
 600 0 l 1
 400 0 l 1
 400 100 l 1
 300 100 l 1
 300 0 l 1
 100 0 l 1
 100 100 l 1xd4
 0 100 l 1
 0 600 l 1xe0
EndSplineSet
EndChar

StartChar: x
Encoding: 88 120 88
Width: 900
HStem: 0 200<100 200 500 600> 0 100<0 100 600 700> 400 200<100 200 500 600> 500 100<0 100 600 700>
VStem: 0 200<0 100 500 600> 100 200<100 200 400 500> 400 200<100 200 400 500> 500 200<0 100 500 600>
Fore
SplineSet
0 600 m 1x18
 200 600 l 1x28
 200 500 l 1x18
 300 500 l 1x14
 300 400 l 1
 400 400 l 1x26
 400 500 l 1x16
 500 500 l 1x11
 500 600 l 1x21
 700 600 l 1
 700 500 l 1x11
 600 500 l 1x12
 600 400 l 1x22
 500 400 l 1
 500 200 l 1xa1
 600 200 l 1xa2
 600 100 l 1x42
 700 100 l 1
 700 0 l 1x41
 500 0 l 1x81
 500 100 l 1x41
 400 100 l 1x42
 400 200 l 1
 300 200 l 1x86
 300 100 l 1x46
 200 100 l 1x48
 200 0 l 1x88
 0 0 l 1
 0 100 l 1x48
 100 100 l 1x44
 100 200 l 1x84
 200 200 l 1
 200 400 l 1xa8
 100 400 l 1xa4
 100 500 l 1x14
 0 500 l 1
 0 600 l 1x18
EndSplineSet
EndChar

StartChar: y
Encoding: 89 121 89
Width: 900
HStem: -200 200<400 500> -200 100<0 400> 100 100<200 500> 580 20G<0 200 500 700>
VStem: 0 200<200 600> 400 200<-100 0> 500 200<0 100 200 600>
Fore
SplineSet
0 600 m 1xba
 200 600 l 1
 200 200 l 1
 500 200 l 1
 500 600 l 1
 700 600 l 1
 700 0 l 1xba
 600 0 l 1xbc
 600 -100 l 1x7c
 500 -100 l 1x7a
 500 -200 l 1xba
 0 -200 l 1
 0 -100 l 1
 400 -100 l 1x7c
 400 0 l 1xbc
 500 0 l 1
 500 100 l 1
 100 100 l 1
 100 200 l 1
 0 200 l 1
 0 600 l 1xba
EndSplineSet
EndChar

StartChar: z
Encoding: 90 122 90
Width: 900
HStem: 0 200<100 200 600 700> 0 100<0 100 300 600> 200 200<300 400> 400 200<0 100 500 600> 500 100<100 400 600 700>
VStem: 0 100<400 500> 100 200<100 200> 200 200<200 300> 300 200<300 400> 400 200<400 500> 600 100<100 200>
Fore
SplineSet
0 600 m 1x1440
 700 600 l 1
 700 500 l 1x0c20
 600 500 l 1x0840
 600 400 l 1x1040
 500 400 l 1
 500 300 l 1x1080
 400 300 l 1
 400 200 l 1x21
 300 200 l 1
 300 100 l 1
 600 100 l 1x6220
 600 200 l 1
 700 200 l 1
 700 0 l 1x8220
 0 0 l 1
 0 100 l 1x4420
 100 100 l 1x42
 100 200 l 1x82
 200 200 l 1
 200 300 l 1x81
 300 300 l 1
 300 400 l 1x2080
 400 400 l 1
 400 500 l 1
 100 500 l 1x2c40
 100 400 l 1
 0 400 l 1
 0 600 l 1x1440
EndSplineSet
Colour: f46a4b
EndChar

StartChar: braceleft
Encoding: 91 123 91
Width: 900
HStem: 0 100<500 700> 400 100<100 300> 800 100<500 700>
VStem: 300 200<100 400 500 800> 400 300<0 100 800 900>
Fore
SplineSet
400 900 m 1xe8
 700 900 l 1
 700 800 l 1xe8
 500 800 l 1
 500 500 l 1xf0
 400 500 l 1
 400 400 l 1xe8
 500 400 l 1
 500 100 l 1xf0
 700 100 l 1
 700 0 l 1
 400 0 l 1
 400 100 l 1xe8
 300 100 l 1
 300 400 l 1
 100 400 l 1
 100 500 l 1
 300 500 l 1
 300 800 l 1xf0
 400 800 l 1
 400 900 l 1xe8
EndSplineSet
EndChar

StartChar: bar
Encoding: 92 124 92
Width: 900
HStem: 0 21G<300 500> 880 20G<300 500>
VStem: 300 200<0 400 500 900>
Fore
SplineSet
300 900 m 1
 500 900 l 1
 500 500 l 1
 300 500 l 1
 300 900 l 1
300 400 m 1
 500 400 l 1
 500 0 l 1
 300 0 l 1
 300 400 l 1
EndSplineSet
Colour: f46a4b
EndChar

StartChar: braceright
Encoding: 93 125 93
Width: 900
HStem: 0 100<100 300> 400 100<500 700> 800 100<100 300>
VStem: 100 300<0 100 800 900> 300 200<100 400 500 800>
Fore
SplineSet
100 900 m 1xf0
 400 900 l 1
 400 800 l 1xf0
 500 800 l 1
 500 500 l 1
 700 500 l 1
 700 400 l 1
 500 400 l 1
 500 100 l 1xe8
 400 100 l 1
 400 0 l 1
 100 0 l 1
 100 100 l 1xf0
 300 100 l 1
 300 400 l 1xe8
 400 400 l 1
 400 500 l 1xf0
 300 500 l 1
 300 800 l 1xe8
 100 800 l 1
 100 900 l 1xf0
EndSplineSet
EndChar

StartChar: asciitilde
Encoding: 94 126 94
Width: 900
HStem: 700 100<0 100 400 500> 800 100<200 300 600 700>
VStem: 0 200<700 800> 500 200<800 900>
Fore
SplineSet
100 900 m 1x70
 400 900 l 1x70
 400 800 l 1
 500 800 l 1xb0
 500 900 l 1
 700 900 l 1
 700 800 l 1
 600 800 l 1x70
 600 700 l 1
 300 700 l 1xb0
 300 800 l 1
 200 800 l 1x70
 200 700 l 1
 0 700 l 1
 0 800 l 1
 100 800 l 1xb0
 100 900 l 1x70
EndSplineSet
Colour: f46a4b
EndChar

StartChar: cent
Encoding: 97 162 97
Width: 900
HStem: 0 21G<300 400> 200 100<200 300 400 500> 300 100<600 700> 500 100<600 700> 600 100<200 300 400 500> 880 20G<300 400>
VStem: 0 200<300 600> 300 100<0 200 300 600 700 900> 500 200<300 400 500 600>
Fore
SplineSet
300 600 m 1xcf80
 200 600 l 1
 200 300 l 1
 300 300 l 1
 300 600 l 1xcf80
300 900 m 1
 400 900 l 1
 400 700 l 1
 600 700 l 1xaf80
 600 600 l 1
 700 600 l 1
 700 500 l 1
 500 500 l 1x9780
 500 600 l 1
 400 600 l 1
 400 300 l 1
 500 300 l 1xcf80
 500 400 l 1
 700 400 l 1
 700 300 l 1
 600 300 l 1xa780
 600 200 l 1
 400 200 l 1
 400 0 l 1
 300 0 l 1
 300 200 l 1
 100 200 l 1xc780
 100 300 l 1
 0 300 l 1xa780
 0 600 l 1
 100 600 l 1
 100 700 l 1
 300 700 l 1
 300 900 l 1
EndSplineSet
EndChar

StartChar: sterling
Encoding: 98 163 98
Width: 900
HStem: 0 100<400 600> 100 100<600 700> 500 100<0 100 300 400> 700 100<500 600> 800 100<300 400>
VStem: 0 200<0 100> 100 200<200 500 600 800> 400 200<700 800> 600 100<100 200>
Fore
SplineSet
200 900 m 1x6c
 500 900 l 1x6c
 500 800 l 1
 600 800 l 1
 600 700 l 1
 400 700 l 1x35
 400 800 l 1
 300 800 l 1
 300 600 l 1
 400 600 l 1
 400 500 l 1
 300 500 l 1
 300 200 l 1
 400 200 l 1x6b
 400 100 l 1xa3
 600 100 l 1
 600 0 l 1
 300 0 l 1xa280
 300 100 l 1x6280
 200 100 l 1x64
 200 0 l 1
 0 0 l 1xa4
 0 200 l 1x64
 100 200 l 1
 100 500 l 1x62
 0 500 l 1
 0 600 l 1x64
 100 600 l 1
 100 800 l 1x6a
 200 800 l 1
 200 900 l 1x6c
600 200 m 1x6080
 700 200 l 1
 700 100 l 1x6080
 600 100 l 1xa080
 600 200 l 1x6080
EndSplineSet
EndChar

StartChar: currency
Encoding: 99 164 99
Width: 900
HStem: 200 100<100 200 600 700> 400 200<100 200 600 700> 700 100<100 200 600 700>
VStem: 100 200<200 300 400 600 700 800> 500 200<200 300 400 600 700 800>
Fore
SplineSet
500 600 m 25
 300 600 l 25
 300 400 l 25
 500 400 l 25
 500 600 l 25
100 800 m 25
 300 800 l 25
 300 700 l 25
 500 700 l 25
 500 800 l 25
 700 800 l 25
 700 700 l 25
 600 700 l 25
 600 600 l 25
 700 600 l 25
 700 400 l 25
 600 400 l 25
 600 300 l 1
 700 300 l 25
 700 200 l 1
 500 200 l 25
 500 300 l 1
 300 300 l 1
 300 200 l 1
 100 200 l 1
 100 300 l 1
 200 300 l 1
 200 400 l 1
 100 400 l 1
 100 600 l 1
 200 600 l 1
 200 700 l 1
 100 700 l 1
 100 800 l 25
EndSplineSet
EndChar

StartChar: yen
Encoding: 100 165 100
Width: 900
HStem: 0 21G<300 500> 200 100<100 300 500 700> 400 100<100 300 500 700> 600 300<200 300 500 600> 700 200<100 200 600 700>
VStem: 100 200<700 900> 300 200<0 200 300 400 500 600> 500 200<700 900>
Fore
SplineSet
100 900 m 1xec
 300 900 l 1xf4
 300 700 l 1
 500 700 l 1xed
 500 900 l 1xf5
 700 900 l 1
 700 700 l 1
 600 700 l 1xed
 600 600 l 1
 500 600 l 1
 500 500 l 1xf2
 700 500 l 1
 700 400 l 1xf1
 500 400 l 1
 500 300 l 1xf2
 700 300 l 1
 700 200 l 1xf1
 500 200 l 1
 500 0 l 1
 300 0 l 1
 300 200 l 1xf2
 100 200 l 1
 100 300 l 1xf4
 300 300 l 1
 300 400 l 1xf2
 100 400 l 1
 100 500 l 1xf4
 300 500 l 1
 300 600 l 1
 200 600 l 1xf2
 200 700 l 1
 100 700 l 1
 100 900 l 1xec
EndSplineSet
EndChar

StartChar: section
Encoding: 102 167 102
Width: 900
HStem: -200 100<200 500> -100 100<0 100 600 700> 100 200<200 300> 100 100<300 400> 300 200<0 100 600 700> 500 200<400 500> 600 100<300 400> 800 100<0 100 600 700> 900 100<200 500>
VStem: 0 200<-100 0 300 500 800 900> 100 200<200 300 500 600 700 800> 200 300<100 200 600 700> 400 200<0 100 200 300 500 600> 500 200<-100 0 300 500 800 900>
Fore
SplineSet
400 600 m 1x0208
 300 600 l 1x0228
 300 500 l 1x0428
 200 500 l 1
 200 300 l 1x2440
 300 300 l 1x2420
 300 200 l 1
 400 200 l 1
 400 300 l 1x1828
 500 300 l 1x1804
 500 500 l 1x0404
 400 500 l 1x0408
 400 600 l 1x0208
100 1000 m 1x00a0
 600 1000 l 1x00a8
 600 900 l 1x0128
 700 900 l 1
 700 800 l 1
 500 800 l 1x0104
 500 900 l 1
 200 900 l 1x00c4
 200 800 l 1x0144
 300 800 l 1
 300 700 l 1x0320
 500 700 l 1x0410
 500 600 l 1x0210
 600 600 l 1
 600 500 l 1x0a08
 700 500 l 1
 700 300 l 1x0a04
 600 300 l 1
 600 200 l 1x1a08
 500 200 l 1
 500 100 l 1x1a10
 600 100 l 1
 600 0 l 1x5a08
 700 0 l 1
 700 -100 l 1x5a04
 600 -100 l 1x5a08
 600 -200 l 1
 100 -200 l 1x8028
 100 -100 l 1x4028
 0 -100 l 1
 0 0 l 1
 200 0 l 1x4040
 200 -100 l 1
 500 -100 l 1x8044
 500 0 l 1x4044
 400 0 l 1
 400 100 l 1x5008
 200 100 l 1x2010
 200 200 l 1x1010
 100 200 l 1
 100 300 l 1x1820
 0 300 l 1
 0 500 l 1x1840
 100 500 l 1
 100 600 l 1x1a20
 200 600 l 1
 200 700 l 1x1a10
 100 700 l 1
 100 800 l 1x1b20
 0 800 l 1
 0 900 l 1x1b40
 100 900 l 1x1b20
 100 1000 l 1x00a0
EndSplineSet
EndChar

StartChar: dieresis
Encoding: 103 168 103
Width: 900
HStem: 800 200<100 300 500 700>
VStem: 100 200<800 1000> 500 200<800 1000>
Fore
SplineSet
100 1000 m 1
 300 1000 l 1
 300 800 l 1
 100 800 l 1
 100 1000 l 1
500 1000 m 1
 700 1000 l 1
 700 800 l 1
 500 800 l 1
 500 1000 l 1
EndSplineSet
Colour: f46a4b
EndChar

StartChar: copyright
Encoding: 104 169 104
Width: 900
HStem: 0 100<200 600> 100 100<100 200 600 700> 200 100<300 500> 300 100<500 600> 500 100<500 600> 600 100<300 500> 700 100<100 200 600 700> 800 100<200 600>
VStem: 0 100<200 700> 100 100<100 200 700 800> 200 100<300 600> 300 200<200 300 600 700> 500 100<300 400 500 600> 600 100<100 200 700 800> 700 100<200 700>
Fore
SplineSet
300 700 m 1x0410
 500 700 l 1x0410
 500 600 l 1x0810
 300 600 l 1x0420
 300 700 l 1x0410
200 600 m 1x1420
 300 600 l 1
 300 300 l 1x2420
 200 300 l 1
 200 600 l 1x1420
500 600 m 1x0810
 600 600 l 1
 600 500 l 1
 500 500 l 1x0808
 500 600 l 1x0810
500 400 m 1x1008
 600 400 l 1
 600 300 l 1x1008
 500 300 l 1x2010
 500 400 l 1x1008
300 300 m 1x2020
 500 300 l 1
 500 200 l 1
 300 200 l 1x2010
 300 300 l 1x2020
200 900 m 1x0120
 600 900 l 1x0124
 600 800 l 1
 200 800 l 1x0244
 200 900 l 1x0120
100 800 m 1x0240
 200 800 l 1
 200 700 l 1x0240
 100 700 l 1x0280
 100 800 l 1x0240
600 800 m 1x0204
 700 800 l 1
 700 700 l 1
 600 700 l 1
 600 800 l 1x0204
0 700 m 1x2280
 100 700 l 1
 100 200 l 1x4280
 0 200 l 1
 0 700 l 1x2280
700 700 m 1x4204
 800 700 l 1
 800 200 l 1x2202
 700 200 l 1
 700 700 l 1x4204
100 200 m 1x4080
 200 200 l 1x4040
 200 100 l 1x8040
 100 100 l 1x4040
 100 200 l 1x4080
600 200 m 1x4004
 700 200 l 1
 700 100 l 1x4004
 600 100 l 1x8004
 600 200 l 1x4004
200 100 m 1x8040
 600 100 l 1
 600 0 l 1
 200 0 l 1x8024
 200 100 l 1x8040
EndSplineSet
EndChar

StartChar: ordfeminine
Encoding: 105 170 105
Width: 900
HStem: 400 100<100 700> 600 100<300 400 600 700> 700 100<100 200> 800 100<300 400> 1000 100<200 400>
VStem: 100 200<700 800> 200 200<600 700> 400 200<700 800 900 1000> 500 200<600 700>
Fore
SplineSet
200 1100 m 1x9a
 500 1100 l 1
 500 1000 l 1x9a80
 600 1000 l 1
 600 700 l 1xd9
 700 700 l 1
 700 600 l 1
 500 600 l 1xd880
 500 700 l 1xa880
 400 700 l 1xca80
 400 800 l 1
 300 800 l 1
 300 700 l 1xdd
 400 700 l 1
 400 600 l 1
 200 600 l 1xda
 200 700 l 1xaa
 100 700 l 1
 100 800 l 1xac
 200 800 l 1xaa
 200 900 l 1x9a
 400 900 l 1
 400 1000 l 1x99
 200 1000 l 1
 200 1100 l 1x9a
100 500 m 1x8c80
 700 500 l 1
 700 400 l 1
 100 400 l 1
 100 500 l 1x8c80
EndSplineSet
EndChar

StartChar: logicalnot
Encoding: 107 172 107
Width: 900
HStem: 400 100<0 500>
VStem: 500 200<100 400>
Fore
SplineSet
0 500 m 1
 700 500 l 1
 700 100 l 1
 500 100 l 1
 500 400 l 1
 0 400 l 1
 0 500 l 1
EndSplineSet
EndChar

StartChar: registered
Encoding: 108 174 108
Width: 900
HStem: 0 100<200 600> 100 100<100 200 600 700> 200 200<500 600> 500 100<500 600> 600 100<301 500> 700 100<100 200 600 700> 800 100<200 600>
VStem: 0 100<200 700> 100 100<100 200 700 800> 200 300<400 500 600 700> 200 100<200 400 500 600> 500 100<200 400 500 600> 600 100<100 200 700 800> 700 100<200 700>
Fore
SplineSet
200 700 m 1x4480
 500 700 l 1x0840
 500 600 l 1x1040
 301 600 l 1x0840
 300 500 l 1x1020
 500 500 l 1
 500 400 l 1x3040
 300 400 l 1
 300 200 l 1x3020
 200 200 l 1
 200 700 l 1x4480
500 600 m 1x1040
 600 600 l 1
 600 500 l 1x1010
 500 500 l 1
 500 600 l 1x1040
500 400 m 1x2040
 600 400 l 1x2010
 600 200 l 1x4010
 500 200 l 1x2010
 500 400 l 1x2040
200 900 m 1x0220
 600 900 l 1x0228
 600 800 l 1
 200 800 l 1x0488
 200 900 l 1x0220
100 800 m 1x0480
 200 800 l 1
 200 700 l 1x0480
 100 700 l 1x05
 100 800 l 1x0480
600 800 m 1x0408
 700 800 l 1
 700 700 l 1
 600 700 l 1
 600 800 l 1x0408
0 700 m 1x25
 100 700 l 1
 100 200 l 1x45
 0 200 l 1
 0 700 l 1x25
700 700 m 1x4408
 800 700 l 1
 800 200 l 1x2404
 700 200 l 1
 700 700 l 1x4408
100 200 m 1x41
 200 200 l 1x4080
 200 100 l 1x8080
 100 100 l 1x4080
 100 200 l 1x41
600 200 m 1x4010
 700 200 l 1
 700 100 l 1x4008
 600 100 l 1x8008
 600 200 l 1x4010
200 100 m 1x8080
 600 100 l 1
 600 0 l 1
 200 0 l 1x8028
 200 100 l 1x8080
EndSplineSet
EndChar

StartChar: degree
Encoding: 109 176 109
Width: 900
HStem: 600 100<300 400> 700 200<100 200 500 600> 900 100<300 400>
VStem: 100 200<700 900> 200 300<600 700 900 1000> 400 200<700 900>
Fore
SplineSet
400 900 m 1xb4
 300 900 l 1
 300 700 l 1
 400 700 l 1
 400 900 l 1xb4
200 1000 m 1x28
 500 1000 l 1x28
 500 900 l 1x48
 600 900 l 1
 600 700 l 1x44
 500 700 l 1x48
 500 600 l 1
 200 600 l 1x88
 200 700 l 1x48
 100 700 l 1
 100 900 l 1x50
 200 900 l 1x48
 200 1000 l 1x28
EndSplineSet
EndChar

StartChar: plusminus
Encoding: 110 177 110
Width: 900
HStem: 0 100<0 800> 500 100<100 300 500 700>
VStem: 300 200<300 500 600 800>
Fore
SplineSet
300 800 m 1
 500 800 l 1
 500 600 l 1
 700 600 l 1
 700 500 l 1
 500 500 l 1
 500 300 l 1
 300 300 l 1
 300 500 l 1
 100 500 l 1
 100 600 l 1
 300 600 l 1
 300 800 l 1
0 100 m 1
 800 100 l 1
 800 0 l 1
 0 0 l 1
 0 100 l 1
EndSplineSet
EndChar

StartChar: uni00B2
Encoding: 111 178 111
Width: 900
HStem: 500 200<200 300> 500 100<100 200 400 600> 800 100<100 200 500 600> 900 100<200 400>
VStem: 100 100<800 900> 200 200<600 700> 300 200<700 800> 400 200<800 900>
Fore
SplineSet
200 1000 m 1x14
 500 1000 l 1x12
 500 900 l 1x22
 600 900 l 1
 600 800 l 1x21
 500 800 l 1
 500 700 l 1xa2
 400 700 l 1xa4
 400 600 l 1x44
 600 600 l 1
 600 500 l 1
 100 500 l 1
 100 600 l 1x49
 200 600 l 1x44
 200 700 l 1x84
 300 700 l 1
 300 800 l 1xa2
 400 800 l 1xa1
 400 900 l 1x11
 200 900 l 1x29
 200 1000 l 1x14
100 900 m 1x28
 200 900 l 1
 200 800 l 1
 100 800 l 1
 100 900 l 1x28
EndSplineSet
EndChar

StartChar: uni00B3
Encoding: 112 179 112
Width: 900
HStem: 500 100<200 400> 600 100<100 200 500 600> 800 100<100 200 500 600> 900 100<200 400>
VStem: 100 100<600 700 800 900> 200 300<500 600 900 1000> 300 200<700 800> 400 200<600 700 800 900>
Fore
SplineSet
200 1000 m 1x14
 500 1000 l 1x14
 500 900 l 1x24
 600 900 l 1
 600 800 l 1x21
 500 800 l 1
 500 700 l 1x62
 600 700 l 1
 600 600 l 1x61
 500 600 l 1x64
 500 500 l 1
 200 500 l 1x84
 200 600 l 1
 400 600 l 1x89
 400 700 l 1x49
 300 700 l 1
 300 800 l 1x62
 400 800 l 1x61
 400 900 l 1x11
 200 900 l 1x29
 200 1000 l 1x14
100 900 m 1x28
 200 900 l 1
 200 800 l 1
 100 800 l 1
 100 900 l 1x28
100 700 m 1x48
 200 700 l 1x48
 200 600 l 1x88
 100 600 l 1
 100 700 l 1x48
EndSplineSet
EndChar

StartChar: acute
Encoding: 113 180 113
Width: 900
HStem: 700 100<300 400> 800 100<400 500> 900 100<600 700>
VStem: 300 100<700 800> 400 200<800 900> 500 200<900 1000>
Fore
SplineSet
500 1000 m 1x24
 700 1000 l 1
 700 900 l 1x24
 600 900 l 1x28
 600 800 l 1x48
 400 800 l 1x90
 400 900 l 1x48
 500 900 l 1x44
 500 1000 l 1x24
300 800 m 1x90
 400 800 l 1
 400 700 l 1
 300 700 l 1
 300 800 l 1x90
EndSplineSet
Colour: f46a4b
EndChar

StartChar: mu
Encoding: 114 181 114
Width: 900
HStem: -200 21G<0 100> 0 100<200 400> 580 20G<0 200 400 600>
VStem: 0 200<100 600> 0 100<-200 0> 400 200<100 600>
Fore
SplineSet
0 600 m 1xf4
 200 600 l 1
 200 100 l 1xf4
 400 100 l 1
 400 600 l 1
 600 600 l 1
 600 100 l 1
 500 100 l 1
 500 0 l 1
 100 0 l 1
 100 -200 l 1
 0 -200 l 1xec
 0 600 l 1xf4
EndSplineSet
EndChar

StartChar: paragraph
Encoding: 115 182 115
Width: 900
HStem: 0 21G<300 500 600 800> 300 100<200 300> 800 100<200 300 500 600>
VStem: 0 200<400 800> 300 200<0 300 400 800> 600 200<0 800>
Fore
SplineSet
300 800 m 1
 200 800 l 1
 200 400 l 1
 300 400 l 1
 300 800 l 1
100 900 m 1
 800 900 l 1
 800 0 l 1
 600 0 l 1
 600 800 l 1
 500 800 l 1
 500 0 l 1
 300 0 l 1
 300 300 l 1
 100 300 l 1
 100 400 l 1
 0 400 l 1
 0 800 l 1
 100 800 l 1
 100 900 l 1
EndSplineSet
EndChar

StartChar: periodcentered
Encoding: 116 183 116
Width: 900
HStem: 300 100<200 400>
VStem: 200 200<300 400>
Fore
SplineSet
200 400 m 1
 400 400 l 1
 400 300 l 1
 200 300 l 1
 200 400 l 1
EndSplineSet
EndChar

StartChar: cedilla
Encoding: 117 184 117
Width: 900
HStem: -300 100<100 400> -200 100<400 500> -100 100<300 400>
VStem: 300 100<-100 0> 400 100<-200 -100>
Fore
SplineSet
300 0 m 1x30
 400 0 l 1x30
 400 -100 l 1x50
 300 -100 l 1
 300 0 l 1x30
400 -100 m 1x50
 500 -100 l 1
 500 -200 l 1x48
 400 -200 l 1x88
 400 -100 l 1x50
100 -200 m 1x88
 400 -200 l 1
 400 -300 l 1
 100 -300 l 1
 100 -200 l 1x88
EndSplineSet
EndChar

StartChar: uni00B9
Encoding: 118 185 118
Width: 900
HStem: 800 100<200 300>
VStem: 300 200<500 800 900 1000>
Fore
SplineSet
300 1000 m 1
 500 1000 l 1
 500 500 l 1
 300 500 l 1
 300 800 l 1
 200 800 l 1
 200 900 l 1
 300 900 l 1
 300 1000 l 1
EndSplineSet
EndChar

StartChar: ordmasculine
Encoding: 119 186 119
Width: 900
HStem: 400 100<100 700> 600 100<300 500> 700 200<100 200 600 700> 900 100<300 500>
VStem: 100 200<700 900> 500 200<700 900>
Fore
SplineSet
500 900 m 1xdc
 300 900 l 1
 300 700 l 1
 500 700 l 1
 500 900 l 1xdc
200 1000 m 1
 600 1000 l 1x9c
 600 900 l 1
 700 900 l 1
 700 700 l 1
 600 700 l 1xac
 600 600 l 1
 200 600 l 1xcc
 200 700 l 1
 100 700 l 1
 100 900 l 1
 200 900 l 1xac
 200 1000 l 1
100 500 m 1
 700 500 l 1
 700 400 l 1
 100 400 l 1
 100 500 l 1
EndSplineSet
EndChar

StartChar: onequarter
Encoding: 121 188 121
Width: 900
HStem: 100 200<200 300> 100 100<300 400 600 700> 200 200<0 100> 300 200<100 200> 300 100<300 400> 500 200<300 400> 600 100<400 500> 700 100<500 600> 800 100<0 100>
VStem: 0 200<300 400> 0 100<200 300> 100 200<400 500 700 800 900 1000> 200 200<500 600> 200 100<200 300> 400 200<-100 100 200 300 400 500> 500 100<700 800>
Fore
SplineSet
100 1000 m 1x1290
 300 1000 l 1
 300 700 l 1x0490
 500 700 l 1
 500 600 l 1
 400 600 l 1x0209
 400 500 l 1x0409
 300 500 l 1
 300 400 l 1x0c10
 200 400 l 1x0c40
 200 300 l 1x8040
 100 300 l 1x1020
 100 200 l 1
 0 200 l 1x2020
 0 400 l 1x2040
 100 400 l 1x2010
 100 500 l 1x1010
 200 500 l 1
 200 600 l 1x1208
 100 600 l 1
 100 800 l 1x1290
 0 800 l 1
 0 900 l 1x12a0
 100 900 l 1
 100 1000 l 1x1290
500 800 m 1x0101
 600 800 l 1
 600 700 l 1x0101
 500 700 l 1x0201
 500 800 l 1x0101
400 500 m 1x0c08
 600 500 l 1
 600 200 l 1
 700 200 l 1
 700 100 l 1
 600 100 l 1
 600 -100 l 1
 400 -100 l 1
 400 100 l 1x4c02
 200 100 l 1x8006
 200 300 l 1x8040
 300 300 l 1x8004
 300 200 l 1
 400 200 l 1
 400 300 l 1x4806
 300 300 l 1x8006
 300 400 l 1
 400 400 l 1x0812
 400 500 l 1x0c08
EndSplineSet
EndChar

StartChar: onehalf
Encoding: 122 189 122
Width: 900
HStem: -100 200<300 400> -100 100<200 300 500 700> 200 100<200 300 600 700> 300 200<100 200> 300 100<400 500> 500 200<300 400> 600 100<400 500> 700 100<500 600> 800 100<0 100>
VStem: 0 200<300 400> 0 100<200 300> 100 200<400 500 700 800 900 1000> 200 200<200 300 500 600> 300 200<0 100> 400 200<100 200> 500 200<200 300> 500 100<700 800>
Fore
SplineSet
100 1000 m 1x1290
 300 1000 l 1
 300 700 l 1x0490
 500 700 l 1
 500 600 l 1
 400 600 l 1x020880
 400 500 l 1x040880
 300 500 l 1
 300 400 l 1x0c10
 200 400 l 1x0c40
 200 300 l 1x2040
 100 300 l 1x1020
 100 200 l 1
 0 200 l 1x2020
 0 400 l 1x0840
 100 400 l 1x0810
 100 500 l 1x1010
 200 500 l 1
 200 600 l 1x1208
 100 600 l 1
 100 800 l 1x1290
 0 800 l 1
 0 900 l 1x12a0
 100 900 l 1
 100 1000 l 1x1290
500 800 m 1x010080
 600 800 l 1
 600 700 l 1x010080
 500 700 l 1x020080
 500 800 l 1x010080
300 400 m 1x0810
 600 400 l 1x081080
 600 300 l 1x201080
 700 300 l 1
 700 200 l 1x2001
 600 200 l 1
 600 100 l 1xa002
 500 100 l 1xa004
 500 0 l 1x4004
 700 0 l 1
 700 -100 l 1
 200 -100 l 1
 200 0 l 1x4009
 300 0 l 1x4004
 300 100 l 1x8004
 400 100 l 1x8002
 400 200 l 1
 500 200 l 1xa009
 500 300 l 1
 400 300 l 1x0809
 400 200 l 1
 200 200 l 1x2009
 200 300 l 1
 300 300 l 1x2044
 300 400 l 1x0810
EndSplineSet
EndChar

StartChar: threequarters
Encoding: 123 190 123
Width: 900
HStem: 100 200<200 300> 100 100<300 400 600 700> 200 200<0 100> 300 100<300 400> 500 100<0 100> 600 100<400 500> 700 100<100 200 500 600> 900 100<0 200>
VStem: 0 200<300 400> 0 100<200 300> 100 200<400 500 700 800> 200 200<800 900> 200 100<200 300> 400 200<-100 100 200 300 400 500> 500 100<700 800>
Fore
SplineSet
0 1000 m 1x0350
 300 1000 l 1
 300 900 l 1x0348
 400 900 l 1
 400 800 l 1x0310
 300 800 l 1
 300 700 l 1x0320
 500 700 l 1
 500 600 l 1x0522
 400 600 l 1x0504
 400 500 l 1
 300 500 l 1
 300 400 l 1x1924
 200 400 l 1x1980
 200 300 l 1x8180
 100 300 l 1x1140
 100 200 l 1
 0 200 l 1x2140
 0 400 l 1x2180
 100 400 l 1
 100 500 l 1x2920
 0 500 l 1
 0 600 l 1x2940
 200 600 l 1x0548
 200 700 l 1x0348
 100 700 l 1
 100 800 l 1x0320
 200 800 l 1
 200 900 l 1
 0 900 l 1
 0 1000 l 1x0350
500 800 m 1x0302
 600 800 l 1
 600 700 l 1x0302
 500 700 l 1x0502
 500 800 l 1x0302
400 500 m 1x1924
 600 500 l 1
 600 200 l 1
 700 200 l 1
 700 100 l 1
 600 100 l 1
 600 -100 l 1
 400 -100 l 1
 400 100 l 1x5924
 200 100 l 1x810c
 200 300 l 1x8180
 300 300 l 1x8108
 300 200 l 1
 400 200 l 1
 400 300 l 1x510c
 300 300 l 1x810c
 300 400 l 1
 400 400 l 1
 400 500 l 1x1924
EndSplineSet
EndChar

StartChar: Agrave
Encoding: 125 192 125
Width: 900
HStem: 0 21G<0 200 500 700> 300 100<200 500> 600 200<200 300> 700 100<300 400> 880 20G<400 500> 900 100<300 400> 1000 100<100 200>
VStem: 0 200<0 300 400 600> 100 200<600 700 1000 1100> 200 200<900 1000> 400 200<600 700> 400 100<800 900> 500 200<0 300 400 600>
Fore
SplineSet
100 1100 m 1xc280
 300 1100 l 1xc280
 300 1000 l 1xc480
 400 1000 l 1xc440
 400 900 l 1xc840
 200 900 l 1xc440
 200 1000 l 1xc240
 100 1000 l 1
 100 1100 l 1xc280
400 700 m 1xd020
 300 700 l 1xd0a0
 300 600 l 1xe0a0
 200 600 l 1
 200 400 l 1
 500 400 l 1
 500 600 l 1xe108
 400 600 l 1xe020
 400 700 l 1xd020
400 900 m 1xd840
 500 900 l 1xd810
 500 700 l 1xd808
 600 700 l 1xd820
 600 600 l 1xe020
 700 600 l 1
 700 0 l 1
 500 0 l 1
 500 300 l 1
 200 300 l 1
 200 0 l 1
 0 0 l 1
 0 600 l 1xe108
 100 600 l 1xe080
 100 700 l 1xd080
 200 700 l 1xd040
 200 800 l 1xe040
 400 800 l 1xd010
 400 900 l 1xd840
EndSplineSet
EndChar

StartChar: Aacute
Encoding: 126 193 126
Width: 900
HStem: 0 21G<0 200 500 700> 300 100<200 500> 600 200<400 500> 700 100<300 400> 880 20G<200 300> 900 100<300 400> 1000 100<500 600>
VStem: 0 200<0 300 400 600> 100 200<600 700> 200 100<800 900> 300 200<900 1000> 400 200<600 700 1000 1100> 500 200<0 300 400 600>
Fore
SplineSet
400 1100 m 1xc210
 600 1100 l 1
 600 1000 l 1xc210
 500 1000 l 1xc220
 500 900 l 1xc420
 300 900 l 1xc840
 300 1000 l 1xc420
 400 1000 l 1xc410
 400 1100 l 1xc210
400 700 m 1xd010
 300 700 l 1xd090
 300 600 l 1xe090
 200 600 l 1
 200 400 l 1
 500 400 l 1
 500 600 l 1xe108
 400 600 l 1xe010
 400 700 l 1xd010
200 900 m 1xd840
 300 900 l 1
 300 800 l 1xd840
 500 800 l 1xe048
 500 700 l 1xd048
 600 700 l 1xd010
 600 600 l 1xe010
 700 600 l 1
 700 0 l 1
 500 0 l 1
 500 300 l 1
 200 300 l 1
 200 0 l 1
 0 0 l 1
 0 600 l 1xe108
 100 600 l 1xe080
 100 700 l 1xd080
 200 700 l 1
 200 900 l 1xd840
EndSplineSet
EndChar

StartChar: Acircumflex
Encoding: 127 194 127
Width: 900
HStem: 0 21G<0 200 500 700> 300 100<200 500> 600 200<200 300 400 500> 700 100<300 400> 800 100<100 200 500 600> 900 200<300 400> 900 100<200 300 400 500>
VStem: 0 200<0 300 400 600> 100 200<600 700> 100 100<800 900> 200 300<700 800 900 1000> 400 200<600 700> 500 200<0 300 400 600> 500 100<800 900>
Fore
SplineSet
300 1100 m 1xc480
 400 1100 l 1xc490
 400 1000 l 1xc290
 500 1000 l 1xc220
 500 900 l 1xc820
 200 900 l 1xc840
 200 1000 l 1xc220
 300 1000 l 1xc280
 300 1100 l 1xc480
100 900 m 1xc840
 200 900 l 1xc840
 200 800 l 1xe040
 100 800 l 1
 100 900 l 1xc840
500 900 m 1xc820
 600 900 l 1
 600 800 l 1xc804
 500 800 l 1xe020
 500 900 l 1xc820
400 700 m 1xd010
 300 700 l 1xd090
 300 600 l 1xe090
 200 600 l 1
 200 400 l 1
 500 400 l 1
 500 600 l 1xe108
 400 600 l 1xe010
 400 700 l 1xd010
200 800 m 1xe040
 500 800 l 1xe020
 500 700 l 1xd020
 600 700 l 1xd010
 600 600 l 1xe010
 700 600 l 1
 700 0 l 1
 500 0 l 1
 500 300 l 1
 200 300 l 1
 200 0 l 1
 0 0 l 1
 0 600 l 1xe108
 100 600 l 1xe080
 100 700 l 1xd080
 200 700 l 1xd020
 200 800 l 1xe040
EndSplineSet
EndChar

StartChar: Atilde
Encoding: 128 195 128
Width: 900
HStem: 0 21G<0 200 500 700> 300 100<200 500> 600 200<200 300 400 500> 700 100<300 400> 900 100<0 100 400 500> 1000 100<200 300 600 700>
VStem: 0 200<0 300 400 600 900 1000> 100 200<600 700> 400 200<600 700> 500 200<0 300 400 600 1000 1100>
Fore
SplineSet
100 1100 m 1xc5
 400 1100 l 1xc580
 400 1000 l 1xc980
 500 1000 l 1xc840
 500 1100 l 1
 700 1100 l 1
 700 1000 l 1xc440
 600 1000 l 1xc480
 600 900 l 1
 300 900 l 1xc980
 300 1000 l 1xc580
 200 1000 l 1xc6
 200 900 l 1
 0 900 l 1
 0 1000 l 1xca
 100 1000 l 1xc9
 100 1100 l 1xc5
400 700 m 1xd080
 300 700 l 1xd180
 300 600 l 1xe180
 200 600 l 1
 200 400 l 1
 500 400 l 1
 500 600 l 1xe240
 400 600 l 1xe080
 400 700 l 1xd080
200 800 m 1xe2
 500 800 l 1xe240
 500 700 l 1xd240
 600 700 l 1xd080
 600 600 l 1xe080
 700 600 l 1
 700 0 l 1
 500 0 l 1
 500 300 l 1
 200 300 l 1
 200 0 l 1
 0 0 l 1
 0 600 l 1xe240
 100 600 l 1xe1
 100 700 l 1xd1
 200 700 l 1xd2
 200 800 l 1xe2
EndSplineSet
EndChar

StartChar: Adieresis
Encoding: 129 196 129
Width: 900
HStem: 0 21G<0 200 500 700> 300 100<200 500> 600 200<200 300 400 500> 700 100<300 400> 900 200<0 200 500 700>
VStem: 0 200<0 300 400 600 900 1100> 100 200<600 700> 400 200<600 700> 500 200<0 300 400 600 900 1100>
Fore
SplineSet
0 1100 m 1xcc
 200 1100 l 1
 200 900 l 1
 0 900 l 1
 0 1100 l 1xcc
500 1100 m 1xc880
 700 1100 l 1
 700 900 l 1
 500 900 l 1
 500 1100 l 1xc880
400 700 m 1xd9
 300 700 l 1xdb
 300 600 l 1xeb
 200 600 l 1
 200 400 l 1
 500 400 l 1
 500 600 l 1xec80
 400 600 l 1xe9
 400 700 l 1xd9
200 800 m 1xec
 500 800 l 1xec80
 500 700 l 1xdc80
 600 700 l 1xd9
 600 600 l 1xe9
 700 600 l 1
 700 0 l 1
 500 0 l 1
 500 300 l 1
 200 300 l 1
 200 0 l 1
 0 0 l 1
 0 600 l 1xec80
 100 600 l 1xea
 100 700 l 1xda
 200 700 l 1xdc
 200 800 l 1xec
EndSplineSet
EndChar

StartChar: Aring
Encoding: 130 197 130
Width: 900
HStem: 0 21G<0 200 500 700> 300 100<200 500> 600 300<200 300 400 500> 700 200<300 400> 900 100<100 200 500 600> 1000 100<200 500>
VStem: 0 200<0 300 400 600> 100 200<600 700> 100 100<900 1000> 200 300<700 900 1000 1100> 400 200<600 700> 500 200<0 300 400 600> 500 100<900 1000>
Fore
SplineSet
200 1100 m 1xc440
 500 1100 l 1xc440
 500 1000 l 1xc840
 200 1000 l 1xc880
 200 1100 l 1xc440
100 1000 m 1xc880
 200 1000 l 1xc880
 200 900 l 1xe080
 100 900 l 1
 100 1000 l 1xc880
500 1000 m 1xc840
 600 1000 l 1
 600 900 l 1xc808
 500 900 l 1xe040
 500 1000 l 1xc840
400 700 m 1xd020
 300 700 l 1xd120
 300 600 l 1xe120
 200 600 l 1
 200 400 l 1
 500 400 l 1
 500 600 l 1xe210
 400 600 l 1xe020
 400 700 l 1xd020
200 900 m 1xe080
 500 900 l 1xe040
 500 700 l 1xd040
 600 700 l 1xd020
 600 600 l 1xe020
 700 600 l 1
 700 0 l 1
 500 0 l 1
 500 300 l 1
 200 300 l 1
 200 0 l 1
 0 0 l 1
 0 600 l 1xe210
 100 600 l 1xe1
 100 700 l 1xd1
 200 700 l 1xd040
 200 900 l 1xe080
EndSplineSet
EndChar

StartChar: AE
Encoding: 131 198 131
Width: 900
HStem: 0 200<600 700> 0 100<500 600> 400 100<200 400 500 600> 700 200<200 300 600 700> 800 100<300 400 500 600>
VStem: 0 200<0 400 500 700> 100 200<700 800> 400 100<100 400 500 800> 600 100<100 200 700 800>
Fore
SplineSet
400 800 m 1x2d80
 300 800 l 1x2b80
 300 700 l 1x3380
 200 700 l 1x3580
 200 500 l 1
 400 500 l 1
 400 800 l 1x2d80
200 900 m 1x3580
 700 900 l 1
 700 700 l 1
 600 700 l 1x3580
 600 800 l 1
 500 800 l 1
 500 500 l 1
 600 500 l 1
 600 400 l 1
 500 400 l 1
 500 100 l 1
 600 100 l 1x6d80
 600 200 l 1
 700 200 l 1
 700 0 l 1xa580
 400 0 l 1
 400 400 l 1
 200 400 l 1
 200 0 l 1
 0 0 l 1
 0 700 l 1x7580
 100 700 l 1x7380
 100 800 l 1x2b80
 200 800 l 1x2d80
 200 900 l 1x3580
EndSplineSet
EndChar

StartChar: Ccedilla
Encoding: 132 199 132
Width: 900
HStem: -300 100<100 400> -200 100<400 500> -100 200<300 400> 0 100<200 300 400 500> 100 200<600 700> 600 200<600 700> 800 100<200 500>
VStem: 0 200<100 800> 300 100<-100 0> 400 100<-200 -100> 500 200<100 300 600 800>
Fore
SplineSet
100 900 m 1x0ba0
 600 900 l 1x0ba0
 600 800 l 1
 700 800 l 1
 700 600 l 1
 500 600 l 1x05a0
 500 800 l 1
 200 800 l 1
 200 100 l 1
 500 100 l 1x13a0
 500 300 l 1
 700 300 l 1
 700 100 l 1
 600 100 l 1x09a0
 600 0 l 1
 400 0 l 1
 400 -100 l 1x51a0
 300 -100 l 1x21a0
 300 0 l 1
 100 0 l 1x11a0
 100 100 l 1
 0 100 l 1
 0 800 l 1
 100 800 l 1
 100 900 l 1x0ba0
400 -100 m 1x4180
 500 -100 l 1
 500 -200 l 1x4140
 400 -200 l 1x8140
 400 -100 l 1x4180
100 -200 m 1x8140
 400 -200 l 1
 400 -300 l 1
 100 -300 l 1
 100 -200 l 1x8140
EndSplineSet
EndChar

StartChar: Egrave
Encoding: 133 200 133
Width: 900
HStem: 0 200<500 600> 0 100<0 100 300 500> 300 200<300 500> 600 200<500 600> 700 200<400 500> 700 100<0 100 300 400> 900 100<300 400> 1000 100<100 200>
VStem: 100 200<100 300 500 700 1000 1100> 200 200<900 1000> 400 100<800 900> 500 200<100 200 600 700> 600 100<200 300 500 600>
Fore
SplineSet
100 1100 m 1x2180
 300 1100 l 1x2180
 300 1000 l 1x2280
 400 1000 l 1x2240
 400 900 l 1x2840
 200 900 l 1x2240
 200 1000 l 1x2140
 100 1000 l 1
 100 1100 l 1x2180
400 900 m 1x2840
 500 900 l 1x2820
 500 800 l 1x3020
 700 800 l 1x2428
 700 500 l 1
 600 500 l 1
 600 600 l 1x3028
 500 600 l 1x3010
 500 700 l 1x2810
 300 700 l 1
 300 500 l 1
 500 500 l 1
 500 300 l 1
 300 300 l 1
 300 100 l 1
 500 100 l 1x6490
 500 200 l 1xa090
 600 200 l 1xa008
 600 300 l 1
 700 300 l 1
 700 0 l 1
 0 0 l 1
 0 100 l 1
 100 100 l 1
 100 700 l 1
 0 700 l 1
 0 800 l 1
 400 800 l 1x64a8
 400 900 l 1x2840
EndSplineSet
EndChar

StartChar: Eacute
Encoding: 134 201 134
Width: 900
HStem: 0 200<500 600> 0 100<0 100 300 500> 300 200<300 500> 600 200<500 600> 700 100<0 100 300 500> 880 20G<200 300> 900 100<300 400> 1000 100<500 600>
VStem: 100 200<100 300 500 700> 200 100<800 900> 300 200<900 1000> 400 200<1000 1100> 500 200<100 200 600 700> 600 100<200 300 500 600>
Fore
SplineSet
400 1100 m 1x2110
 600 1100 l 1
 600 1000 l 1x2110
 500 1000 l 1x2120
 500 900 l 1x2220
 300 900 l 1x2440
 300 1000 l 1x2220
 400 1000 l 1x2210
 400 1100 l 1x2110
200 900 m 1x6c40
 300 900 l 1
 300 800 l 1
 700 800 l 1x6c44
 700 500 l 1
 600 500 l 1
 600 600 l 1x3044
 500 600 l 1x3008
 500 700 l 1
 300 700 l 1
 300 500 l 1
 500 500 l 1
 500 300 l 1
 300 300 l 1
 300 100 l 1
 500 100 l 1x6888
 500 200 l 1xa088
 600 200 l 1xa004
 600 300 l 1
 700 300 l 1
 700 0 l 1
 0 0 l 1
 0 100 l 1
 100 100 l 1
 100 700 l 1x6884
 0 700 l 1
 0 800 l 1
 200 800 l 1
 200 900 l 1x6c40
EndSplineSet
EndChar

StartChar: Ecircumflex
Encoding: 135 202 135
Width: 900
HStem: 0 200<500 600> 0 100<0 100 300 500> 300 200<300 500> 700 100<0 100 300 500> 880 20G<100 200 500 600> 900 200<300 400> 900 100<200 300 400 500>
VStem: 100 200<100 300 500 700> 100 100<800 900> 300 100<1000 1100> 500 100<800 900> 600 100<200 300 500 600>
Fore
SplineSet
300 1100 m 1x34e0
 400 1100 l 1x34e0
 400 1000 l 1
 500 1000 l 1x32e0
 500 900 l 1
 200 900 l 1x38e0
 200 1000 l 1
 300 1000 l 1x32e0
 300 1100 l 1x34e0
100 900 m 1x7880
 200 900 l 1
 200 800 l 1
 500 800 l 1
 500 900 l 1
 600 900 l 1
 600 800 l 1x78a0
 700 800 l 1
 700 500 l 1
 600 500 l 1
 600 600 l 1x7810
 500 600 l 1
 500 700 l 1
 300 700 l 1
 300 500 l 1
 500 500 l 1
 500 300 l 1
 300 300 l 1
 300 100 l 1
 500 100 l 1x7920
 500 200 l 1xb120
 600 200 l 1xb010
 600 300 l 1
 700 300 l 1
 700 0 l 1
 0 0 l 1
 0 100 l 1
 100 100 l 1
 100 700 l 1x7110
 0 700 l 1
 0 800 l 1
 100 800 l 1
 100 900 l 1x7880
EndSplineSet
EndChar

StartChar: Edieresis
Encoding: 136 203 136
Width: 900
HStem: 0 200<500 600> 0 100<0 100 300 500> 300 200<300 500> 600 200<500 600> 700 100<0 100 300 500> 900 200<0 200 500 700>
VStem: 0 200<900 1100> 100 200<100 300 500 700> 500 200<100 200 600 700 900 1100> 600 100<200 300 500 600>
Fore
SplineSet
0 1100 m 1x26
 200 1100 l 1
 200 900 l 1
 0 900 l 1
 0 1100 l 1x26
500 1100 m 1x2480
 700 1100 l 1
 700 900 l 1
 500 900 l 1
 500 1100 l 1x2480
0 800 m 1x6e
 700 800 l 1x6e40
 700 500 l 1
 600 500 l 1
 600 600 l 1x3640
 500 600 l 1x3480
 500 700 l 1
 300 700 l 1
 300 500 l 1
 500 500 l 1
 500 300 l 1
 300 300 l 1
 300 100 l 1
 500 100 l 1x6d80
 500 200 l 1xa580
 600 200 l 1xa440
 600 300 l 1
 700 300 l 1
 700 0 l 1
 0 0 l 1
 0 100 l 1x6640
 100 100 l 1
 100 700 l 1x6d
 0 700 l 1
 0 800 l 1x6e
EndSplineSet
EndChar

StartChar: Igrave
Encoding: 137 204 137
Width: 900
HStem: 0 100<200 300 500 600> 700 100<200 300 500 600> 880 20G<400 500> 900 100<300 400> 1000 100<100 200>
VStem: 100 200<1000 1100> 200 200<900 1000> 300 200<100 700> 400 100<800 900>
Fore
SplineSet
100 1100 m 1xcc
 300 1100 l 1xcc
 300 1000 l 1xd4
 400 1000 l 1xd2
 400 900 l 1xe2
 200 900 l 1xd2
 200 1000 l 1xca
 100 1000 l 1
 100 1100 l 1xcc
400 900 m 1xe2
 500 900 l 1
 500 800 l 1xe080
 600 800 l 1
 600 700 l 1
 500 700 l 1
 500 100 l 1xe1
 600 100 l 1
 600 0 l 1
 200 0 l 1
 200 100 l 1xe2
 300 100 l 1
 300 700 l 1xe1
 200 700 l 1
 200 800 l 1xe2
 400 800 l 1xe080
 400 900 l 1xe2
EndSplineSet
EndChar

StartChar: Iacute
Encoding: 138 205 138
Width: 900
HStem: 0 100<200 300 500 600> 700 100<200 300 500 600> 880 20G<300 400> 900 100<400 500> 1000 100<600 700>
VStem: 300 200<100 700> 300 100<800 900> 400 200<900 1000> 500 200<1000 1100>
Fore
SplineSet
500 1100 m 1xc880
 700 1100 l 1
 700 1000 l 1xc880
 600 1000 l 1xc9
 600 900 l 1xd1
 400 900 l 1xe2
 400 1000 l 1xd1
 500 1000 l 1xd080
 500 1100 l 1xc880
300 900 m 1xe2
 400 900 l 1
 400 800 l 1xe2
 600 800 l 1
 600 700 l 1xe1
 500 700 l 1
 500 100 l 1xe4
 600 100 l 1
 600 0 l 1xe1
 200 0 l 1
 200 100 l 1
 300 100 l 1
 300 700 l 1xe4
 200 700 l 1
 200 800 l 1
 300 800 l 1
 300 900 l 1xe2
EndSplineSet
EndChar

StartChar: Icircumflex
Encoding: 139 206 139
Width: 900
HStem: 0 100<200 300 500 600> 700 100<200 300 500 600> 800 100<100 200 600 700> 900 200<300 500> 900 100<200 300 500 600>
VStem: 100 100<800 900> 200 400<0 100 700 800 900 1000> 300 200<100 700 1000 1100> 600 100<800 900>
Fore
SplineSet
300 1100 m 1x91
 500 1100 l 1x91
 500 1000 l 1x89
 600 1000 l 1x8a
 600 900 l 1xa2
 200 900 l 1xa4
 200 1000 l 1x8a
 300 1000 l 1x89
 300 1100 l 1x91
100 900 m 1xa4
 200 900 l 1xa4
 200 800 l 1xc4
 100 800 l 1
 100 900 l 1xa4
600 900 m 1xa2
 700 900 l 1
 700 800 l 1xa080
 600 800 l 1xc2
 600 900 l 1xa2
200 800 m 1xc4
 600 800 l 1
 600 700 l 1xc2
 500 700 l 1
 500 100 l 1xc1
 600 100 l 1
 600 0 l 1
 200 0 l 1
 200 100 l 1xc2
 300 100 l 1
 300 700 l 1xc1
 200 700 l 1xc2
 200 800 l 1xc4
EndSplineSet
EndChar

StartChar: Idieresis
Encoding: 140 207 140
Width: 900
HStem: 0 100<200 300 500 600> 700 100<200 300 500 600> 900 200<100 300 500 700>
VStem: 100 200<900 1100> 300 200<100 700> 500 200<900 1100>
Fore
SplineSet
100 1100 m 1xf0
 300 1100 l 1
 300 900 l 1
 100 900 l 1
 100 1100 l 1xf0
500 1100 m 1xe4
 700 1100 l 1
 700 900 l 1
 500 900 l 1
 500 1100 l 1xe4
200 800 m 1
 600 800 l 1
 600 700 l 1
 500 700 l 1
 500 100 l 1
 600 100 l 1
 600 0 l 1
 200 0 l 1
 200 100 l 1
 300 100 l 1
 300 700 l 1xe8
 200 700 l 1
 200 800 l 1
EndSplineSet
EndChar

StartChar: Eth
Encoding: 141 208 141
Width: 900
HStem: 0 100<0 100 300 500> 400 100<0 100 300 400> 800 100<0 100 300 500>
VStem: 100 200<100 400 500 800> 500 200<100 800>
Fore
SplineSet
500 800 m 1
 300 800 l 1
 300 500 l 1
 400 500 l 1
 400 400 l 1
 300 400 l 1
 300 100 l 1
 500 100 l 1
 500 800 l 1
0 900 m 1
 600 900 l 1
 600 800 l 1
 700 800 l 1
 700 100 l 1
 600 100 l 1
 600 0 l 1
 0 0 l 1
 0 100 l 1
 100 100 l 1
 100 400 l 1
 0 400 l 1
 0 500 l 1
 100 500 l 1
 100 800 l 1
 0 800 l 1
 0 900 l 1
EndSplineSet
EndChar

StartChar: Ntilde
Encoding: 142 209 142
Width: 900
HStem: 0 21G<0 200 500 700> 900 100<0 100 400 500> 1000 100<200 300 600 700>
VStem: 0 200<0 300 600 700 900 1000> 0 100<700 800> 500 200<0 100 400 800 1000 1100>
Fore
SplineSet
100 1100 m 1xac
 400 1100 l 1xac
 400 1000 l 1
 500 1000 l 1xcc
 500 1100 l 1
 700 1100 l 1
 700 1000 l 1
 600 1000 l 1xac
 600 900 l 1
 300 900 l 1xcc
 300 1000 l 1
 200 1000 l 1xb4
 200 900 l 1
 0 900 l 1
 0 1000 l 1xd4
 100 1000 l 1xcc
 100 1100 l 1xac
0 800 m 1
 100 800 l 1
 100 700 l 1x8c
 200 700 l 1
 200 600 l 1
 300 600 l 1
 300 500 l 1
 400 500 l 1
 400 400 l 1
 500 400 l 1
 500 800 l 1
 700 800 l 1
 700 0 l 1
 500 0 l 1
 500 100 l 1
 400 100 l 1
 400 200 l 1
 300 200 l 1
 300 300 l 1
 200 300 l 1
 200 0 l 1
 0 0 l 1x94
 0 800 l 1
EndSplineSet
EndChar

StartChar: Ograve
Encoding: 143 210 143
Width: 900
HStem: 0 100<200 500> 700 200<400 500> 700 100<200 400> 900 100<300 400> 1000 100<100 200>
VStem: 0 200<100 700> 100 200<1000 1100> 200 200<900 1000> 400 100<800 900> 500 200<100 700>
Fore
SplineSet
100 1100 m 1x8a
 300 1100 l 1x8a
 300 1000 l 1x92
 400 1000 l 1x91
 400 900 l 1xc1
 200 900 l 1x91
 200 1000 l 1x89
 100 1000 l 1
 100 1100 l 1x8a
500 700 m 1xc440
 200 700 l 1xa440
 200 100 l 1
 500 100 l 1
 500 700 l 1xc440
400 900 m 1xc1
 500 900 l 1xc080
 500 800 l 1xa080
 600 800 l 1
 600 700 l 1
 700 700 l 1
 700 100 l 1
 600 100 l 1
 600 0 l 1
 100 0 l 1
 100 100 l 1xa240
 0 100 l 1
 0 700 l 1xa4
 100 700 l 1
 100 800 l 1
 400 800 l 1xa280
 400 900 l 1xc1
EndSplineSet
EndChar

StartChar: Oacute
Encoding: 144 211 144
Width: 900
HStem: 0 100<200 500> 700 200<200 300> 700 100<300 500> 900 100<300 400> 1000 100<500 600>
VStem: 0 200<100 700> 200 100<800 900> 300 200<900 1000> 400 200<1000 1100> 500 200<100 700>
Fore
SplineSet
400 1100 m 1x8880
 600 1100 l 1
 600 1000 l 1x8880
 500 1000 l 1x89
 500 900 l 1x91
 300 900 l 1xc2
 300 1000 l 1x91
 400 1000 l 1x9080
 400 1100 l 1x8880
500 700 m 1xa440
 200 700 l 1xc440
 200 100 l 1
 500 100 l 1
 500 700 l 1xa440
200 900 m 1xc2
 300 900 l 1xc2
 300 800 l 1
 600 800 l 1
 600 700 l 1xa280
 700 700 l 1
 700 100 l 1xa040
 600 100 l 1
 600 0 l 1
 100 0 l 1
 100 100 l 1
 0 100 l 1
 0 700 l 1xa480
 100 700 l 1
 100 800 l 1
 200 800 l 1xa2
 200 900 l 1xc2
EndSplineSet
EndChar

StartChar: Ocircumflex
Encoding: 145 212 145
Width: 900
HStem: 0 100<200 500> 700 100<200 500> 880 20G<100 200 500 600> 900 200<300 400> 900 100<200 300 400 500>
VStem: 0 200<100 700> 100 100<800 900> 300 100<1000 1100> 500 200<100 700> 500 100<800 900>
Fore
SplineSet
300 1100 m 1xd340
 400 1100 l 1xd340
 400 1000 l 1
 500 1000 l 1xcb40
 500 900 l 1
 200 900 l 1xe340
 200 1000 l 1
 300 1000 l 1xcb40
 300 1100 l 1xd340
500 700 m 1xc580
 200 700 l 1
 200 100 l 1
 500 100 l 1
 500 700 l 1xc580
100 900 m 1xe3
 200 900 l 1
 200 800 l 1
 500 800 l 1
 500 900 l 1
 600 900 l 1
 600 700 l 1xe340
 700 700 l 1
 700 100 l 1xe180
 600 100 l 1
 600 0 l 1
 100 0 l 1
 100 100 l 1xe340
 0 100 l 1
 0 700 l 1xe5
 100 700 l 1
 100 900 l 1xe3
EndSplineSet
EndChar

StartChar: Otilde
Encoding: 146 213 146
Width: 900
HStem: 0 100<200 500> 700 100<200 500> 900 100<0 100 400 500> 1000 100<200 300 600 700>
VStem: 0 200<100 700 900 1000> 500 200<100 700 1000 1100>
Fore
SplineSet
100 1100 m 1xdc
 400 1100 l 1xdc
 400 1000 l 1
 500 1000 l 1xec
 500 1100 l 1
 700 1100 l 1
 700 1000 l 1
 600 1000 l 1xdc
 600 900 l 1
 300 900 l 1xec
 300 1000 l 1
 200 1000 l 1xdc
 200 900 l 1
 0 900 l 1
 0 1000 l 1
 100 1000 l 1xec
 100 1100 l 1xdc
500 700 m 1
 200 700 l 1
 200 100 l 1
 500 100 l 1
 500 700 l 1
100 800 m 1
 600 800 l 1
 600 700 l 1
 700 700 l 1
 700 100 l 1
 600 100 l 1
 600 0 l 1
 100 0 l 1
 100 100 l 1
 0 100 l 1
 0 700 l 1
 100 700 l 1
 100 800 l 1
EndSplineSet
EndChar

StartChar: Odieresis
Encoding: 147 214 147
Width: 900
HStem: 0 100<200 500> 700 100<200 500> 900 200<0 200 500 700>
VStem: 0 200<100 700 900 1100> 500 200<100 700 900 1100>
Fore
SplineSet
0 1100 m 1
 200 1100 l 1
 200 900 l 1
 0 900 l 1
 0 1100 l 1
500 1100 m 1
 700 1100 l 1
 700 900 l 1
 500 900 l 1
 500 1100 l 1
500 700 m 1
 200 700 l 1
 200 100 l 1
 500 100 l 1
 500 700 l 1
100 800 m 1
 600 800 l 1
 600 700 l 1
 700 700 l 1
 700 100 l 1
 600 100 l 1
 600 0 l 1
 100 0 l 1
 100 100 l 1
 0 100 l 1
 0 700 l 1
 100 700 l 1
 100 800 l 1
EndSplineSet
EndChar

StartChar: multiply
Encoding: 148 215 148
Width: 900
HStem: 200 200<200 300 500 600> 200 100<100 200 600 700> 500 200<200 300 500 600> 600 100<100 200 600 700>
VStem: 100 200<200 300 600 700> 500 200<200 300 600 700>
Fore
SplineSet
100 700 m 1x1c
 300 700 l 1x2c
 300 600 l 1
 500 600 l 1x1c
 500 700 l 1x2c
 700 700 l 1
 700 600 l 1
 600 600 l 1x1c
 600 500 l 1
 500 500 l 1
 500 400 l 1
 600 400 l 1xac
 600 300 l 1
 700 300 l 1
 700 200 l 1x4c
 500 200 l 1x8c
 500 300 l 1
 300 300 l 1x4c
 300 200 l 1x8c
 100 200 l 1
 100 300 l 1
 200 300 l 1x4c
 200 400 l 1
 300 400 l 1
 300 500 l 1
 200 500 l 1xac
 200 600 l 1
 100 600 l 1
 100 700 l 1x1c
EndSplineSet
EndChar

StartChar: Oslash
Encoding: 149 216 149
Width: 900
HStem: -200 200<0 100> 0 100<300 500> 800 100<200 400> 900 200<600 700>
VStem: 0 300<100 300> 0 200<-100 0 400 800> 0 100<-200 -100> 300 100<400 500> 400 300<600 800> 500 200<100 500 900 1000> 600 100<1000 1100>
Fore
SplineSet
400 800 m 1x2080
 200 800 l 1
 200 400 l 1
 300 400 l 1
 300 600 l 1x25
 400 600 l 1
 400 800 l 1x2080
500 500 m 1x4840
 400 500 l 1x4140
 400 300 l 1x4080
 300 300 l 1
 300 100 l 1
 500 100 l 1
 500 500 l 1x4840
600 1100 m 1x1020
 700 1100 l 1x1020
 700 900 l 1x1040
 600 900 l 1x1020
 600 800 l 1x2020
 700 800 l 1x2080
 700 100 l 1x6040
 600 100 l 1
 600 0 l 1
 200 0 l 1
 200 -100 l 1x6420
 100 -100 l 1
 100 -200 l 1
 0 -200 l 1x82
 0 0 l 1x84
 100 0 l 1x82
 100 100 l 1x42
 0 100 l 1x48
 0 800 l 1x64
 100 800 l 1x62
 100 900 l 1
 500 900 l 1
 500 1000 l 1x1240
 600 1000 l 1
 600 1100 l 1x1020
EndSplineSet
EndChar

StartChar: Ugrave
Encoding: 150 217 150
Width: 900
HStem: 0 100<200 500> 800 100<400 500> 900 100<300 400> 1000 100<100 200>
VStem: 0 200<100 800> 100 200<1000 1100> 200 200<900 1000> 400 100<800 900> 500 200<100 800>
Fore
SplineSet
100 1100 m 1x94
 300 1100 l 1x94
 300 1000 l 1xa4
 400 1000 l 1xa2
 400 900 l 1xc2
 200 900 l 1xa2
 200 1000 l 1x92
 100 1000 l 1
 100 1100 l 1x94
400 900 m 1xc2
 500 900 l 1
 500 800 l 1
 400 800 l 1xc1
 400 900 l 1xc2
0 800 m 1xc8
 200 800 l 1
 200 100 l 1
 500 100 l 1xc880
 500 800 l 1xc1
 700 800 l 1
 700 100 l 1
 600 100 l 1
 600 0 l 1
 100 0 l 1
 100 100 l 1xc480
 0 100 l 1
 0 800 l 1xc8
EndSplineSet
EndChar

StartChar: Uacute
Encoding: 151 218 151
Width: 900
HStem: 0 100<200 500> 800 100<200 300> 900 100<300 400> 1000 100<500 600>
VStem: 0 200<100 800> 200 100<800 900> 300 200<900 1000> 400 200<1000 1100> 500 200<100 800>
Fore
SplineSet
400 1100 m 1x91
 600 1100 l 1
 600 1000 l 1x91
 500 1000 l 1x92
 500 900 l 1xa2
 300 900 l 1xc4
 300 1000 l 1xa2
 400 1000 l 1xa1
 400 1100 l 1x91
200 900 m 1xc4
 300 900 l 1
 300 800 l 1xc4
 200 800 l 1xc8
 200 900 l 1xc4
0 800 m 1xc9
 200 800 l 1
 200 100 l 1
 500 100 l 1
 500 800 l 1
 700 800 l 1
 700 100 l 1xc880
 600 100 l 1
 600 0 l 1
 100 0 l 1
 100 100 l 1
 0 100 l 1
 0 800 l 1xc9
EndSplineSet
EndChar

StartChar: Ucircumflex
Encoding: 152 219 152
Width: 900
HStem: 0 100<200 500> 880 20G<100 200 500 600> 900 200<300 400> 900 100<200 300 400 500>
VStem: 0 200<100 800> 100 100<800 900> 300 100<1000 1100> 500 200<100 800> 500 100<800 900>
Fore
SplineSet
300 1100 m 1xa680
 400 1100 l 1xa680
 400 1000 l 1
 500 1000 l 1x9680
 500 900 l 1
 200 900 l 1xc680
 200 1000 l 1
 300 1000 l 1x9680
 300 1100 l 1xa680
100 900 m 1xc6
 200 900 l 1xc6
 200 100 l 1
 500 100 l 1xcb
 500 900 l 1
 600 900 l 1
 600 800 l 1xc280
 700 800 l 1
 700 100 l 1xc3
 600 100 l 1
 600 0 l 1
 100 0 l 1
 100 100 l 1xc680
 0 100 l 1
 0 800 l 1xca
 100 800 l 1
 100 900 l 1xc6
EndSplineSet
EndChar

StartChar: Udieresis
Encoding: 153 220 153
Width: 900
HStem: 0 100<200 500> 900 200<0 200 500 700>
VStem: 0 200<100 800 900 1100> 500 200<100 800 900 1100>
Fore
SplineSet
0 1100 m 1
 200 1100 l 1
 200 900 l 1
 0 900 l 1
 0 1100 l 1
500 1100 m 1
 700 1100 l 1
 700 900 l 1
 500 900 l 1
 500 1100 l 1
0 800 m 1
 200 800 l 1
 200 100 l 1
 500 100 l 1
 500 800 l 1
 700 800 l 1
 700 100 l 1
 600 100 l 1
 600 0 l 1
 100 0 l 1
 100 100 l 1
 0 100 l 1
 0 800 l 1
EndSplineSet
EndChar

StartChar: Yacute
Encoding: 154 221 154
Width: 900
HStem: 0 100<200 300 500 600> 500 300<100 200 600 700> 800 100<300 400> 900 100<400 500> 1000 100<600 700>
VStem: 100 200<500 800> 300 200<100 400> 300 100<800 900> 400 200<900 1000> 500 200<500 800 1000 1100>
Fore
SplineSet
500 1100 m 1x8840
 700 1100 l 1
 700 1000 l 1x8840
 600 1000 l 1x8880
 600 900 l 1x9080
 400 900 l 1xa1
 400 1000 l 1x9080
 500 1000 l 1x9040
 500 1100 l 1x8840
300 900 m 1xa1
 400 900 l 1
 400 800 l 1xa1
 300 800 l 1xa4
 300 900 l 1xa1
100 800 m 1xc4
 300 800 l 1xa4
 300 500 l 1
 500 500 l 1xc440
 500 800 l 1xa440
 700 800 l 1
 700 500 l 1xc440
 600 500 l 1
 600 400 l 1xc080
 500 400 l 1
 500 100 l 1xc2
 600 100 l 1
 600 0 l 1xc080
 200 0 l 1
 200 100 l 1
 300 100 l 1
 300 400 l 1xc2
 200 400 l 1
 200 500 l 1
 100 500 l 1
 100 800 l 1xc4
EndSplineSet
EndChar

StartChar: Thorn
Encoding: 155 222 155
Width: 900
HStem: 0 100<0 100 300 400> 200 100<300 500> 600 100<300 500> 800 100<0 100 300 400>
VStem: 100 200<100 200 300 600 700 800> 500 200<300 600>
Fore
SplineSet
500 600 m 1
 300 600 l 1
 300 300 l 1
 500 300 l 1
 500 600 l 1
0 900 m 1
 400 900 l 1
 400 800 l 1
 300 800 l 1
 300 700 l 1
 600 700 l 1
 600 600 l 1
 700 600 l 1
 700 300 l 1
 600 300 l 1
 600 200 l 1
 300 200 l 1
 300 100 l 1
 400 100 l 1
 400 0 l 1
 0 0 l 1
 0 100 l 1
 100 100 l 1
 100 800 l 1
 0 800 l 1
 0 900 l 1
EndSplineSet
EndChar

StartChar: germandbls
Encoding: 156 223 156
Width: 900
HStem: 100 100<300 500> 200 200<600 700> 500 100<300 400> 600 200<500 600> 800 100<200 400>
VStem: 0 200<0 800> 100 100<-100 0> 300 200<500 600> 400 200<400 500 600 800> 500 200<200 400>
Fore
SplineSet
100 900 m 1x6a
 500 900 l 1x6a40
 500 800 l 1x1240
 600 800 l 1
 600 600 l 1x1080
 500 600 l 1x11
 500 500 l 1x21
 600 500 l 1
 600 400 l 1x6080
 700 400 l 1
 700 200 l 1x6040
 600 200 l 1x6080
 600 100 l 1x8080
 300 100 l 1
 300 200 l 1x81
 500 200 l 1x8040
 500 400 l 1x4040
 400 400 l 1
 400 500 l 1x6080
 300 500 l 1
 300 600 l 1x61
 400 600 l 1
 400 800 l 1
 200 800 l 1x6c80
 200 -100 l 1
 100 -100 l 1
 100 0 l 1x6a
 0 0 l 1
 0 800 l 1x6c
 100 800 l 1
 100 900 l 1x6a
EndSplineSet
EndChar

StartChar: agrave
Encoding: 157 224 157
Width: 900
HStem: 0 100<200 400 600 700> 100 200<0 100> 300 100<200 400> 500 100<100 400> 700 100<300 400> 800 100<200 300> 900 100<0 100>
VStem: 0 200<100 300 900 1000> 100 200<800 900> 300 100<700 800> 400 200<100 300 400 500> 500 200<0 100>
Fore
SplineSet
0 1000 m 1x13
 200 1000 l 1x13
 200 900 l 1x15
 300 900 l 1x1480
 300 800 l 1x1880
 100 800 l 1x1480
 100 900 l 1x1280
 0 900 l 1
 0 1000 l 1x13
300 800 m 1x1880
 400 800 l 1
 400 700 l 1
 300 700 l 1x1840
 300 800 l 1x1880
100 600 m 1x30a0
 500 600 l 1
 500 500 l 1x3090
 600 500 l 1
 600 100 l 1xb020
 700 100 l 1
 700 0 l 1
 500 0 l 1xb010
 500 100 l 1x5010
 400 100 l 1
 400 300 l 1
 200 300 l 1
 200 100 l 1xb120
 400 100 l 1
 400 0 l 1
 100 0 l 1xb0a0
 100 100 l 1x50a0
 0 100 l 1
 0 300 l 1x51
 100 300 l 1x5080
 100 400 l 1
 400 400 l 1
 400 500 l 1
 100 500 l 1
 100 600 l 1x30a0
EndSplineSet
EndChar

StartChar: ae
Encoding: 163 230 163
Width: 900
HStem: 0 100<100 300 400 600> 100 200<0 100> 100 100<600 700> 300 200<600 700> 300 100<100 300 400 600> 500 100<100 300 400 600>
VStem: 0 100<100 300> 300 100<100 300 400 500> 600 100<100 200 400 500>
Fore
SplineSet
100 600 m 1x0f80
 600 600 l 1x0f80
 600 500 l 1x1380
 400 500 l 1
 400 400 l 1
 600 400 l 1x0f80
 600 500 l 1
 700 500 l 1
 700 300 l 1x1380
 400 300 l 1
 400 100 l 1
 600 100 l 1
 600 0 l 1
 100 0 l 1
 100 100 l 1
 300 100 l 1
 300 300 l 1x8b80
 100 300 l 1x4380
 100 400 l 1
 300 400 l 1
 300 500 l 1
 100 500 l 1
 100 600 l 1x0f80
0 300 m 1x4380
 100 300 l 1x4380
 100 100 l 1x8380
 0 100 l 1
 0 300 l 1x4380
600 200 m 1x2380
 700 200 l 1
 700 100 l 1x2380
 600 100 l 1x8380
 600 200 l 1x2380
EndSplineSet
EndChar

StartChar: ccedilla
Encoding: 164 231 164
Width: 900
HStem: -300 100<100 400> -200 100<400 500> -100 200<300 400> 0 100<200 300 400 500> 100 100<600 700> 400 100<600 700> 500 100<200 500>
VStem: 0 200<100 500> 300 100<-100 0> 400 100<-200 -100> 500 200<100 200 400 500>
Fore
SplineSet
100 600 m 1x0ba0
 600 600 l 1x0ba0
 600 500 l 1
 700 500 l 1
 700 400 l 1
 500 400 l 1x05a0
 500 500 l 1
 200 500 l 1
 200 100 l 1
 500 100 l 1x13a0
 500 200 l 1
 700 200 l 1
 700 100 l 1
 600 100 l 1x09a0
 600 0 l 1
 400 0 l 1
 400 -100 l 1x51a0
 300 -100 l 1x21a0
 300 0 l 1
 100 0 l 1x11a0
 100 100 l 1
 0 100 l 1
 0 500 l 1
 100 500 l 1
 100 600 l 1x0ba0
400 -100 m 1x4180
 500 -100 l 1
 500 -200 l 1x4140
 400 -200 l 1x8140
 400 -100 l 1x4180
100 -200 m 1x8140
 400 -200 l 1
 400 -300 l 1
 100 -300 l 1
 100 -200 l 1x8140
EndSplineSet
EndChar

StartChar: egrave
Encoding: 165 232 165
Width: 900
HStem: 0 100<200 500> 100 100<600 700> 300 200<600 700> 300 100<200 500> 500 100<200 500> 700 100<300 400> 800 100<200 300> 900 100<0 100>
VStem: 0 200<100 300 400 500 900 1000> 100 200<800 900> 300 100<700 800> 500 200<100 200 400 500>
Fore
SplineSet
0 1000 m 1x0190
 200 1000 l 1x0190
 200 900 l 1x0290
 300 900 l 1x0250
 300 800 l 1x0450
 100 800 l 1x0250
 100 900 l 1x0150
 0 900 l 1
 0 1000 l 1x0190
300 800 m 1x0450
 400 800 l 1
 400 700 l 1
 300 700 l 1x0430
 300 800 l 1x0450
500 500 m 1x1890
 200 500 l 1
 200 400 l 1
 500 400 l 1
 500 500 l 1x1890
100 600 m 1x4850
 600 600 l 1x4850
 600 500 l 1
 700 500 l 1
 700 300 l 1x2050
 200 300 l 1
 200 100 l 1
 500 100 l 1x9090
 500 200 l 1
 700 200 l 1
 700 100 l 1
 600 100 l 1x4090
 600 0 l 1
 100 0 l 1x8050
 100 100 l 1x4050
 0 100 l 1
 0 500 l 1x4890
 100 500 l 1
 100 600 l 1x4850
EndSplineSet
EndChar

StartChar: edieresis
Encoding: 168 235 168
Width: 900
HStem: 0 100<200 500> 100 100<600 700> 300 200<600 700> 300 100<200 500> 500 100<200 500> 700 200<0 200 500 700>
VStem: 0 200<100 300 400 500 700 900> 500 200<100 200 400 500 700 900>
Fore
SplineSet
0 900 m 1x07
 200 900 l 1
 200 700 l 1
 0 700 l 1
 0 900 l 1x07
500 900 m 1
 700 900 l 1
 700 700 l 1
 500 700 l 1
 500 900 l 1
500 500 m 1x1f
 200 500 l 1
 200 400 l 1
 500 400 l 1
 500 500 l 1x1f
100 600 m 1
 600 600 l 1x4f
 600 500 l 1
 700 500 l 1
 700 300 l 1x27
 200 300 l 1
 200 100 l 1
 500 100 l 1x97
 500 200 l 1
 700 200 l 1
 700 100 l 1
 600 100 l 1x47
 600 0 l 1
 100 0 l 1x87
 100 100 l 1
 0 100 l 1x47
 0 500 l 1
 100 500 l 1
 100 600 l 1
EndSplineSet
EndChar

StartChar: igrave
Encoding: 169 236 169
Width: 900
HStem: 0 100<200 300 500 600> 500 100<200 300> 700 100<300 400> 800 100<200 300> 900 100<0 100>
VStem: 0 200<900 1000> 100 200<800 900> 300 200<100 500> 300 100<700 800>
Fore
SplineSet
0 1000 m 1xcc
 200 1000 l 1xcc
 200 900 l 1xd4
 300 900 l 1xd2
 300 800 l 1xe2
 100 800 l 1xd2
 100 900 l 1xca
 0 900 l 1
 0 1000 l 1xcc
300 800 m 1xe2
 400 800 l 1
 400 700 l 1
 300 700 l 1xe080
 300 800 l 1xe2
200 600 m 1xc5
 500 600 l 1
 500 100 l 1
 600 100 l 1
 600 0 l 1
 200 0 l 1
 200 100 l 1
 300 100 l 1
 300 500 l 1
 200 500 l 1
 200 600 l 1xc5
EndSplineSet
EndChar

StartChar: eth
Encoding: 173 240 173
Width: 900
HStem: 0 100<200 400 600 700> 410 100<200 400> 600 100<200 400 600 700> 800 100<300 400>
VStem: 0 200<100 410> 400 200<100 410 510 600 700 800> 500 200<0 100>
Fore
SplineSet
300 900 m 1xfc
 600 900 l 1
 600 700 l 1xfc
 700 700 l 1
 700 600 l 1xfa
 600 600 l 1
 600 100 l 1xfc
 700 100 l 1
 700 0 l 1
 500 0 l 1
 500 100 l 1xfa
 400 100 l 1
 400 410 l 1
 200 410 l 1
 200 100 l 1
 400 100 l 1
 400 0 l 1
 100 0 l 1
 100 100 l 1
 0 100 l 1
 0 410 l 1
 100 410 l 1
 100 510 l 1
 400 510 l 1
 400 600 l 1
 200 600 l 1
 200 700 l 1
 400 700 l 1
 400 800 l 1
 300 800 l 1
 300 900 l 1xfc
EndSplineSet
EndChar

StartChar: ograve
Encoding: 175 242 175
Width: 900
HStem: 0 100<200 500> 500 100<200 500> 700 100<300 400> 800 100<200 300> 900 100<0 100>
VStem: 0 200<100 500 900 1000> 100 200<800 900> 300 100<700 800> 500 200<100 500>
Fore
SplineSet
0 1000 m 1xcc80
 200 1000 l 1xcc80
 200 900 l 1xd480
 300 900 l 1xd280
 300 800 l 1xe280
 100 800 l 1xd280
 100 900 l 1xca80
 0 900 l 1
 0 1000 l 1xcc80
300 800 m 1xe280
 400 800 l 1
 400 700 l 1
 300 700 l 1xe180
 300 800 l 1xe280
500 500 m 1
 200 500 l 1
 200 100 l 1xc480
 500 100 l 1
 500 500 l 1
100 600 m 1xc280
 600 600 l 1
 600 500 l 1
 700 500 l 1
 700 100 l 1
 600 100 l 1
 600 0 l 1
 100 0 l 1
 100 100 l 1xc280
 0 100 l 1
 0 500 l 1xc480
 100 500 l 1
 100 600 l 1xc280
EndSplineSet
EndChar

StartChar: odieresis
Encoding: 179 246 179
Width: 900
HStem: 0 100<200 500> 500 100<200 500> 700 200<0 200 500 700>
VStem: 0 200<100 500 700 900> 500 200<100 500 700 900>
Fore
SplineSet
0 900 m 1
 200 900 l 1
 200 700 l 1
 0 700 l 1
 0 900 l 1
500 900 m 1
 700 900 l 1
 700 700 l 1
 500 700 l 1
 500 900 l 1
500 500 m 1
 200 500 l 1
 200 100 l 1
 500 100 l 1
 500 500 l 1
100 600 m 1
 600 600 l 1
 600 500 l 1
 700 500 l 1
 700 100 l 1
 600 100 l 1
 600 0 l 1
 100 0 l 1
 100 100 l 1
 0 100 l 1
 0 500 l 1
 100 500 l 1
 100 600 l 1
EndSplineSet
EndChar

StartChar: divide
Encoding: 180 247 180
Width: 900
HStem: 100 200<300 500> 400 100<100 700> 600 200<300 500>
VStem: 300 200<100 300 600 800>
Fore
SplineSet
300 800 m 1
 500 800 l 1
 500 600 l 1
 300 600 l 1
 300 800 l 1
100 500 m 1
 700 500 l 1
 700 400 l 1
 100 400 l 1
 100 500 l 1
300 300 m 1
 500 300 l 1
 500 100 l 1
 300 100 l 1
 300 300 l 1
EndSplineSet
EndChar

StartChar: oslash
Encoding: 181 248 181
Width: 900
HStem: -200 100<0 100> 0 200<200 300> 0 100<300 500> 200 200<300 400> 400 200<400 500> 500 100<200 400> 700 100<600 700>
VStem: 0 100<-200 -100> 100 100<-100 0> 300 100<200 400> 500 100<600 700> 600 100<700 800>
Fore
SplineSet
300 400 m 1x9240
 400 400 l 1
 400 200 l 1x9240
 300 200 l 1xc240
 300 400 l 1x9240
400 500 m 1x96e0
 200 500 l 1
 200 200 l 1
 300 200 l 1xc6e0
 300 100 l 1
 500 100 l 1
 500 400 l 1xaae0
 400 400 l 1
 400 500 l 1x96e0
600 800 m 1x8250
 700 800 l 1
 700 700 l 1x8250
 600 700 l 1x8260
 600 800 l 1x8250
500 700 m 1x8ae0
 600 700 l 1x8ae0
 600 500 l 1
 700 500 l 1
 700 100 l 1
 600 100 l 1
 600 0 l 1xa650
 200 0 l 1
 200 -100 l 1xc2d0
 100 -100 l 1xc340
 100 100 l 1xa2c0
 0 100 l 1
 0 500 l 1xa740
 100 500 l 1
 100 600 l 1xa6c0
 500 600 l 1
 500 700 l 1x8ae0
0 -100 m 1x8340
 100 -100 l 1
 100 -200 l 1
 0 -200 l 1
 0 -100 l 1x8340
EndSplineSet
EndChar

StartChar: ugrave
Encoding: 182 249 182
Width: 900
HStem: 0 100<200 400 600 700> 580 20G<0 200 400 600> 700 100<300 400> 800 100<200 300> 900 100<0 100>
VStem: 0 200<100 600 900 1000> 100 200<800 900> 300 100<700 800> 400 200<100 600> 500 200<0 100>
Fore
SplineSet
0 1000 m 1xcc
 200 1000 l 1xcc
 200 900 l 1xd4
 300 900 l 1xd2
 300 800 l 1xe2
 100 800 l 1xd2
 100 900 l 1xca
 0 900 l 1
 0 1000 l 1xcc
300 800 m 1xe2
 400 800 l 1
 400 700 l 1
 300 700 l 1xe1
 300 800 l 1xe2
0 600 m 1xc4
 200 600 l 1
 200 100 l 1xc4
 400 100 l 1
 400 0 l 1
 100 0 l 1
 100 100 l 1xc280
 0 100 l 1
 0 600 l 1xc4
400 600 m 1xc080
 600 600 l 1
 600 100 l 1xc080
 700 100 l 1
 700 0 l 1
 500 0 l 1
 500 100 l 1xc040
 400 100 l 1
 400 600 l 1xc080
EndSplineSet
EndChar

StartChar: yacute
Encoding: 186 253 186
Width: 900
HStem: -200 200<400 500> -200 100<100 400> 100 100<200 500> 580 20G<0 200 500 700> 700 100<300 400> 800 100<400 500> 900 100<600 700>
VStem: 0 200<200 600> 300 100<700 800> 400 200<-100 0 800 900> 500 200<0 100 200 600 900 1000>
Fore
SplineSet
500 1000 m 1x3320
 700 1000 l 1
 700 900 l 1x3320
 600 900 l 1x3340
 600 800 l 1x3540
 400 800 l 1x3980
 400 900 l 1x3540
 500 900 l 1x3520
 500 1000 l 1x3320
300 800 m 1x3980
 400 800 l 1
 400 700 l 1
 300 700 l 1
 300 800 l 1x3980
0 600 m 1
 200 600 l 1
 200 200 l 1
 500 200 l 1
 500 600 l 1
 700 600 l 1
 700 0 l 1xb120
 600 0 l 1xb140
 600 -100 l 1x7140
 500 -100 l 1x7120
 500 -200 l 1xb120
 100 -200 l 1
 100 -100 l 1
 400 -100 l 1x7140
 400 0 l 1xb140
 500 0 l 1
 500 100 l 1xb120
 100 100 l 1
 100 200 l 1
 0 200 l 1
 0 600 l 1
EndSplineSet
EndChar

StartChar: thorn
Encoding: 187 254 187
Width: 900
HStem: -200 100<0 100 300 400> 100 100<300 500> 500 100<300 500> 800 100<0 100>
VStem: 100 200<-100 100 200 500 600 800> 500 200<200 500>
Fore
SplineSet
500 500 m 1
 300 500 l 1
 300 200 l 1
 500 200 l 1
 500 500 l 1
0 900 m 1
 300 900 l 1
 300 600 l 1
 600 600 l 1
 600 500 l 1
 700 500 l 1
 700 200 l 1
 600 200 l 1
 600 100 l 1
 300 100 l 1
 300 -100 l 1
 400 -100 l 1
 400 -200 l 1
 0 -200 l 1
 0 -100 l 1
 100 -100 l 1
 100 800 l 1
 0 800 l 1
 0 900 l 1
EndSplineSet
EndChar

StartChar: ydieresis
Encoding: 188 255 188
Width: 900
HStem: -200 200<400 500> -200 100<100 400> 100 100<200 500> 580 20G<0 200 500 700> 700 200<0 200 500 700>
VStem: 0 200<200 600 700 900> 400 200<-100 0> 500 200<0 100 200 600 700 900>
Fore
SplineSet
0 900 m 1x3c
 200 900 l 1
 200 700 l 1
 0 700 l 1
 0 900 l 1x3c
500 900 m 1x3d
 700 900 l 1
 700 700 l 1
 500 700 l 1
 500 900 l 1x3d
0 600 m 1
 200 600 l 1
 200 200 l 1
 500 200 l 1
 500 600 l 1
 700 600 l 1
 700 0 l 1xbd
 600 0 l 1xbe
 600 -100 l 1x7e
 500 -100 l 1x7d
 500 -200 l 1xbd
 100 -200 l 1
 100 -100 l 1
 400 -100 l 1x7e
 400 0 l 1xbe
 500 0 l 1xbd
 500 100 l 1
 100 100 l 1
 100 200 l 1
 0 200 l 1
 0 600 l 1
EndSplineSet
EndChar

StartChar: Ccircumflex
Encoding: 189 264 189
Width: 900
HStem: 0 100<200 500> 100 200<600 700> 500 200<600 700> 700 100<200 500> 880 20G<100 200 500 600> 900 200<300 400> 900 100<200 300 400 500>
VStem: 0 200<100 700> 100 100<800 900> 300 100<1000 1100> 500 200<100 300 500 700> 500 100<800 900>
Fore
SplineSet
300 1100 m 1x04d0
 400 1100 l 1x04d0
 400 1000 l 1
 500 1000 l 1x02d0
 500 900 l 1
 200 900 l 1x08d0
 200 1000 l 1
 300 1000 l 1x02d0
 300 1100 l 1x04d0
100 900 m 1x58c0
 200 900 l 1
 200 800 l 1
 500 800 l 1x58d0
 500 900 l 1
 600 900 l 1
 600 700 l 1x28d0
 700 700 l 1
 700 500 l 1
 500 500 l 1x2860
 500 700 l 1
 200 700 l 1
 200 100 l 1
 500 100 l 1x9160
 500 300 l 25
 700 300 l 1
 700 100 l 1x4160
 600 100 l 1x4050
 600 0 l 1
 100 0 l 1x80d0
 100 100 l 1x40d0
 0 100 l 1
 0 700 l 1x5140
 100 700 l 1
 100 900 l 1x58c0
EndSplineSet
EndChar

StartChar: Ccaron
Encoding: 191 268 191
Width: 900
HStem: 0 100<200 500> 100 200<600 700> 500 200<600 700> 700 100<200 300 400 500> 900 200<200 300 400 500> 1000 100<100 200 500 600>
VStem: 0 200<100 700> 100 200<1000 1100> 300 100<800 900> 400 200<1000 1100> 500 200<100 300 500 700>
Fore
SplineSet
100 1100 m 1x05
 300 1100 l 1x09
 300 1000 l 1
 400 1000 l 1x0540
 400 1100 l 1x0940
 600 1100 l 1
 600 1000 l 1x0540
 500 1000 l 1x0420
 500 900 l 1
 400 900 l 1
 400 800 l 1x18a0
 600 800 l 1x1840
 600 700 l 1x2040
 700 700 l 1
 700 500 l 1
 500 500 l 1x2020
 500 700 l 1
 200 700 l 1
 200 100 l 1
 500 100 l 1x9220
 500 300 l 1
 700 300 l 1
 700 100 l 1x4220
 600 100 l 1x4040
 600 0 l 1
 100 0 l 1x8140
 100 100 l 1x4140
 0 100 l 1
 0 700 l 1x52
 100 700 l 1
 100 800 l 1x51
 300 800 l 1
 300 900 l 1
 200 900 l 1x5a80
 200 1000 l 1x0680
 100 1000 l 1
 100 1100 l 1x05
EndSplineSet
EndChar

StartChar: Dcaron
Encoding: 193 270 193
Width: 900
HStem: 0 100<0 100 300 500> 700 100<0 100 400 500> 900 200<200 300 400 500> 1000 100<100 200 500 600>
VStem: 100 200<100 700 1000 1100> 300 100<800 900> 400 200<1000 1100> 500 200<100 700>
Fore
SplineSet
500 700 m 1xc9
 300 700 l 1
 300 100 l 1
 500 100 l 1
 500 700 l 1xc9
100 1100 m 1xd8
 300 1100 l 1xe8
 300 1000 l 1
 400 1000 l 1xda
 400 1100 l 1xea
 600 1100 l 1
 600 1000 l 1xda
 500 1000 l 1xd1
 500 900 l 1
 400 900 l 1
 400 800 l 1xe5
 600 800 l 1
 600 700 l 1xe2
 700 700 l 1
 700 100 l 1xe1
 600 100 l 1
 600 0 l 1
 0 0 l 1
 0 100 l 1
 100 100 l 1
 100 700 l 1xea
 0 700 l 1
 0 800 l 1
 300 800 l 1
 300 900 l 1
 200 900 l 1xe4
 200 1000 l 1
 100 1000 l 1
 100 1100 l 1xd8
EndSplineSet
EndChar

StartChar: dcaron
Encoding: 194 271 194
Width: 900
HStem: 0 100<200 400 600 700> 500 100<200 400> 800 200<200 400> 900 200<100 200 400 500> 1000 100<0 100 500 600>
VStem: 0 200<100 500 1000 1100> 200 200<800 900> 400 200<100 500 600 800 1000 1100> 500 200<0 100>
Fore
SplineSet
0 1100 m 1xcc
 200 1100 l 1xd4
 200 1000 l 1
 400 1000 l 1xe5
 400 1100 l 1xd5
 600 1100 l 1
 600 1000 l 1xcd
 500 1000 l 1xc880
 500 900 l 1
 400 900 l 1xd280
 400 800 l 1
 200 800 l 1xe280
 200 900 l 1
 100 900 l 1xd280
 100 1000 l 1
 0 1000 l 1
 0 1100 l 1xcc
400 800 m 1xe2
 600 800 l 1
 600 100 l 1xe1
 700 100 l 1
 700 0 l 1
 500 0 l 1
 500 100 l 1xe080
 400 100 l 1
 400 500 l 1
 200 500 l 1
 200 100 l 1
 400 100 l 1
 400 0 l 1
 100 0 l 1
 100 100 l 1
 0 100 l 1
 0 500 l 1
 100 500 l 1
 100 600 l 1
 400 600 l 1xe5
 400 800 l 1xe2
EndSplineSet
EndChar

StartChar: Ecaron
Encoding: 195 282 195
Width: 900
HStem: 0 200<500 600> 0 100<0 100 300 500> 300 200<300 500> 600 200<500 600> 700 100<0 100 400 500> 900 200<200 300 400 500> 1000 100<100 200 500 600>
VStem: 100 200<100 300 500 700 1000 1100> 300 100<800 900> 400 200<1000 1100> 500 200<100 200 600 700> 600 100<200 300 500 600>
Fore
SplineSet
100 1100 m 1x23
 300 1100 l 1x25
 300 1000 l 1
 400 1000 l 1x2340
 400 1100 l 1x2540
 600 1100 l 1
 600 1000 l 1x2340
 500 1000 l 1x2220
 500 900 l 1x2420
 400 900 l 1
 400 800 l 1
 700 800 l 1x2c90
 700 500 l 1
 600 500 l 1
 600 600 l 1x3090
 500 600 l 1x3020
 500 700 l 1
 300 700 l 1
 300 500 l 1
 500 500 l 1
 500 300 l 1
 300 300 l 1
 300 100 l 1
 500 100 l 1x6920
 500 200 l 1xa120
 600 200 l 1xa010
 600 300 l 1
 700 300 l 1
 700 0 l 1
 0 0 l 1
 0 100 l 1
 100 100 l 1
 100 700 l 1x6910
 0 700 l 1
 0 800 l 1
 300 800 l 1
 300 900 l 1
 200 900 l 1x6c80
 200 1000 l 1
 100 1000 l 1
 100 1100 l 1x23
EndSplineSet
EndChar

StartChar: Gcircumflex
Encoding: 197 284 197
Width: 900
HStem: 0 100<200 500> 300 100<400 500> 500 200<600 700> 700 100<200 500> 880 20G<100 200 500 600> 900 200<300 400> 900 100<200 300 400 500>
VStem: 0 200<100 700> 100 100<800 900> 300 100<1000 1100> 500 200<100 300 500 700> 500 100<800 900>
Fore
SplineSet
300 1100 m 1xc4d0
 400 1100 l 1xc4d0
 400 1000 l 1
 500 1000 l 1xc2d0
 500 900 l 1
 200 900 l 1xc8d0
 200 1000 l 1
 300 1000 l 1xc2d0
 300 1100 l 1xc4d0
100 900 m 1xd8c0
 200 900 l 1
 200 800 l 1
 500 800 l 1xd8d0
 500 900 l 1
 600 900 l 1
 600 700 l 1xe8d0
 700 700 l 1
 700 500 l 1
 500 500 l 1xe860
 500 700 l 1
 200 700 l 1
 200 100 l 1xd160
 500 100 l 1
 500 300 l 1
 400 300 l 1
 400 400 l 1
 700 400 l 1
 700 0 l 1
 100 0 l 1
 100 100 l 1xd0e0
 0 100 l 1
 0 700 l 1xd140
 100 700 l 1
 100 900 l 1xd8c0
EndSplineSet
EndChar

StartChar: Hcircumflex
Encoding: 199 292 199
Width: 900
HStem: 0 21G<0 200 500 700> 300 100<200 500> 900 200<300 400> 900 100<200 300 400 500>
VStem: 0 200<0 300 400 800> 300 100<1000 1100> 500 200<0 300 400 800>
Fore
SplineSet
300 1100 m 1xee
 400 1100 l 1xee
 400 1000 l 1
 500 1000 l 1
 500 900 l 1
 200 900 l 1
 200 1000 l 1
 300 1000 l 1xde
 300 1100 l 1xee
0 800 m 1
 200 800 l 1
 200 400 l 1
 500 400 l 1
 500 800 l 1
 700 800 l 1
 700 0 l 1
 500 0 l 1
 500 300 l 1
 200 300 l 1
 200 0 l 1
 0 0 l 1
 0 800 l 1
EndSplineSet
EndChar

StartChar: hcircumflex
Encoding: 200 293 200
Width: 900
HStem: 0 100<0 100> 400 100<300 400> 500 100<400 500> 700 100<0 100> 800 100<500 600> 900 200<300 400> 900 100<200 300 400 500>
VStem: 0 300<0 100 700 800> 100 200<100 400 500 700> 100 100<800 900> 300 100<1000 1100> 400 200<500 600> 500 200<0 500> 500 100<800 900>
Fore
SplineSet
300 1100 m 1x8464
 400 1100 l 1x8464
 400 1000 l 1
 500 1000 l 1x8264
 500 900 l 1x8864
 200 900 l 1
 200 1000 l 1
 300 1000 l 1x8264
 300 1100 l 1x8464
500 900 m 1x8804
 600 900 l 1
 600 800 l 1
 500 800 l 1
 500 900 l 1x8804
100 900 m 1xd240
 200 900 l 1xd240
 200 800 l 1x8840
 300 800 l 1x89
 300 500 l 1
 400 500 l 1
 400 400 l 1
 300 400 l 1xc890
 300 0 l 1
 0 0 l 1
 0 100 l 1xc9
 100 100 l 1
 100 700 l 1xd080
 0 700 l 1
 0 800 l 1xd1
 100 800 l 1
 100 900 l 1xd240
400 600 m 1xa010
 600 600 l 1
 600 500 l 1xa010
 700 500 l 1
 700 0 l 1
 500 0 l 1
 500 500 l 1xa008
 400 500 l 1xc010
 400 600 l 1xa010
EndSplineSet
EndChar

StartChar: dotlessi
Encoding: 201 305 201
Width: 900
HStem: 0 100<200 300 500 600> 500 100<200 300>
VStem: 300 200<100 500>
Fore
SplineSet
200 600 m 1
 500 600 l 1
 500 100 l 1
 600 100 l 1
 600 0 l 1
 200 0 l 1
 200 100 l 1
 300 100 l 1
 300 500 l 1
 200 500 l 1
 200 600 l 1
EndSplineSet
Colour: f46a4b
EndChar

StartChar: Jcircumflex
Encoding: 202 308 202
Width: 900
HStem: 0 100<200 400> 100 200<0 100> 700 100<300 400> 800 100<200 300> 900 200<400 500> 900 100<300 400 500 600>
VStem: 0 200<100 300> 200 100<800 900> 400 200<100 700> 400 100<1000 1100> 600 100<800 900>
Fore
SplineSet
400 1100 m 1x0960
 500 1100 l 1x0960
 500 1000 l 1
 600 1000 l 1
 600 900 l 1x0560
 300 900 l 1x1160
 300 1000 l 1
 400 1000 l 1x0560
 400 1100 l 1x0960
200 900 m 1x11
 300 900 l 1x11
 300 800 l 1x21
 200 800 l 1
 200 900 l 1x11
300 800 m 1xa180
 600 800 l 1x1120
 600 900 l 1
 700 900 l 1
 700 700 l 1x2520
 600 700 l 1
 600 100 l 1x6480
 500 100 l 1x6440
 500 0 l 1
 100 0 l 1x8040
 100 100 l 1
 0 100 l 1
 0 300 l 1
 200 300 l 1x4240
 200 100 l 1x8240
 400 100 l 1
 400 700 l 1
 300 700 l 1
 300 800 l 1xa180
EndSplineSet
EndChar

StartChar: jcircumflex
Encoding: 203 309 203
Width: 900
HStem: -200 100<200 400> -100 200<0 100> 500 100<300 400> 700 200<300 400 600 700> 700 100<200 300 700 800> 800 200<400 600>
VStem: 0 200<-100 100> 200 200<700 800> 400 200<-100 500 900 1000> 600 200<700 800>
Fore
SplineSet
400 1000 m 1x2480
 600 1000 l 1x2480
 600 900 l 1
 700 900 l 1x3080
 700 800 l 1
 800 800 l 1
 800 700 l 1x2840
 600 700 l 1x3040
 600 800 l 1
 400 800 l 1x2540
 400 700 l 1x3140
 200 700 l 1
 200 800 l 1
 300 800 l 1x2940
 300 900 l 1
 400 900 l 1x3080
 400 1000 l 1x2480
300 600 m 1
 600 600 l 1xa040
 600 -100 l 1
 500 -100 l 1x6080
 500 -200 l 1
 100 -200 l 1xa080
 100 -100 l 1
 0 -100 l 1
 0 100 l 1
 200 100 l 1x6280
 200 -100 l 1
 400 -100 l 1xa280
 400 500 l 1
 300 500 l 1
 300 600 l 1
EndSplineSet
EndChar

StartChar: Ncaron
Encoding: 204 327 204
Width: 900
HStem: 0 21G<0 200 500 700> 800 200<300 400> 900 200<200 300 400 500> 1000 100<100 200 500 600>
VStem: 0 200<0 300 600 700> 0 100<700 800> 100 200<1000 1100> 300 100<800 900> 400 200<1000 1100> 500 200<0 100 400 800>
Fore
SplineSet
100 1100 m 1x92
 300 1100 l 1xa2
 300 1000 l 1
 400 1000 l 1xc280
 400 1100 l 1xa280
 600 1100 l 1
 600 1000 l 1x9280
 500 1000 l 1x9040
 500 900 l 1
 400 900 l 1xa140
 400 800 l 1
 300 800 l 1xc140
 300 900 l 1
 200 900 l 1xa940
 200 1000 l 1x9940
 100 1000 l 1
 100 1100 l 1x92
0 800 m 1xc4
 100 800 l 1
 100 700 l 1xc4
 200 700 l 1
 200 600 l 1
 300 600 l 1
 300 500 l 1xc9
 400 500 l 1
 400 400 l 1xc080
 500 400 l 1
 500 800 l 1
 700 800 l 1
 700 0 l 1
 500 0 l 1
 500 100 l 1xc040
 400 100 l 1
 400 200 l 1xc080
 300 200 l 1
 300 300 l 1
 200 300 l 1
 200 0 l 1
 0 0 l 1xc9
 0 800 l 1xc4
EndSplineSet
EndChar

StartChar: OE
Encoding: 206 338 206
Width: 900
HStem: 0 200<600 700> 0 100<200 400 500 600> 400 100<500 600> 700 200<600 700> 800 100<200 400 500 600>
VStem: 0 200<100 800> 400 200<400 500> 400 100<100 400 500 800> 600 100<100 200 700 800>
Fore
SplineSet
400 800 m 1x6d
 200 800 l 1
 200 100 l 1
 400 100 l 1
 400 800 l 1x6d
100 900 m 1
 700 900 l 1
 700 700 l 1
 600 700 l 1x3580
 600 800 l 1
 500 800 l 1
 500 500 l 1x2d80
 600 500 l 1
 600 400 l 1x2e
 500 400 l 1
 500 100 l 1
 600 100 l 1x6d80
 600 200 l 1
 700 200 l 1
 700 0 l 1xa580
 100 0 l 1
 100 100 l 1
 0 100 l 1
 0 800 l 1
 100 800 l 1
 100 900 l 1
EndSplineSet
EndChar

StartChar: oe
Encoding: 207 339 207
Width: 900
HStem: 0 100<100 300 400 600> 100 100<600 700> 300 200<600 700> 300 100<400 600> 500 100<100 300 400 600>
VStem: 0 100<100 500> 300 100<100 300 400 500> 600 100<100 200 400 500>
Fore
SplineSet
100 600 m 1x9f
 600 600 l 1x9f
 600 500 l 1x27
 400 500 l 1
 400 400 l 1
 600 400 l 1x1f
 600 500 l 1
 700 500 l 1
 700 300 l 1x27
 400 300 l 1
 400 100 l 1
 600 100 l 1
 600 0 l 1
 100 0 l 1
 100 100 l 1
 300 100 l 1
 300 500 l 1
 100 500 l 1
 100 600 l 1x9f
0 500 m 1
 100 500 l 1
 100 100 l 1x8f
 0 100 l 1x47
 0 500 l 1
600 200 m 1x47
 700 200 l 1
 700 100 l 1x47
 600 100 l 1x87
 600 200 l 1x47
EndSplineSet
EndChar

StartChar: Rcaron
Encoding: 208 344 208
Width: 900
HStem: 0 200<600 700> 0 100<0 100> 200 200<400 500> 300 100<300 400> 700 100<0 100 400 500> 900 200<200 300 400 500> 1000 100<100 200 500 600>
VStem: 100 200<100 300 400 700 1000 1100> 300 100<800 900> 400 200<200 300 1000 1100> 500 200<0 200 400 700>
Fore
SplineSet
500 700 m 1x2920
 300 700 l 1
 300 400 l 1x1920
 500 400 l 1
 500 700 l 1x2920
100 1100 m 1x0b
 300 1100 l 1x0d
 300 1000 l 1
 400 1000 l 1x0b40
 400 1100 l 1x0d40
 600 1100 l 1
 600 1000 l 1x0b40
 500 1000 l 1x0a20
 500 900 l 1
 400 900 l 1
 400 800 l 1x0ca0
 600 800 l 1
 600 700 l 1x0c40
 700 700 l 1
 700 400 l 1x1c20
 600 400 l 1
 600 200 l 1x9c40
 700 200 l 1
 700 0 l 1x9c20
 500 0 l 1
 500 200 l 1x6820
 400 200 l 1x6840
 400 300 l 1
 300 300 l 1x1940
 300 0 l 1x5880
 0 0 l 1
 0 100 l 1
 100 100 l 1
 100 700 l 1x59
 0 700 l 1
 0 800 l 1
 300 800 l 1
 300 900 l 1
 200 900 l 1x5c80
 200 1000 l 1
 100 1000 l 1
 100 1100 l 1x0b
EndSplineSet
EndChar

StartChar: Scircumflex
Encoding: 210 348 210
Width: 900
HStem: 0 100<200 500> 100 200<0 100 600 700> 300 100<400 500> 400 100<200 300> 500 200<0 100 600 700> 700 100<200 500> 880 20G<100 200 500 600> 900 200<300 400> 900 100<200 300 400 500>
VStem: 0 200<100 300 500 700> 100 100<800 900> 300 100<1000 1100> 500 200<100 300 500 700> 500 100<800 900>
Fore
SplineSet
300 1100 m 1x0134
 400 1100 l 1x0134
 400 1000 l 1
 500 1000 l 1x00b4
 500 900 l 1
 200 900 l 1x0234
 200 1000 l 1
 300 1000 l 1x00b4
 300 1100 l 1x0134
100 900 m 1x0a30
 200 900 l 1
 200 800 l 1
 500 800 l 1x0634
 500 900 l 1
 600 900 l 1
 600 700 l 1x0a34
 700 700 l 1
 700 500 l 1
 500 500 l 1x0a18
 500 700 l 1
 200 700 l 1
 200 500 l 1x1458
 400 500 l 1
 400 400 l 1x2858
 600 400 l 1
 600 300 l 1x5054
 700 300 l 1
 700 100 l 1x5018
 600 100 l 1x5014
 600 0 l 1
 100 0 l 1x8034
 100 100 l 1x4034
 0 100 l 1
 0 300 l 1x4050
 200 300 l 1
 200 100 l 1
 500 100 l 1
 500 300 l 1
 300 300 l 1xa058
 300 400 l 1
 100 400 l 1x1038
 100 500 l 1x0838
 0 500 l 1
 0 700 l 1x0850
 100 700 l 1
 100 900 l 1x0a30
EndSplineSet
EndChar

StartChar: Scaron
Encoding: 212 352 212
Width: 900
HStem: 0 100<200 500> 100 200<0 100 600 700> 300 100<400 500> 400 100<200 300> 500 200<0 100 600 700> 700 100<200 300 400 500> 900 200<200 300 400 500> 1000 100<100 200 500 600>
VStem: 0 200<100 300 500 700> 100 200<1000 1100> 300 100<800 900> 400 200<1000 1100> 500 200<100 300 500 700>
Fore
SplineSet
100 1100 m 1x0140
 300 1100 l 1x0240
 300 1000 l 1
 400 1000 l 1x0150
 400 1100 l 1x0250
 600 1100 l 1
 600 1000 l 1x0150
 500 1000 l 1x0108
 500 900 l 1
 400 900 l 1
 400 800 l 1x0628
 600 800 l 1x0610
 600 700 l 1x0810
 700 700 l 1
 700 500 l 1
 500 500 l 1x0808
 500 700 l 1
 200 700 l 1
 200 500 l 1x1488
 400 500 l 1
 400 400 l 1x2890
 600 400 l 1
 600 300 l 1x5090
 700 300 l 1
 700 100 l 1x5008
 600 100 l 1x5010
 600 0 l 1
 100 0 l 1x8050
 100 100 l 1x4050
 0 100 l 1
 0 300 l 1x4080
 200 300 l 1
 200 100 l 1
 500 100 l 1
 500 300 l 1
 300 300 l 1xa0a8
 300 400 l 1x10a8
 100 400 l 1x1040
 100 500 l 1x0840
 0 500 l 1
 0 700 l 1x0880
 100 700 l 1x0840
 100 800 l 1x0440
 300 800 l 1
 300 900 l 1
 200 900 l 1x06a0
 200 1000 l 1x01a0
 100 1000 l 1
 100 1100 l 1x0140
EndSplineSet
EndChar

StartChar: Tcaron
Encoding: 214 356 214
Width: 900
HStem: 0 100<200 300 500 600> 500 300<100 200 600 700> 600 200<200 300 500 600> 900 200<200 300 500 600> 1000 100<100 200 600 700>
VStem: 100 200<1000 1100> 100 100<500 600> 300 200<100 600 800 900> 500 200<1000 1100> 600 100<500 600>
Fore
SplineSet
100 1100 m 1x8c
 300 1100 l 1x94
 300 1000 l 1
 500 1000 l 1x8c80
 500 1100 l 1x9480
 700 1100 l 1
 700 1000 l 1x8c80
 600 1000 l 1x8840
 600 900 l 1
 500 900 l 1
 500 800 l 1xb140
 700 800 l 1
 700 500 l 1
 600 500 l 1xc140
 600 600 l 1
 500 600 l 1
 500 100 l 1
 600 100 l 1
 600 0 l 1
 200 0 l 1
 200 100 l 1
 300 100 l 1
 300 600 l 1
 200 600 l 1xa340
 200 500 l 1
 100 500 l 1
 100 800 l 1xc340
 300 800 l 1
 300 900 l 1
 200 900 l 1xb340
 200 1000 l 1x8b40
 100 1000 l 1
 100 1100 l 1x8c
EndSplineSet
EndChar

StartChar: tcaron
Encoding: 215 357 215
Width: 900
HStem: 0 100<400 500> 100 100<500 600> 500 100<0 200 400 600> 900 200<200 300 400 500> 1000 100<100 200 500 600>
VStem: 100 200<1000 1100> 200 200<100 500 600 700> 300 200<0 100> 300 100<700 900> 400 200<1000 1100> 500 100<100 200>
Fore
SplineSet
500 200 m 1x6020
 600 200 l 1
 600 100 l 1x6020
 500 100 l 1xa1
 500 200 l 1x6020
100 1100 m 1x2c
 300 1100 l 1x34
 300 1000 l 1
 400 1000 l 1x2c40
 400 1100 l 1x3440
 600 1100 l 1
 600 1000 l 1x2c40
 500 1000 l 1x2820
 500 900 l 1
 400 900 l 1x30a0
 400 600 l 1
 600 600 l 1
 600 500 l 1
 400 500 l 1
 400 100 l 1xb220
 500 100 l 1
 500 0 l 1
 300 0 l 1xb1
 300 100 l 1x61
 200 100 l 1
 200 500 l 1
 0 500 l 1
 0 600 l 1
 200 600 l 1
 200 700 l 1x62
 300 700 l 1
 300 900 l 1x7080
 200 900 l 1x72
 200 1000 l 1x2a
 100 1000 l 1
 100 1100 l 1x2c
EndSplineSet
EndChar

StartChar: Ubreve
Encoding: 216 364 216
Width: 900
HStem: 0 100<200 500> 900 100<300 400> 1000 100<100 200 500 600>
VStem: 0 200<100 800> 100 200<1000 1100> 400 200<1000 1100> 500 200<100 800>
Fore
SplineSet
100 1100 m 1xa8
 300 1100 l 1xa8
 300 1000 l 1
 400 1000 l 1xcc
 400 1100 l 1
 600 1100 l 1
 600 1000 l 1xac
 500 1000 l 1xa2
 500 900 l 1
 200 900 l 1xd2
 200 1000 l 1xb2
 100 1000 l 1
 100 1100 l 1xa8
0 800 m 1x90
 200 800 l 1
 200 100 l 1
 500 100 l 1
 500 800 l 1
 700 800 l 1
 700 100 l 1x92
 600 100 l 1
 600 0 l 1
 100 0 l 1
 100 100 l 1x8c
 0 100 l 1
 0 800 l 1x90
EndSplineSet
EndChar

StartChar: Uring
Encoding: 218 366 218
Width: 900
HStem: 0 100<200 500> 800 100<200 500> 900 100<100 200 500 600> 1000 100<200 500>
VStem: 0 200<100 800> 100 100<900 1000> 200 300<800 900 1000 1100> 500 200<100 800> 500 100<900 1000>
Fore
SplineSet
200 1100 m 1x92
 500 1100 l 1x92
 500 1000 l 1xa2
 200 1000 l 1xa4
 200 1100 l 1x92
100 1000 m 1xa4
 200 1000 l 1xa4
 200 900 l 1xc4
 100 900 l 1
 100 1000 l 1xa4
500 1000 m 1xa2
 600 1000 l 1
 600 900 l 1xa080
 500 900 l 1xc2
 500 1000 l 1xa2
200 900 m 1xc4
 500 900 l 1
 500 800 l 1xc2
 200 800 l 1xc8
 200 900 l 1xc4
0 800 m 1xc8
 200 800 l 1
 200 100 l 1
 500 100 l 1xc9
 500 800 l 1xc2
 700 800 l 1
 700 100 l 1xc1
 600 100 l 1
 600 0 l 1
 100 0 l 1
 100 100 l 1xc480
 0 100 l 1
 0 800 l 1xc8
EndSplineSet
EndChar

StartChar: Ydieresis
Encoding: 220 376 220
Width: 900
HStem: 0 100<200 300 500 600> 500 300<100 200 600 700> 900 200<100 300 500 700>
VStem: 100 200<500 800 900 1100> 300 200<100 400> 500 200<500 800 900 1100>
Fore
SplineSet
100 1100 m 1xf0
 300 1100 l 1
 300 900 l 1
 100 900 l 1
 100 1100 l 1xf0
500 1100 m 1xe4
 700 1100 l 1
 700 900 l 1
 500 900 l 1
 500 1100 l 1xe4
100 800 m 1xf0
 300 800 l 1
 300 500 l 1
 500 500 l 1
 500 800 l 1
 700 800 l 1
 700 500 l 1xf4
 600 500 l 1
 600 400 l 1
 500 400 l 1
 500 100 l 1
 600 100 l 1
 600 0 l 1
 200 0 l 1
 200 100 l 1
 300 100 l 1
 300 400 l 1xe8
 200 400 l 1
 200 500 l 1
 100 500 l 1
 100 800 l 1xf0
EndSplineSet
EndChar

StartChar: Zcaron
Encoding: 221 381 221
Width: 900
HStem: 0 300<100 200 600 700> 0 200<0 100 500 600> 0 100<200 500> 200 200<200 300> 300 200<300 400> 400 200<400 500> 500 300<0 100 500 600> 600 200<100 200 600 700> 700 100<200 300 400 500> 900 200<200 300 400 500> 1000 100<100 200 500 600>
VStem: 0 200<100 200 600 700> 0 100<500 600> 100 200<200 300 1000 1100> 200 200<300 400> 300 200<400 500> 300 100<800 900> 400 200<500 600 1000 1100> 500 200<100 200 600 700> 600 100<200 300>
Fore
SplineSet
100 1100 m 1x0024
 300 1100 l 1x0044
 300 1000 l 1
 400 1000 l 1x002440
 400 1100 l 1x004440
 600 1100 l 1
 600 1000 l 1x002440
 500 1000 l 1x002020
 500 900 l 1
 400 900 l 1
 400 800 l 1x00c0a0
 700 800 l 1x010090
 700 600 l 1x010020
 600 600 l 1x010040
 600 500 l 1x020040
 500 500 l 1x0201
 500 400 l 1x0401
 400 400 l 1x0402
 400 300 l 1x0802
 300 300 l 1x0804
 300 200 l 1x1004
 200 200 l 1
 200 100 l 1
 500 100 l 1x301020
 500 200 l 1x401020
 600 200 l 1x400010
 600 300 l 1
 700 300 l 1
 700 0 l 1x800010
 0 0 l 1x400810
 0 200 l 1x4010
 100 200 l 1x4004
 100 300 l 1x8004
 200 300 l 1x8002
 200 400 l 1x1002
 300 400 l 1x1001
 300 500 l 1x0801
 400 500 l 1x080040
 400 600 l 1x040040
 500 600 l 1
 500 700 l 1
 200 700 l 1x049020
 200 600 l 1x011020
 100 600 l 1x0108
 100 500 l 1
 0 500 l 1
 0 800 l 1x0208
 300 800 l 1
 300 900 l 1x00c880
 200 900 l 1x00c2
 200 1000 l 1x0022
 100 1000 l 1
 100 1100 l 1x0024
EndSplineSet
EndChar

StartChar: florin
Encoding: 223 402 223
Width: 900
HStem: -200 100<200 300> -100 100<0 100> 400 100<100 300 500 700> 700 100<700 800> 800 100<500 600>
VStem: 0 200<-100 0> 300 200<-100 400 500 800> 600 200<700 800>
Fore
SplineSet
400 900 m 1xaf
 700 900 l 1xaf
 700 800 l 1
 800 800 l 1
 800 700 l 1
 600 700 l 1x37
 600 800 l 1
 500 800 l 1
 500 500 l 1
 700 500 l 1
 700 400 l 1
 500 400 l 1
 500 -100 l 1
 400 -100 l 1x6f
 400 -200 l 1
 100 -200 l 1xa7
 100 -100 l 1
 0 -100 l 1
 0 0 l 1
 200 0 l 1x67
 200 -100 l 1
 300 -100 l 1
 300 400 l 1
 100 400 l 1
 100 500 l 1
 300 500 l 1
 300 800 l 1
 400 800 l 1
 400 900 l 1xaf
EndSplineSet
EndChar

StartChar: circumflex
Encoding: 224 710 224
Width: 900
HStem: 700 200<200 300 500 600> 700 100<100 200 600 700> 800 200<300 500>
VStem: 100 200<700 800> 300 200<900 1000> 500 200<700 800>
Fore
SplineSet
300 1000 m 1x28
 500 1000 l 1x28
 500 900 l 1
 600 900 l 1x88
 600 800 l 1
 700 800 l 1
 700 700 l 1x44
 500 700 l 1x84
 500 800 l 1
 300 800 l 1x34
 300 700 l 1x94
 100 700 l 1
 100 800 l 1
 200 800 l 1x54
 200 900 l 1
 300 900 l 1x88
 300 1000 l 1x28
EndSplineSet
Colour: f46a4b
EndChar

StartChar: caron
Encoding: 225 711 225
Width: 900
HStem: 700 200<300 500> 800 200<200 300 500 600> 900 100<100 200 600 700>
VStem: 100 200<900 1000> 300 200<700 800> 500 200<900 1000>
Fore
SplineSet
100 1000 m 1x30
 300 1000 l 1x50
 300 900 l 1
 500 900 l 1x94
 500 1000 l 1x54
 700 1000 l 1
 700 900 l 1
 600 900 l 1x34
 600 800 l 1
 500 800 l 1x48
 500 700 l 1
 300 700 l 1x88
 300 800 l 1
 200 800 l 1x48
 200 900 l 1
 100 900 l 1
 100 1000 l 1x30
EndSplineSet
Colour: f46a4b
EndChar

StartChar: breve
Encoding: 226 728 226
Width: 900
HStem: 800 100<300 500> 900 100<100 200 600 700>
VStem: 100 200<900 1000> 500 200<900 1000>
Fore
SplineSet
100 1000 m 1x70
 300 1000 l 1x70
 300 900 l 1
 500 900 l 1xb0
 500 1000 l 1
 700 1000 l 1
 700 900 l 1
 600 900 l 1x70
 600 800 l 1
 200 800 l 1xb0
 200 900 l 1
 100 900 l 1
 100 1000 l 1x70
EndSplineSet
Colour: f46a4b
EndChar

StartChar: ring
Encoding: 227 730 227
Width: 900
HStem: 700 100<300 500> 800 100<200 300 500 600> 900 100<300 500>
VStem: 200 100<800 900> 300 200<700 800 900 1000> 500 100<800 900>
Fore
SplineSet
300 1000 m 1x28
 500 1000 l 1x28
 500 900 l 1x48
 300 900 l 1x50
 300 1000 l 1x28
200 900 m 1x50
 300 900 l 1x50
 300 800 l 1x90
 200 800 l 1
 200 900 l 1x50
500 900 m 1x48
 600 900 l 1
 600 800 l 1x44
 500 800 l 1x88
 500 900 l 1x48
300 800 m 1x90
 500 800 l 1
 500 700 l 1
 300 700 l 1x88
 300 800 l 1x90
EndSplineSet
Colour: f46a4b
EndChar

StartChar: Gamma
Encoding: 229 915 229
Width: 900
HStem: 0 100<0 100 300 400> 700 200<600 700> 800 100<0 100 300 600>
VStem: 100 200<100 800> 600 100<700 800>
Fore
SplineSet
0 900 m 1xb8
 700 900 l 1
 700 700 l 1
 600 700 l 1xd8
 600 800 l 1
 300 800 l 1
 300 100 l 1
 400 100 l 1
 400 0 l 1
 0 0 l 1
 0 100 l 1
 100 100 l 1
 100 800 l 1
 0 800 l 1
 0 900 l 1xb8
EndSplineSet
EndChar

StartChar: Theta
Encoding: 230 920 230
Width: 900
HStem: 0 100<200 500> 400 100<200 500> 800 100<200 500>
VStem: 0 200<100 400 500 800> 500 200<100 400 500 800>
Fore
SplineSet
500 800 m 1
 200 800 l 1
 200 500 l 1
 500 500 l 1
 500 800 l 1
500 400 m 1
 200 400 l 1
 200 100 l 1
 500 100 l 1
 500 400 l 1
100 900 m 1
 600 900 l 1
 600 800 l 1
 700 800 l 1
 700 100 l 1
 600 100 l 1
 600 0 l 1
 100 0 l 1
 100 100 l 1
 0 100 l 1
 0 800 l 1
 100 800 l 1
 100 900 l 1
EndSplineSet
EndChar

StartChar: Sigma
Encoding: 231 931 231
Width: 900
HStem: 0 200<0 100 600 700> 0 100<200 600> 200 200<200 300> 400 100<400 500> 500 200<200 300> 700 200<0 100 600 700> 800 100<200 600>
VStem: 0 200<100 200 700 800> 100 200<200 300 600 700> 200 200<300 400 500 600> 300 200<400 500> 600 100<100 200 700 800>
Fore
SplineSet
0 900 m 1x0510
 700 900 l 1
 700 700 l 1
 600 700 l 1x0510
 600 800 l 1
 200 800 l 1
 200 700 l 1x0b10
 300 700 l 1
 300 600 l 1x0a90
 400 600 l 1
 400 500 l 1x1050
 500 500 l 1
 500 400 l 1x1030
 400 400 l 1
 400 300 l 1x1050
 300 300 l 1
 300 200 l 1x2090
 200 200 l 1
 200 100 l 1
 600 100 l 1x6110
 600 200 l 1
 700 200 l 1
 700 0 l 1
 0 0 l 1
 0 200 l 1x8110
 100 200 l 1
 100 300 l 1x8090
 200 300 l 1
 200 400 l 1x2050
 300 400 l 1
 300 500 l 1x2830
 200 500 l 1
 200 600 l 1x2850
 100 600 l 1
 100 700 l 1x0490
 0 700 l 1
 0 900 l 1x0510
EndSplineSet
EndChar

StartChar: Phi
Encoding: 232 934 232
Width: 900
HStem: 0 100<200 300 400 500> 200 100<200 300 400 500> 300 300<0 100 600 700> 600 100<200 300 400 500> 800 100<200 300 400 500>
VStem: 0 200<300 600> 200 300<0 100 800 900> 300 100<100 200 300 600 700 800> 500 200<300 600>
Fore
SplineSet
300 600 m 1xdd
 200 600 l 1
 200 300 l 1
 300 300 l 1
 300 600 l 1xdd
500 600 m 1xd980
 400 600 l 1
 400 300 l 1
 500 300 l 1
 500 600 l 1xd980
200 900 m 1x9a
 500 900 l 1
 500 800 l 1x9a
 400 800 l 1
 400 700 l 1
 600 700 l 1x99
 600 600 l 1
 700 600 l 1
 700 300 l 1
 600 300 l 1xa980
 600 200 l 1
 400 200 l 1
 400 100 l 1xc980
 500 100 l 1
 500 0 l 1
 200 0 l 1
 200 100 l 1xca
 300 100 l 1
 300 200 l 1
 100 200 l 1xc9
 100 300 l 1
 0 300 l 1
 0 600 l 1
 100 600 l 1xad
 100 700 l 1
 300 700 l 1
 300 800 l 1x9d
 200 800 l 1
 200 900 l 1x9a
EndSplineSet
EndChar

StartChar: uni03A9
Encoding: 233 937 233
Width: 900
HStem: 0 300<200 300 400 500> 0 100<0 200 500 700> 800 100<200 500>
VStem: 0 200<300 800> 100 200<200 300> 200 100<100 200> 400 200<200 300> 400 100<100 200> 500 200<300 800>
Fore
SplineSet
100 900 m 1xa8
 600 900 l 1
 600 800 l 1xaa
 700 800 l 1
 700 300 l 1xa080
 600 300 l 1
 600 200 l 1xa2
 500 200 l 1
 500 100 l 1x61
 700 100 l 1
 700 0 l 1x6080
 400 0 l 1xa1
 400 300 l 1xa2
 500 300 l 1
 500 800 l 1
 200 800 l 1
 200 300 l 1xb080
 300 300 l 1xa8
 300 0 l 1xa4
 0 0 l 1
 0 100 l 1x70
 200 100 l 1
 200 200 l 1x64
 100 200 l 1
 100 300 l 1xa8
 0 300 l 1
 0 800 l 1xb0
 100 800 l 1
 100 900 l 1xa8
EndSplineSet
EndChar

StartChar: alpha
Encoding: 234 945 234
Width: 900
HStem: 0 200<300 400 600 700> 0 100<200 300 700 800> 500 100<200 400 600 700>
VStem: 0 200<100 500> 100 300<0 100 500 600> 400 200<200 500> 500 200<500 600> 600 200<0 100>
Fore
SplineSet
100 600 m 1x68
 400 600 l 1
 400 500 l 1x68
 200 500 l 1
 200 100 l 1
 300 100 l 1x70
 300 200 l 1
 400 200 l 1xb4
 400 500 l 1
 500 500 l 1
 500 600 l 1
 700 600 l 1
 700 500 l 1xaa
 600 500 l 1
 600 200 l 1xa4
 700 200 l 1xa2
 700 100 l 1x62
 800 100 l 1
 800 0 l 1x61
 600 0 l 1xa1
 600 100 l 1
 400 100 l 1x69
 400 0 l 1xa9
 100 0 l 1
 100 100 l 1x69
 0 100 l 1
 0 500 l 1x70
 100 500 l 1
 100 600 l 1x68
EndSplineSet
EndChar

StartChar: delta
Encoding: 235 948 235
Width: 900
HStem: 0 100<200 400> 400 100<200 300> 700 100<100 200 600 700> 800 100<300 600>
VStem: 0 200<100 400> 100 200<700 800> 200 200<600 700> 300 200<500 600> 400 200<100 400> 600 100<700 800>
Fore
SplineSet
400 400 m 1xc880
 200 400 l 1
 200 100 l 1
 400 100 l 1
 400 400 l 1xc880
200 900 m 1xd2
 600 900 l 1xd240
 600 800 l 1xe240
 300 800 l 1xd440
 300 700 l 1xe440
 400 700 l 1
 400 600 l 1xe2
 500 600 l 1
 500 500 l 1
 600 500 l 1xe140
 600 100 l 1xe080
 500 100 l 1
 500 0 l 1xe1
 100 0 l 1
 100 100 l 1xe4
 0 100 l 1
 0 400 l 1xe8
 100 400 l 1
 100 500 l 1xe4
 300 500 l 1
 300 600 l 1xe1
 200 600 l 1
 200 700 l 1xe2
 100 700 l 1
 100 800 l 1xe4
 200 800 l 1xe2
 200 900 l 1xd2
600 800 m 1xe040
 700 800 l 1
 700 700 l 1
 600 700 l 1
 600 800 l 1xe040
EndSplineSet
EndChar

StartChar: epsilon
Encoding: 236 949 236
Width: 900
HStem: 0 200<200 300> 0 100<300 600> 300 100<200 500> 500 200<200 300> 600 100<300 600>
VStem: 0 200<200 300 400 500> 100 200<100 200 500 600>
Fore
SplineSet
200 700 m 1x34
 600 700 l 1
 600 600 l 1
 300 600 l 1x2a
 300 500 l 1x32
 200 500 l 1
 200 400 l 1
 500 400 l 1
 500 300 l 1
 200 300 l 1
 200 200 l 1xb4
 300 200 l 1xb2
 300 100 l 1
 600 100 l 1
 600 0 l 1x62
 200 0 l 1xa4
 200 100 l 1x64
 100 100 l 1x62
 100 200 l 1xa2
 0 200 l 1
 0 500 l 1xb4
 100 500 l 1xb2
 100 600 l 1x2a
 200 600 l 1x2c
 200 700 l 1x34
EndSplineSet
EndChar

StartChar: pi
Encoding: 237 960 237
Width: 900
HStem: 0 21G<100 200 400 500> 400 100<0 100> 500 200<600 700> 500 100<300 400>
VStem: 100 200<100 400> 100 100<0 100> 400 200<100 500> 400 100<0 100> 600 100<600 700>
Fore
SplineSet
100 600 m 1x94
 600 600 l 1x9480
 600 700 l 1
 700 700 l 1
 700 500 l 1xa480
 600 500 l 1
 600 100 l 1xa2
 500 100 l 1
 500 0 l 1
 400 0 l 1xa1
 400 500 l 1
 300 500 l 1
 300 100 l 1x9a
 200 100 l 1
 200 0 l 1
 100 0 l 1x94
 100 400 l 1xc8
 0 400 l 1
 0 500 l 1
 100 500 l 1xc4
 100 600 l 1x94
EndSplineSet
EndChar

StartChar: sigma
Encoding: 238 963 238
Width: 900
HStem: 0 100<200 400> 400 200<300 400> 500 100<200 300 400 700>
VStem: 0 200<100 500> 300 100<400 500> 400 100<100 400>
Fore
SplineSet
100 600 m 1xb4
 700 600 l 1
 700 500 l 1
 400 500 l 1xb8
 400 400 l 1
 300 400 l 1xd8
 300 500 l 1xb8
 200 500 l 1
 200 100 l 1
 400 100 l 1
 400 0 l 1
 100 0 l 1
 100 100 l 1
 0 100 l 1
 0 500 l 1
 100 500 l 1
 100 600 l 1xb4
400 400 m 1xd8
 500 400 l 1
 500 100 l 1
 400 100 l 1xd4
 400 400 l 1xd8
EndSplineSet
EndChar

StartChar: tau
Encoding: 239 964 239
Width: 900
HStem: 0 21G<300 400> 400 100<0 100> 500 100<200 300 500 700>
VStem: 0 200<400 500> 300 200<100 500> 300 100<0 100>
Fore
SplineSet
100 600 m 1xb8
 700 600 l 1
 700 500 l 1
 500 500 l 1
 500 100 l 1xb8
 400 100 l 1
 400 0 l 1
 300 0 l 1xb4
 300 500 l 1
 200 500 l 1xb8
 200 400 l 1
 0 400 l 1
 0 500 l 1
 100 500 l 1xd8
 100 600 l 1xb8
EndSplineSet
EndChar

StartChar: phi
Encoding: 240 966 240
Width: 900
HStem: -200 100<0 100> 0 200<200 300> 0 100<300 500> 100 300<0 100 600 700> 200 100<300 400> 300 200<400 500> 400 100<200 400> 580 20G<500 600> 600 100<600 700>
VStem: 0 100<-200 -100> 100 100<-100 0> 300 100<200 300> 500 100<500 600> 600 100<600 700>
Fore
SplineSet
300 300 m 1x8810
 400 300 l 1
 400 200 l 1x8810
 300 200 l 1xc010
 300 300 l 1x8810
400 400 m 1x8a38
 200 400 l 1
 200 200 l 1
 300 200 l 1xc238
 300 100 l 1
 500 100 l 1
 500 300 l 1xa438
 400 300 l 1
 400 400 l 1x8a38
600 700 m 1x8094
 700 700 l 1
 700 600 l 1x8094
 600 600 l 1x8118
 600 700 l 1x8094
500 600 m 1x8538
 600 600 l 1x8538
 600 400 l 1
 700 400 l 1
 700 100 l 1
 600 100 l 1x9114
 600 0 l 1xa014
 200 0 l 1
 200 -100 l 1xc034
 100 -100 l 1xc050
 100 100 l 1x9030
 0 100 l 1
 0 400 l 1x9050
 100 400 l 1x9030
 100 500 l 1x8230
 500 500 l 1
 500 600 l 1x8538
0 -100 m 1x8050
 100 -100 l 1
 100 -200 l 1
 0 -200 l 1
 0 -100 l 1x8050
EndSplineSet
EndChar

StartChar: quoteleft
Encoding: 243 8216 243
Width: 900
HStem: 600 200<400 500> 880 20G<300 400> 900 100<400 500>
VStem: 300 100<800 900> 400 100<900 1000>
Fore
SplineSet
400 1000 m 1xa8
 500 1000 l 1
 500 900 l 1xa8
 400 900 l 1xd0
 400 1000 l 1xa8
300 900 m 1xd0
 400 900 l 1
 400 800 l 1xd0
 500 800 l 1
 500 600 l 1xc8
 300 600 l 1
 300 900 l 1xd0
EndSplineSet
Colour: f46a4b
EndChar

StartChar: quoteright
Encoding: 244 8217 244
Width: 900
HStem: 600 100<300 400> 800 200<300 400>
VStem: 300 100<600 700> 400 100<700 800>
Fore
SplineSet
300 1000 m 1xe0
 500 1000 l 1
 500 700 l 1xd0
 400 700 l 1xe0
 400 800 l 1xd0
 300 800 l 1
 300 1000 l 1xe0
300 700 m 1xe0
 400 700 l 1
 400 600 l 1
 300 600 l 1
 300 700 l 1xe0
EndSplineSet
Colour: f46a4b
EndChar

StartChar: dagger
Encoding: 249 8224 249
Width: 900
HStem: 0 21G<300 500> 600 100<100 300 500 700> 880 20G<300 500>
VStem: 300 200<0 600 700 900>
Fore
SplineSet
300 900 m 1
 500 900 l 1
 500 700 l 1
 700 700 l 1
 700 600 l 1
 500 600 l 1
 500 0 l 1
 300 0 l 1
 300 600 l 1
 100 600 l 1
 100 700 l 1
 300 700 l 1
 300 900 l 1
EndSplineSet
EndChar

StartChar: daggerdbl
Encoding: 250 8225 250
Width: 900
HStem: 0 21G<300 500> 200 100<100 300 500 700> 600 100<100 300 500 700> 880 20G<300 500>
VStem: 300 200<0 200 300 600 700 900>
Fore
SplineSet
300 900 m 1
 500 900 l 1
 500 700 l 1
 700 700 l 1
 700 600 l 1
 500 600 l 1
 500 300 l 1
 700 300 l 1
 700 200 l 1
 500 200 l 1
 500 0 l 1
 300 0 l 1
 300 200 l 1
 100 200 l 1
 100 300 l 1
 300 300 l 1
 300 600 l 1
 100 600 l 1
 100 700 l 1
 300 700 l 1
 300 900 l 1
EndSplineSet
EndChar

StartChar: bullet
Encoding: 251 8226 251
Width: 900
HStem: 300 200<200 300 500 600> 580 20G<300 500>
VStem: 300 200<200 300 500 600>
Fore
SplineSet
300 600 m 1
 500 600 l 1
 500 500 l 1
 600 500 l 1
 600 300 l 1
 500 300 l 1
 500 200 l 1
 300 200 l 1
 300 300 l 1
 200 300 l 1
 200 500 l 1
 300 500 l 1
 300 600 l 1
EndSplineSet
EndChar

StartChar: perthousand
Encoding: 253 8240 253
Width: 900
HStem: 0 100<300 400 500 600> 100 200<200 300 400 500 600 700> 200 100<0 100> 300 100<100 200 300 400 500 600> 400 100<200 300> 500 100<100 200 300 400> 600 100<400 500> 700 100<500 600> 800 100<100 200>
VStem: 0 100<200 300 600 800> 100 100<300 400 500 600 800 900> 200 100<100 300 400 500 600 800> 300 100<0 100 300 400 500 600> 400 100<100 300 600 700> 500 100<0 100 300 400 700 800> 600 100<100 300>
Fore
SplineSet
100 900 m 1x00a0
 200 900 l 1
 200 800 l 1x00a0
 100 800 l 1x00c0
 100 900 l 1x00a0
0 800 m 1x02c0
 100 800 l 1
 100 600 l 1x04c0
 0 600 l 1
 0 800 l 1x02c0
200 800 m 1x04a0
 300 800 l 1
 300 600 l 1x0490
 200 600 l 1
 200 800 l 1x04a0
100 600 m 1x0440
 200 600 l 1x0420
 200 500 l 1x0820
 100 500 l 1x0420
 100 600 l 1x0440
500 800 m 1x0102
 600 800 l 1
 600 700 l 1x0102
 500 700 l 1x0204
 500 800 l 1x0102
400 700 m 1x0204
 500 700 l 1
 500 600 l 1x0204
 400 600 l 1x0408
 400 700 l 1x0204
300 600 m 1x0410
 400 600 l 1
 400 500 l 1x0408
 300 500 l 1x0810
 300 600 l 1x0410
200 500 m 1x0820
 300 500 l 1x0810
 300 400 l 1x1010
 200 400 l 1x1020
 200 500 l 1x0820
100 400 m 1x1020
 200 400 l 1x1020
 200 300 l 1x4020
 100 300 l 1x2040
 100 400 l 1x1020
0 300 m 1x2040
 100 300 l 1
 100 200 l 1
 0 200 l 1
 0 300 l 1x2040
300 400 m 1x1010
 400 400 l 1x1008
 400 300 l 1x4008
 300 300 l 1x4010
 300 400 l 1x1010
500 400 m 1x1002
 600 400 l 1x1002
 600 300 l 1x4002
 500 300 l 1x4004
 500 400 l 1x1002
200 300 m 1x4020
 300 300 l 1x4010
 300 100 l 1x8010
 200 100 l 1x4010
 200 300 l 1x4020
400 300 m 1x4008
 500 300 l 1x4004
 500 100 l 1x8004
 400 100 l 1x8008
 400 300 l 1x4008
600 300 m 1x4002
 700 300 l 1
 700 100 l 1x4001
 600 100 l 1x8002
 600 300 l 1x4002
300 100 m 1x8010
 400 100 l 1
 400 0 l 1
 300 0 l 1x8008
 300 100 l 1x8010
500 100 m 1x8004
 600 100 l 1
 600 0 l 1
 500 0 l 1x8002
 500 100 l 1x8004
EndSplineSet
EndChar

StartChar: guilsinglleft
Encoding: 254 8249 254
Width: 900
HStem: 200 200<400 500> 200 100<500 600> 400 100<200 300> 500 200<400 500> 600 100<500 600>
VStem: 200 200<400 500> 300 200<300 400 500 600> 400 200<200 300 600 700>
Fore
SplineSet
400 700 m 1x11
 600 700 l 1
 600 600 l 1x09
 500 600 l 1x0a
 500 500 l 1x12
 400 500 l 1
 400 400 l 1x94
 500 400 l 1x92
 500 300 l 1x42
 600 300 l 1
 600 200 l 1x41
 400 200 l 1x81
 400 300 l 1x41
 300 300 l 1
 300 400 l 1x62
 200 400 l 1
 200 500 l 1x64
 300 500 l 1
 300 600 l 1x6a
 400 600 l 1x69
 400 700 l 1x11
EndSplineSet
Colour: f46a4b
EndChar

StartChar: guilsinglright
Encoding: 255 8250 255
Width: 900
HStem: 200 200<300 400> 200 100<200 300> 400 100<500 600> 500 200<300 400> 600 100<200 300>
VStem: 200 200<200 300 600 700> 300 200<300 400 500 600> 400 200<400 500>
Fore
SplineSet
200 700 m 1x0c
 400 700 l 1x14
 400 600 l 1x0c
 500 600 l 1
 500 500 l 1x2a
 600 500 l 1
 600 400 l 1x29
 500 400 l 1
 500 300 l 1x6a
 400 300 l 1x6c
 400 200 l 1x84
 200 200 l 1
 200 300 l 1x44
 300 300 l 1x42
 300 400 l 1x82
 400 400 l 1
 400 500 l 1x91
 300 500 l 1x92
 300 600 l 1x0a
 200 600 l 1
 200 700 l 1x0c
EndSplineSet
Colour: f46a4b
EndChar

StartChar: exclamdbl
Encoding: 256 8252 256
Width: 900
HStem: 0 200<100 300 500 700> 880 20G<100 300 500 700>
VStem: 100 200<0 200 300 900> 500 200<0 200 300 900>
Fore
SplineSet
100 900 m 1
 300 900 l 1
 300 300 l 1
 100 300 l 1
 100 900 l 1
100 200 m 1
 300 200 l 1
 300 0 l 1
 100 0 l 1
 100 200 l 1
500 900 m 1
 700 900 l 1
 700 300 l 1
 500 300 l 1
 500 900 l 1
500 200 m 1
 700 200 l 1
 700 0 l 1
 500 0 l 1
 500 200 l 1
EndSplineSet
EndChar

StartChar: uni207F
Encoding: 257 8319 257
Width: 900
HStem: 900 100<0 100 300 400>
VStem: 0 200<900 1000> 100 200<500 900> 300 200<900 1000> 400 200<500 900>
Fore
SplineSet
0 1000 m 1xc0
 200 1000 l 1
 200 900 l 1xc0
 300 900 l 1
 300 500 l 1
 100 500 l 1
 100 900 l 1xa0
 0 900 l 1
 0 1000 l 1xc0
300 1000 m 1x90
 500 1000 l 1
 500 900 l 1x90
 600 900 l 1
 600 500 l 1
 400 500 l 1
 400 900 l 1
 300 900 l 1xa8
 300 1000 l 1x90
EndSplineSet
EndChar

StartChar: peseta
Encoding: 258 8359 258
Width: 900
HStem: 0 100<600 700> 200 100<300 400 600 700> 500 100<200 400> 600 200<500 600> 800 100<200 400>
VStem: 0 200<0 500 600 800> 400 200<100 200 300 400 600 800> 500 200<0 100> 500 100<400 500>
Fore
SplineSet
400 800 m 1xee
 200 800 l 1
 200 600 l 1
 400 600 l 1
 400 800 l 1xee
0 900 m 1
 500 900 l 1xec80
 500 800 l 1xd480
 600 800 l 1
 600 600 l 1xd6
 500 600 l 1xd480
 500 500 l 1xe480
 200 500 l 1
 200 0 l 1
 0 0 l 1
 0 900 l 1
500 500 m 1
 600 500 l 1xe480
 600 300 l 1xe6
 700 300 l 1
 700 200 l 1xe5
 600 200 l 1
 600 100 l 1xe6
 700 100 l 1
 700 0 l 1
 500 0 l 1
 500 100 l 1xe5
 400 100 l 1
 400 200 l 1
 300 200 l 1
 300 300 l 1
 400 300 l 1
 400 400 l 1xe6
 500 400 l 1
 500 500 l 1
EndSplineSet
EndChar

StartChar: Euro
Encoding: 259 8364 259
Width: 900
HStem: 0 100<300 500> 100 200<600 700> 300 100<0 100 300 400> 500 100<0 100 300 500> 600 200<600 700> 800 100<300 500>
VStem: 100 200<100 300 400 500 600 800> 500 200<100 300 600 800>
Fore
SplineSet
200 900 m 1x37
 600 900 l 1x37
 600 800 l 1
 700 800 l 1
 700 600 l 1x0b
 500 600 l 1
 500 800 l 1
 300 800 l 1
 300 600 l 1
 500 600 l 1
 500 500 l 1
 300 500 l 1
 300 400 l 1
 400 400 l 1
 400 300 l 1
 300 300 l 1
 300 100 l 1
 500 100 l 1
 500 300 l 1xb7
 700 300 l 1
 700 100 l 1
 600 100 l 1x43
 600 0 l 1
 200 0 l 1x83
 200 100 l 1
 100 100 l 1x43
 100 300 l 1
 0 300 l 1
 0 400 l 1
 100 400 l 1
 100 500 l 1
 0 500 l 1
 0 600 l 1
 100 600 l 1
 100 800 l 1
 200 800 l 1
 200 900 l 1x37
EndSplineSet
EndChar

StartChar: uni20B1
Encoding: 260 8369 260
Width: 900
HStem: 0 100<0 100 300 400> 400 100<300 500> 600 100<0 100 300 500 700 800> 800 100<0 100 300 500>
VStem: 100 200<100 400 500 600 700 800> 500 200<500 600 700 800>
Fore
SplineSet
500 800 m 1
 300 800 l 1
 300 700 l 1
 500 700 l 1
 500 800 l 1
500 600 m 1
 300 600 l 1
 300 500 l 1
 500 500 l 1
 500 600 l 1
0 900 m 1
 600 900 l 1
 600 800 l 1
 700 800 l 1
 700 700 l 1
 800 700 l 1
 800 600 l 1
 700 600 l 1
 700 500 l 1
 600 500 l 1
 600 400 l 1
 300 400 l 1
 300 100 l 1
 400 100 l 1
 400 0 l 1
 0 0 l 1
 0 100 l 1
 100 100 l 1
 100 600 l 1
 0 600 l 1
 0 700 l 1
 100 700 l 1
 100 800 l 1
 0 800 l 1
 0 900 l 1
EndSplineSet
EndChar

StartChar: uni20B7
Encoding: 261 8375 261
Width: 900
HStem: 0 300<200 300 400 500> 0 100<100 200 300 400> 300 100<100 200> 400 100<400 500> 500 100<200 300> 600 200<0 100 600 700> 800 100<200 500>
VStem: 0 200<300 400 600 800> 0 100<100 300> 300 100<300 400> 400 300<100 300> 500 200<300 400 600 800>
Fore
SplineSet
100 900 m 1x0280
 600 900 l 1x0280
 600 800 l 1
 700 800 l 1
 700 600 l 1
 500 600 l 1x0490
 500 800 l 1
 200 800 l 1
 200 600 l 1x0b10
 400 600 l 1
 400 500 l 1x1520
 600 500 l 1x0920
 600 400 l 1
 700 400 l 1x1010
 700 100 l 1
 600 100 l 1
 600 0 l 1
 0 0 l 1x50a0
 0 400 l 1x51
 200 400 l 1x21
 200 300 l 1x81
 100 300 l 1
 100 100 l 1x6080
 200 100 l 1x61
 200 300 l 1
 300 300 l 1x8140
 300 100 l 1x4140
 400 100 l 1x4020
 400 300 l 1
 500 300 l 1
 500 400 l 1
 400 400 l 1x9050
 400 300 l 1
 300 300 l 1
 300 500 l 1
 100 500 l 1x88d0
 100 600 l 1x04d0
 0 600 l 1
 0 800 l 1x05
 100 800 l 1x0480
 100 900 l 1x0280
EndSplineSet
EndChar

StartChar: uni2117
Encoding: 262 8471 262
Width: 900
HStem: 0 100<200 600> 100 100<100 200 600 700> 500 100<500 600> 600 100<301 500> 700 100<100 200 600 700> 800 100<200 600>
VStem: 0 100<200 700> 100 100<100 200 700 800> 200 300<400 500 600 700> 200 100<200 400 500 600> 500 100<500 600> 600 100<100 200 700 800> 700 100<200 700>
Fore
SplineSet
200 700 m 1x69
 500 700 l 1x1080
 500 600 l 1x2080
 301 600 l 1x1080
 300 500 l 1x2040
 500 500 l 1
 500 400 l 1x2080
 300 400 l 1
 300 200 l 1x6040
 200 200 l 1
 200 700 l 1x69
500 600 m 1x2080
 600 600 l 1
 600 500 l 1x2020
 500 500 l 1
 500 600 l 1x2080
200 900 m 1x0440
 600 900 l 1x0450
 600 800 l 1
 200 800 l 1x0910
 200 900 l 1x0440
100 800 m 1x09
 200 800 l 1
 200 700 l 1x09
 100 700 l 1x0a
 100 800 l 1x09
600 800 m 1x0810
 700 800 l 1
 700 700 l 1
 600 700 l 1
 600 800 l 1x0810
0 700 m 1x4a
 100 700 l 1
 100 200 l 1
 0 200 l 1
 0 700 l 1x4a
700 700 m 1x4810
 800 700 l 1
 800 200 l 1x4808
 700 200 l 1
 700 700 l 1x4810
100 200 m 1x42
 200 200 l 1x41
 200 100 l 1x81
 100 100 l 1x41
 100 200 l 1x42
600 200 m 1x4010
 700 200 l 1
 700 100 l 1x4010
 600 100 l 1x8010
 600 200 l 1x4010
200 100 m 1x81
 600 100 l 1
 600 0 l 1
 200 0 l 1x8050
 200 100 l 1x81
EndSplineSet
EndChar

StartChar: trademark
Encoding: 263 8482 263
Width: 900
HStem: 600 200<500 600> 800 100<400 500 600 700> 900 100<0 100 200 300>
VStem: 100 100<500 900> 300 200<800 900> 300 100<500 800> 500 100<600 800> 600 200<800 900> 700 100<500 800 900 1000>
Fore
SplineSet
0 1000 m 1x38
 400 1000 l 1x34
 400 900 l 1x54
 500 900 l 1x58
 500 800 l 1x98
 400 800 l 1
 400 500 l 1
 300 500 l 1x54
 300 900 l 1
 200 900 l 1
 200 500 l 1
 100 500 l 1
 100 900 l 1
 0 900 l 1
 0 1000 l 1x38
700 1000 m 1x3080
 800 1000 l 1x3080
 800 500 l 1
 700 500 l 1
 700 800 l 1x5080
 600 800 l 1x9280
 600 900 l 1x51
 700 900 l 1x5080
 700 1000 l 1x3080
500 800 m 1x98
 600 800 l 1
 600 600 l 1
 500 600 l 1x92
 500 800 l 1x98
EndSplineSet
EndChar

StartChar: arrowleft
Encoding: 264 8592 264
Width: 900
HStem: 100 200<300 400> 400 100<0 100 300 700> 600 200<300 400>
VStem: 100 200<300 400 500 600> 200 200<200 300 600 700> 300 100<100 200 700 800>
Fore
SplineSet
300 800 m 1xe4
 400 800 l 1xe4
 400 600 l 1xe8
 300 600 l 1
 300 500 l 1
 700 500 l 1
 700 400 l 1
 300 400 l 1
 300 300 l 1xf0
 400 300 l 1xe8
 400 100 l 1
 300 100 l 1
 300 200 l 1xe4
 200 200 l 1
 200 300 l 1xe8
 100 300 l 1
 100 400 l 1
 0 400 l 1
 0 500 l 1
 100 500 l 1
 100 600 l 1xf0
 200 600 l 1
 200 700 l 1xe8
 300 700 l 1
 300 800 l 1xe4
EndSplineSet
EndChar

StartChar: arrowup
Encoding: 265 8593 265
Width: 900
HStem: 0 21G<300 400> 500 200<100 200 500 600> 500 100<0 100 600 700> 600 200<200 300 400 500> 880 20G<300 400>
VStem: 0 200<500 600> 300 100<0 600 800 900> 500 200<500 600>
Fore
SplineSet
300 900 m 1x9f
 400 900 l 1
 400 800 l 1
 500 800 l 1x9f
 500 700 l 1
 600 700 l 1xcf
 600 600 l 1
 700 600 l 1
 700 500 l 1xaf
 500 500 l 1xcf
 500 600 l 1
 400 600 l 1
 400 0 l 1
 300 0 l 1
 300 600 l 1
 200 600 l 1x9f
 200 500 l 1xcf
 0 500 l 1
 0 600 l 1
 100 600 l 1xaf
 100 700 l 1
 200 700 l 1xcf
 200 800 l 1
 300 800 l 1
 300 900 l 1x9f
EndSplineSet
EndChar

StartChar: arrowright
Encoding: 266 8594 266
Width: 900
HStem: 100 200<300 400> 400 100<0 400 600 700> 600 200<300 400>
VStem: 300 200<200 300 600 700> 300 100<100 200 700 800> 400 200<300 400 500 600>
Fore
SplineSet
300 800 m 1xe8
 400 800 l 1
 400 700 l 1xe8
 500 700 l 1
 500 600 l 1xf0
 600 600 l 1
 600 500 l 1
 700 500 l 1
 700 400 l 1
 600 400 l 1
 600 300 l 1xe4
 500 300 l 1
 500 200 l 1xf0
 400 200 l 1
 400 100 l 1
 300 100 l 1xe8
 300 300 l 1xf0
 400 300 l 1
 400 400 l 1
 0 400 l 1
 0 500 l 1
 400 500 l 1
 400 600 l 1xe4
 300 600 l 1xf0
 300 800 l 1xe8
EndSplineSet
EndChar

StartChar: arrowdown
Encoding: 267 8595 267
Width: 900
HStem: 0 21G<300 400> 100 200<200 300 400 500> 200 200<100 200 500 600> 300 100<0 100 600 700> 880 20G<300 400>
VStem: 0 200<300 400> 300 100<0 100 300 900> 500 200<300 400>
Fore
SplineSet
300 900 m 1xcf
 400 900 l 1
 400 300 l 1
 500 300 l 1xcf
 500 400 l 1xaf
 700 400 l 1
 700 300 l 1
 600 300 l 1x9f
 600 200 l 1
 500 200 l 1xaf
 500 100 l 1
 400 100 l 1
 400 0 l 1
 300 0 l 1
 300 100 l 1
 200 100 l 1xcf
 200 200 l 1
 100 200 l 1xaf
 100 300 l 1
 0 300 l 1
 0 400 l 1x9f
 200 400 l 1xaf
 200 300 l 1
 300 300 l 1
 300 900 l 1xcf
EndSplineSet
EndChar

StartChar: arrowboth
Encoding: 268 8596 268
Width: 900
HStem: 200 100<200 300 500 600> 300 300<100 200 600 700> 400 100<0 100 200 600 700 800> 600 100<200 300 500 600>
VStem: 100 100<300 400 500 600> 200 100<200 300 600 700> 500 100<200 300 600 700> 600 100<300 400 500 600>
Fore
SplineSet
200 700 m 1x14
 300 700 l 1
 300 600 l 1x14
 200 600 l 1x48
 200 700 l 1x14
500 700 m 1x12
 600 700 l 1x12
 600 600 l 1x42
 500 600 l 1
 500 700 l 1x12
100 600 m 1x49
 200 600 l 1x49
 200 500 l 1
 600 500 l 1x29
 600 600 l 1x42
 700 600 l 1x41
 700 500 l 1
 800 500 l 1
 800 400 l 1
 700 400 l 1x21
 700 300 l 1x41
 600 300 l 1x82
 600 400 l 1
 200 400 l 1
 200 300 l 1xa9
 100 300 l 1x49
 100 400 l 1
 0 400 l 1
 0 500 l 1
 100 500 l 1x29
 100 600 l 1x49
200 300 m 1x88
 300 300 l 1
 300 200 l 1
 200 200 l 1x84
 200 300 l 1x88
500 300 m 1x82
 600 300 l 1
 600 200 l 1
 500 200 l 1
 500 300 l 1x82
EndSplineSet
EndChar

StartChar: arrowupdn
Encoding: 269 8597 269
Width: 900
HStem: 0 21G<300 400> 100 200<200 300 400 500> 200 200<100 200 500 600> 300 100<0 100 600 700> 500 200<100 200 500 600> 500 100<0 100 600 700> 600 200<200 300 400 500> 880 20G<300 400>
VStem: 0 200<300 400 500 600> 200 300<100 200 700 800> 300 100<0 100 300 600 800 900> 500 200<300 400 500 600>
Fore
SplineSet
300 900 m 1x8320
 400 900 l 1
 400 800 l 1x8320
 500 800 l 1x8340
 500 700 l 1
 600 700 l 1x8940
 600 600 l 1
 700 600 l 1
 700 500 l 1x8510
 500 500 l 1x8910
 500 600 l 1
 400 600 l 1
 400 300 l 1
 500 300 l 1xc330
 500 400 l 1xa130
 700 400 l 1
 700 300 l 1
 600 300 l 1x9130
 600 200 l 1
 500 200 l 1xa140
 500 100 l 1xc140
 400 100 l 1
 400 0 l 1
 300 0 l 1
 300 100 l 1xc120
 200 100 l 1xc140
 200 200 l 1
 100 200 l 1xa140
 100 300 l 1
 0 300 l 1
 0 400 l 1x9180
 200 400 l 1xa180
 200 300 l 1
 300 300 l 1
 300 600 l 1
 200 600 l 1xc3a0
 200 500 l 1x89a0
 0 500 l 1
 0 600 l 1
 100 600 l 1x85a0
 100 700 l 1
 200 700 l 1x8940
 200 800 l 1x8340
 300 800 l 1
 300 900 l 1x8320
EndSplineSet
EndChar

StartChar: arrowupdnbse
Encoding: 270 8616 270
Width: 900
HStem: -100 100<0 300 400 700> 100 200<200 300 400 500> 200 200<100 200 500 600> 300 100<0 100 600 700> 500 200<100 200 500 600> 500 100<0 100 600 700> 600 200<200 300 400 500> 880 20G<300 400>
VStem: 0 200<300 400 500 600> 200 300<100 200 700 800> 300 100<0 100 300 600 800 900> 500 200<300 400 500 600>
Fore
SplineSet
300 900 m 1x8320
 400 900 l 1
 400 800 l 1x8320
 500 800 l 1x8340
 500 700 l 1
 600 700 l 1x8940
 600 600 l 1
 700 600 l 1
 700 500 l 1x8510
 500 500 l 1x8910
 500 600 l 1
 400 600 l 1
 400 300 l 1
 500 300 l 1xc330
 500 400 l 1xa130
 700 400 l 1
 700 300 l 1
 600 300 l 1x9130
 600 200 l 1
 500 200 l 1xa140
 500 100 l 1xc140
 400 100 l 1
 400 0 l 1
 700 0 l 1
 700 -100 l 1
 0 -100 l 1
 0 0 l 1
 300 0 l 1
 300 100 l 1xc1b0
 200 100 l 1xc140
 200 200 l 1
 100 200 l 1xa140
 100 300 l 1
 0 300 l 1
 0 400 l 1x9180
 200 400 l 1xa180
 200 300 l 1
 300 300 l 1
 300 600 l 1
 200 600 l 1xc3a0
 200 500 l 1x89a0
 0 500 l 1
 0 600 l 1
 100 600 l 1x85a0
 100 700 l 1
 200 700 l 1x8940
 200 800 l 1x8340
 300 800 l 1
 300 900 l 1x8320
EndSplineSet
EndChar

StartChar: radical
Encoding: 272 8730 272
Width: 900
HStem: 0 200<300 400> 200 200<100 200> 300 100<0 100> 900 100<600 800>
VStem: 100 200<200 300> 400 200<200 900>
Fore
SplineSet
400 1000 m 1xbc
 800 1000 l 1
 800 900 l 1
 600 900 l 1
 600 0 l 1
 300 0 l 1xbc
 300 100 l 1
 200 100 l 1
 200 200 l 1
 100 200 l 1x5c
 100 300 l 1
 0 300 l 1
 0 400 l 1
 300 400 l 1
 300 200 l 1
 400 200 l 1
 400 1000 l 1xbc
EndSplineSet
EndChar

StartChar: infinity
Encoding: 273 8734 273
Width: 900
HStem: 200 100<200 300 500 600> 300 300<0 100 700 800> 600 100<200 300 500 600>
VStem: 0 200<300 600> 100 200<600 700> 300 200<300 600> 500 200<200 300> 600 200<300 600>
Fore
SplineSet
100 700 m 1x28
 300 700 l 1
 300 600 l 1x28
 200 600 l 1
 200 300 l 1
 300 300 l 1xb4
 300 600 l 1
 400 600 l 1
 400 700 l 1
 700 700 l 1xaa
 700 600 l 1x4a
 800 600 l 1
 800 300 l 1x41
 700 300 l 1x42
 700 200 l 1
 500 200 l 1x82
 500 300 l 1
 600 300 l 1
 600 600 l 1
 500 600 l 1
 500 300 l 1xa5
 400 300 l 1x45
 400 200 l 1
 100 200 l 1x88
 100 300 l 1x48
 0 300 l 1
 0 600 l 1x50
 100 600 l 1x48
 100 700 l 1x28
EndSplineSet
EndChar

StartChar: orthogonal
Encoding: 274 8735 274
Width: 900
HStem: 200 100<200 700> 580 20G<0 200>
VStem: 0 200<300 600>
Fore
SplineSet
0 600 m 1
 200 600 l 1
 200 300 l 1
 700 300 l 1
 700 200 l 1
 0 200 l 1
 0 600 l 1
EndSplineSet
EndChar

StartChar: intersection
Encoding: 275 8745 275
Width: 900
HStem: 0 21G<0 200 500 700> 800 100<200 500>
VStem: 0 200<0 800> 500 200<0 800>
Fore
SplineSet
100 900 m 1
 600 900 l 1
 600 800 l 1
 700 800 l 1
 700 0 l 1
 500 0 l 1
 500 800 l 1
 200 800 l 1
 200 0 l 1
 0 0 l 1
 0 800 l 1
 100 800 l 1
 100 900 l 1
EndSplineSet
EndChar

StartChar: equivalence
Encoding: 277 8801 277
Width: 900
HStem: 100 100<0 700> 400 100<0 700> 700 100<0 700>
Fore
SplineSet
0 800 m 1
 700 800 l 1
 700 700 l 1
 0 700 l 1
 0 800 l 1
0 500 m 1
 700 500 l 1
 700 400 l 1
 0 400 l 1
 0 500 l 1
0 200 m 1
 700 200 l 1
 700 100 l 1
 0 100 l 1
 0 200 l 1
EndSplineSet
EndChar

StartChar: lessequal
Encoding: 278 8804 278
Width: 900
HStem: 0 100<0 600> 200 200<300 400> 200 100<400 500> 300 200<200 300> 500 100<0 100> 600 200<200 300> 700 200<300 400> 800 100<400 500>
VStem: 0 200<500 600> 100 200<400 500 600 700> 200 200<300 400 700 800> 300 200<200 300 800 900>
Fore
SplineSet
300 900 m 1x8210
 500 900 l 1
 500 800 l 1x8110
 400 800 l 1x8120
 400 700 l 1x8220
 300 700 l 1x8240
 300 600 l 1x8440
 200 600 l 1
 200 500 l 1x9480
 300 500 l 1x9440
 300 400 l 1xc040
 400 400 l 1xc020
 400 300 l 1xa020
 500 300 l 1
 500 200 l 1xa010
 300 200 l 1xc010
 300 300 l 1x9010
 200 300 l 1x9020
 200 400 l 1xc020
 100 400 l 1
 100 500 l 1xc840
 0 500 l 1
 0 600 l 1xc880
 100 600 l 1
 100 700 l 1xca40
 200 700 l 1xca20
 200 800 l 1x8420
 300 800 l 1x8410
 300 900 l 1x8210
0 100 m 1x8080
 600 100 l 1
 600 0 l 1
 0 0 l 1
 0 100 l 1x8080
EndSplineSet
EndChar

StartChar: greaterequal
Encoding: 279 8805 279
Width: 900
HStem: 0 100<0 600> 200 200<200 300> 200 100<100 200> 300 200<300 400> 500 100<500 600> 600 200<300 400> 700 200<200 300> 800 100<100 200>
VStem: 100 200<200 300 800 900> 200 200<300 400 700 800> 300 200<400 500 600 700> 400 200<500 600>
Fore
SplineSet
100 900 m 1x8180
 300 900 l 1x8280
 300 800 l 1x8480
 400 800 l 1x8440
 400 700 l 1x8240
 500 700 l 1
 500 600 l 1x8a20
 600 600 l 1
 600 500 l 1x8a10
 500 500 l 1
 500 400 l 1xca20
 400 400 l 1xca40
 400 300 l 1x9040
 300 300 l 1x9080
 300 200 l 1xc080
 100 200 l 1
 100 300 l 1xa080
 200 300 l 1xa040
 200 400 l 1xc040
 300 400 l 1xc020
 300 500 l 1x9020
 400 500 l 1
 400 600 l 1x9410
 300 600 l 1x9420
 300 700 l 1x8220
 200 700 l 1x8240
 200 800 l 1x8140
 100 800 l 1
 100 900 l 1x8180
0 100 m 1
 600 100 l 1
 600 0 l 1x8010
 0 0 l 1
 0 100 l 1
EndSplineSet
EndChar

StartChar: house
Encoding: 280 8962 280
Width: 900
HStem: 100 300<0 100 600 700> 100 100<200 500> 400 200<200 300 400 500> 500 200<300 400>
VStem: 0 200<200 400> 100 200<400 500> 300 100<600 700> 400 200<400 500> 500 200<200 400>
Fore
SplineSet
400 500 m 1x11
 300 500 l 1x15
 300 400 l 1x25
 200 400 l 1
 200 200 l 1
 500 200 l 1
 500 400 l 1x6880
 400 400 l 1x61
 400 500 l 1x11
300 700 m 1x1a
 400 700 l 1x1a
 400 600 l 1
 500 600 l 1x2a80
 500 500 l 1x1a80
 600 500 l 1
 600 400 l 1x91
 700 400 l 1
 700 100 l 1
 0 100 l 1
 0 400 l 1x9880
 100 400 l 1
 100 500 l 1x94
 200 500 l 1x98
 200 600 l 1
 300 600 l 1x2a
 300 700 l 1x1a
EndSplineSet
EndChar

StartChar: revlogicalnot
Encoding: 281 8976 281
Width: 900
HStem: 400 100<200 700>
VStem: 0 200<100 400>
Fore
SplineSet
0 500 m 1
 700 500 l 1
 700 400 l 1
 200 400 l 1
 200 100 l 1
 0 100 l 1
 0 500 l 1
EndSplineSet
EndChar

StartChar: integraltp
Encoding: 282 8992 282
Width: 900
HStem: 600 200<700 800> 800 100<500 600>
VStem: 300 200<-300 800> 600 200<600 800>
Fore
SplineSet
400 900 m 1x70
 700 900 l 1x70
 700 800 l 1
 800 800 l 1
 800 600 l 1
 600 600 l 1xb0
 600 800 l 1
 500 800 l 1
 500 -300 l 1
 300 -300 l 1
 300 800 l 1
 400 800 l 1
 400 900 l 1x70
EndSplineSet
EndChar

StartChar: integralbt
Encoding: 283 8993 283
Width: 900
HStem: 0 100<200 300> 100 200<0 100>
VStem: 0 200<100 300> 300 200<100 1100>
Fore
SplineSet
300 1100 m 1xb0
 500 1100 l 1
 500 100 l 1
 400 100 l 1x70
 400 0 l 1
 100 0 l 1xb0
 100 100 l 1
 0 100 l 1
 0 300 l 1
 200 300 l 1x70
 200 100 l 1
 300 100 l 1
 300 1100 l 1xb0
EndSplineSet
EndChar

StartChar: SF100000
Encoding: 284 9472 284
Width: 900
HStem: 300 100<0 900>
Fore
SplineSet
0 400 m 1
 900 400 l 1
 900 300 l 1
 0 300 l 1
 0 400 l 1
EndSplineSet
EndChar

StartChar: SF110000
Encoding: 285 9474 285
Width: 900
VStem: 300 200<-300 1100>
Fore
SplineSet
300 1100 m 1
 500 1100 l 1
 500 -300 l 1
 300 -300 l 1
 300 1100 l 1
EndSplineSet
EndChar

StartChar: SF010000
Encoding: 286 9484 286
Width: 900
HStem: 300 100<500 900>
VStem: 300 200<-300 300>
Fore
SplineSet
300 400 m 1
 900 400 l 1
 900 300 l 1
 500 300 l 1
 500 -300 l 1
 300 -300 l 1
 300 400 l 1
EndSplineSet
EndChar

StartChar: SF030000
Encoding: 287 9488 287
Width: 900
HStem: 300 100<0 300>
VStem: 300 200<-300 300>
Fore
SplineSet
0 400 m 1
 500 400 l 1
 500 -300 l 1
 300 -300 l 1
 300 300 l 1
 0 300 l 1
 0 400 l 1
EndSplineSet
EndChar

StartChar: SF020000
Encoding: 288 9492 288
Width: 900
HStem: 300 100<500 900>
VStem: 300 200<400 1100>
Fore
SplineSet
300 1100 m 1
 500 1100 l 1
 500 400 l 1
 900 400 l 1
 900 300 l 1
 300 300 l 1
 300 1100 l 1
EndSplineSet
EndChar

StartChar: SF040000
Encoding: 289 9496 289
Width: 900
HStem: 300 100<0 300>
VStem: 300 200<400 1100>
Fore
SplineSet
300 1100 m 1
 500 1100 l 1
 500 300 l 1
 0 300 l 1
 0 400 l 1
 300 400 l 1
 300 1100 l 1
EndSplineSet
EndChar

StartChar: SF080000
Encoding: 290 9500 290
Width: 900
HStem: 300 100<500 900>
VStem: 300 200<-300 300 400 1100>
Fore
SplineSet
300 1100 m 1
 500 1100 l 1
 500 400 l 1
 900 400 l 1
 900 300 l 1
 500 300 l 1
 500 -300 l 1
 300 -300 l 1
 300 1100 l 1
EndSplineSet
EndChar

StartChar: SF090000
Encoding: 291 9508 291
Width: 900
HStem: 300 100<0 300>
VStem: 300 200<-300 300 400 1100>
Fore
SplineSet
300 1100 m 1
 500 1100 l 1
 500 -300 l 1
 300 -300 l 1
 300 300 l 1
 0 300 l 1
 0 400 l 1
 300 400 l 1
 300 1100 l 1
EndSplineSet
EndChar

StartChar: SF060000
Encoding: 292 9516 292
Width: 900
HStem: 300 100<0 300 500 900>
VStem: 300 200<-300 300>
Fore
SplineSet
0 400 m 1
 900 400 l 1
 900 300 l 1
 500 300 l 1
 500 -300 l 1
 300 -300 l 1
 300 300 l 1
 0 300 l 1
 0 400 l 1
EndSplineSet
EndChar

StartChar: SF070000
Encoding: 293 9524 293
Width: 900
HStem: 300 100<0 300 500 900>
VStem: 300 200<400 1100>
Fore
SplineSet
300 1100 m 1
 500 1100 l 1
 500 400 l 1
 900 400 l 1
 900 300 l 1
 0 300 l 1
 0 400 l 1
 300 400 l 1
 300 1100 l 1
EndSplineSet
EndChar

StartChar: SF050000
Encoding: 294 9532 294
Width: 900
HStem: 300 100<0 300 500 900>
VStem: 300 200<-300 300 400 1100>
Fore
SplineSet
300 1100 m 1
 500 1100 l 1
 500 400 l 1
 900 400 l 1
 900 300 l 1
 500 300 l 1
 500 -300 l 1
 300 -300 l 1
 300 300 l 1
 0 300 l 1
 0 400 l 1
 300 400 l 1
 300 1100 l 1
EndSplineSet
EndChar

StartChar: SF430000
Encoding: 295 9552 295
Width: 900
HStem: 300 100<0 900> 500 100<0 900>
Fore
SplineSet
0 600 m 1
 900 600 l 1
 900 500 l 1
 0 500 l 1
 0 600 l 1
0 400 m 1
 900 400 l 1
 900 300 l 1
 0 300 l 1
 0 400 l 1
EndSplineSet
EndChar

StartChar: SF240000
Encoding: 296 9553 296
Width: 900
VStem: 200 200<-300 1100> 500 200<-300 1100>
Fore
SplineSet
200 1100 m 1
 400 1100 l 1
 400 -300 l 1
 200 -300 l 1
 200 1100 l 1
500 1100 m 1
 700 1100 l 1
 700 -300 l 1
 500 -300 l 1
 500 1100 l 1
EndSplineSet
EndChar

StartChar: SF510000
Encoding: 297 9554 297
Width: 900
HStem: 300 100<500 900> 500 100<500 900>
VStem: 300 200<-300 300 400 500>
Fore
SplineSet
300 600 m 1
 900 600 l 1
 900 500 l 1
 500 500 l 1
 500 400 l 1
 900 400 l 1
 900 300 l 1
 500 300 l 1
 500 -300 l 1
 300 -300 l 1
 300 600 l 1
EndSplineSet
EndChar

StartChar: SF520000
Encoding: 298 9555 298
Width: 900
HStem: 300 100<400 500 700 900>
VStem: 200 200<-300 300> 500 200<-300 300>
Fore
SplineSet
200 400 m 1
 900 400 l 1
 900 300 l 1
 700 300 l 1
 700 -300 l 1
 500 -300 l 1
 500 300 l 1
 400 300 l 1
 400 -300 l 1
 200 -300 l 1
 200 400 l 1
EndSplineSet
EndChar

StartChar: SF390000
Encoding: 299 9556 299
Width: 900
HStem: 300 100<700 900> 500 100<400 900>
VStem: 200 200<-300 500> 500 200<-300 300>
Fore
SplineSet
200 600 m 1
 900 600 l 1
 900 500 l 1
 400 500 l 1
 400 -300 l 1
 200 -300 l 1
 200 600 l 1
500 400 m 1
 900 400 l 1
 900 300 l 1
 700 300 l 1
 700 -300 l 1
 500 -300 l 1
 500 400 l 1
EndSplineSet
EndChar

StartChar: SF220000
Encoding: 300 9557 300
Width: 900
HStem: 300 100<0 300> 500 100<0 300>
VStem: 300 200<-300 300 400 500>
Fore
SplineSet
0 600 m 1
 500 600 l 1
 500 -300 l 1
 300 -300 l 1
 300 300 l 1
 0 300 l 1
 0 400 l 1
 300 400 l 1
 300 500 l 1
 0 500 l 1
 0 600 l 1
EndSplineSet
EndChar

StartChar: SF210000
Encoding: 301 9558 301
Width: 900
HStem: 300 100<0 200 400 500>
VStem: 200 200<-300 300> 500 200<-300 300>
Fore
SplineSet
0 400 m 1
 700 400 l 1
 700 -300 l 1
 500 -300 l 1
 500 300 l 1
 400 300 l 1
 400 -300 l 1
 200 -300 l 1
 200 300 l 1
 0 300 l 1
 0 400 l 1
EndSplineSet
EndChar

StartChar: SF250000
Encoding: 302 9559 302
Width: 900
HStem: 300 100<0 200> 500 100<0 500>
VStem: 200 200<-300 300> 500 200<-300 500>
Fore
SplineSet
0 600 m 1
 700 600 l 1
 700 -300 l 1
 500 -300 l 1
 500 500 l 1
 0 500 l 1
 0 600 l 1
0 400 m 1
 400 400 l 1
 400 -300 l 1
 200 -300 l 1
 200 300 l 1
 0 300 l 1
 0 400 l 1
EndSplineSet
EndChar

StartChar: SF500000
Encoding: 303 9560 303
Width: 900
HStem: 300 100<500 900> 500 100<500 900>
VStem: 300 200<400 500 600 1100>
Fore
SplineSet
300 1100 m 1
 500 1100 l 1
 500 600 l 1
 900 600 l 1
 900 500 l 1
 500 500 l 1
 500 400 l 1
 900 400 l 1
 900 300 l 1
 300 300 l 1
 300 1100 l 1
EndSplineSet
EndChar

StartChar: SF490000
Encoding: 304 9561 304
Width: 900
HStem: 300 100<400 500 700 900>
VStem: 200 200<400 1100> 500 200<400 1100>
Fore
SplineSet
200 1100 m 1
 400 1100 l 1
 400 400 l 1
 500 400 l 1
 500 1100 l 1
 700 1100 l 1
 700 400 l 1
 900 400 l 1
 900 300 l 1
 200 300 l 1
 200 1100 l 1
EndSplineSet
EndChar

StartChar: SF380000
Encoding: 305 9562 305
Width: 900
HStem: 300 100<400 900> 500 100<700 900>
VStem: 200 200<400 1100> 500 200<600 1100>
Fore
SplineSet
200 1100 m 1
 400 1100 l 1
 400 400 l 1
 900 400 l 1
 900 300 l 1
 200 300 l 1
 200 1100 l 1
500 1100 m 1
 700 1100 l 1
 700 600 l 1
 900 600 l 1
 900 500 l 1
 500 500 l 1
 500 1100 l 1
EndSplineSet
EndChar

StartChar: SF280000
Encoding: 306 9563 306
Width: 900
HStem: 300 100<0 300> 500 100<0 300>
VStem: 300 200<400 500 600 1100>
Fore
SplineSet
300 1100 m 1
 500 1100 l 1
 500 300 l 1
 0 300 l 1
 0 400 l 1
 300 400 l 1
 300 500 l 1
 0 500 l 1
 0 600 l 1
 300 600 l 1
 300 1100 l 1
EndSplineSet
EndChar

StartChar: SF270000
Encoding: 307 9564 307
Width: 900
HStem: 300 100<0 200 400 500>
VStem: 200 200<400 1100> 500 200<400 1100>
Fore
SplineSet
200 1100 m 1
 400 1100 l 1
 400 400 l 1
 500 400 l 1
 500 1100 l 1
 700 1100 l 1
 700 300 l 1
 0 300 l 1
 0 400 l 1
 200 400 l 1
 200 1100 l 1
EndSplineSet
EndChar

StartChar: SF260000
Encoding: 308 9565 308
Width: 900
HStem: 300 100<0 500> 500 100<0 200>
VStem: 200 200<600 1100> 500 200<400 1100>
Fore
SplineSet
200 1100 m 1
 400 1100 l 1
 400 500 l 1
 0 500 l 1
 0 600 l 1
 200 600 l 1
 200 1100 l 1
500 1100 m 1
 700 1100 l 1
 700 300 l 1
 0 300 l 1
 0 400 l 1
 500 400 l 1
 500 1100 l 1
EndSplineSet
EndChar

StartChar: SF360000
Encoding: 309 9566 309
Width: 900
HStem: 300 100<500 900> 500 100<500 900>
VStem: 300 200<-300 300 400 500 600 1100>
Fore
SplineSet
300 1100 m 1
 500 1100 l 1
 500 600 l 1
 900 600 l 1
 900 500 l 1
 500 500 l 1
 500 400 l 1
 900 400 l 1
 900 300 l 1
 500 300 l 1
 500 -300 l 1
 300 -300 l 1
 300 1100 l 1
EndSplineSet
EndChar

StartChar: SF370000
Encoding: 310 9567 310
Width: 900
HStem: 300 100<700 900>
VStem: 200 200<-300 1100> 500 200<-300 300 400 1100>
Fore
SplineSet
200 1100 m 1
 400 1100 l 1
 400 -300 l 1
 200 -300 l 1
 200 1100 l 1
500 1100 m 1
 700 1100 l 1
 700 400 l 1
 900 400 l 1
 900 300 l 1
 700 300 l 1
 700 -300 l 1
 500 -300 l 1
 500 1100 l 1
EndSplineSet
EndChar

StartChar: SF420000
Encoding: 311 9568 311
Width: 900
HStem: 300 100<700 900> 500 100<700 900>
VStem: 200 200<-300 1100> 500 200<-300 300 600 1100>
Fore
SplineSet
200 1100 m 1
 400 1100 l 1
 400 -300 l 1
 200 -300 l 1
 200 1100 l 1
500 1100 m 1
 700 1100 l 1
 700 600 l 1
 900 600 l 1
 900 500 l 1
 500 500 l 1
 500 1100 l 1
500 400 m 1
 900 400 l 1
 900 300 l 1
 700 300 l 1
 700 -300 l 1
 500 -300 l 1
 500 400 l 1
EndSplineSet
EndChar

StartChar: SF190000
Encoding: 312 9569 312
Width: 900
HStem: 300 100<0 300> 500 100<0 300>
VStem: 300 200<-300 300 400 500 600 1100>
Fore
SplineSet
300 1100 m 1
 500 1100 l 1
 500 -300 l 1
 300 -300 l 1
 300 300 l 1
 0 300 l 1
 0 400 l 1
 300 400 l 1
 300 500 l 1
 0 500 l 1
 0 600 l 1
 300 600 l 1
 300 1100 l 1
EndSplineSet
EndChar

StartChar: SF200000
Encoding: 313 9570 313
Width: 900
HStem: 300 100<0 200>
VStem: 200 200<-300 300 400 1100> 500 200<-300 1100>
Fore
SplineSet
200 1100 m 1
 400 1100 l 1
 400 -300 l 1
 200 -300 l 1
 200 300 l 1
 0 300 l 1
 0 400 l 1
 200 400 l 1
 200 1100 l 1
500 1100 m 1
 700 1100 l 1
 700 -300 l 1
 500 -300 l 1
 500 1100 l 1
EndSplineSet
EndChar

StartChar: SF230000
Encoding: 314 9571 314
Width: 900
HStem: 300 100<0 200> 500 100<0 200>
VStem: 200 200<-300 300 600 1100> 500 200<-300 1100>
Fore
SplineSet
200 1100 m 1
 400 1100 l 1
 400 500 l 1
 0 500 l 1
 0 600 l 1
 200 600 l 1
 200 1100 l 1
500 1100 m 1
 700 1100 l 1
 700 -300 l 1
 500 -300 l 1
 500 1100 l 1
0 400 m 1
 400 400 l 1
 400 -300 l 1
 200 -300 l 1
 200 300 l 1
 0 300 l 1
 0 400 l 1
EndSplineSet
EndChar

StartChar: SF470000
Encoding: 315 9572 315
Width: 900
HStem: 300 100<0 300 500 900> 500 100<0 900>
VStem: 300 200<-300 300>
Fore
SplineSet
0 600 m 1
 900 600 l 1
 900 500 l 1
 0 500 l 1
 0 600 l 1
0 400 m 1
 900 400 l 1
 900 300 l 1
 500 300 l 1
 500 -300 l 1
 300 -300 l 1
 300 300 l 1
 0 300 l 1
 0 400 l 1
EndSplineSet
EndChar

StartChar: SF480000
Encoding: 316 9573 316
Width: 900
HStem: 300 100<0 200 400 500 700 900>
VStem: 200 200<-300 300> 500 200<-300 300>
Fore
SplineSet
0 400 m 1
 900 400 l 1
 900 300 l 1
 700 300 l 1
 700 -300 l 1
 500 -300 l 1
 500 300 l 1
 400 300 l 1
 400 -300 l 1
 200 -300 l 1
 200 300 l 1
 0 300 l 1
 0 400 l 1
EndSplineSet
EndChar

StartChar: SF410000
Encoding: 317 9574 317
Width: 900
HStem: 300 100<0 200 700 900> 500 100<0 900>
VStem: 200 200<-300 300> 500 200<-300 300>
Fore
SplineSet
0 600 m 1
 900 600 l 1
 900 500 l 1
 0 500 l 1
 0 600 l 1
0 400 m 1
 400 400 l 1
 400 -300 l 1
 200 -300 l 1
 200 300 l 1
 0 300 l 1
 0 400 l 1
500 400 m 1
 900 400 l 1
 900 300 l 1
 700 300 l 1
 700 -300 l 1
 500 -300 l 1
 500 400 l 1
EndSplineSet
EndChar

StartChar: SF450000
Encoding: 318 9575 318
Width: 900
HStem: 300 100<0 900> 500 100<0 300 500 900>
VStem: 300 200<600 1100>
Fore
SplineSet
300 1100 m 1
 500 1100 l 1
 500 600 l 1
 900 600 l 1
 900 500 l 1
 0 500 l 1
 0 600 l 1
 300 600 l 1
 300 1100 l 1
0 400 m 1
 900 400 l 1
 900 300 l 1
 0 300 l 1
 0 400 l 1
EndSplineSet
EndChar

StartChar: SF460000
Encoding: 319 9576 319
Width: 900
HStem: 300 100<0 200 400 500 700 900>
VStem: 200 200<400 1100> 500 200<400 1100>
Fore
SplineSet
200 1100 m 1
 400 1100 l 1
 400 400 l 1
 500 400 l 1
 500 1100 l 1
 700 1100 l 1
 700 400 l 1
 900 400 l 1
 900 300 l 1
 0 300 l 1
 0 400 l 1
 200 400 l 1
 200 1100 l 1
EndSplineSet
EndChar

StartChar: SF400000
Encoding: 320 9577 320
Width: 900
HStem: 300 100<0 900> 500 100<0 200 700 900>
VStem: 200 200<600 1100> 500 200<600 1100>
Fore
SplineSet
200 1100 m 1
 400 1100 l 1
 400 500 l 1
 0 500 l 1
 0 600 l 1
 200 600 l 1
 200 1100 l 1
500 1100 m 1
 700 1100 l 1
 700 600 l 1
 900 600 l 1
 900 500 l 1
 500 500 l 1
 500 1100 l 1
0 400 m 1
 900 400 l 1
 900 300 l 1
 0 300 l 1
 0 400 l 1
EndSplineSet
EndChar

StartChar: SF540000
Encoding: 321 9578 321
Width: 900
HStem: 300 100<0 300 500 900> 500 100<0 300 500 900>
VStem: 300 200<-300 300 400 500 600 1100>
Fore
SplineSet
300 1100 m 1
 500 1100 l 1
 500 600 l 1
 900 600 l 1
 900 500 l 1
 500 500 l 1
 500 400 l 1
 900 400 l 1
 900 300 l 1
 500 300 l 1
 500 -300 l 1
 300 -300 l 1
 300 300 l 1
 0 300 l 1
 0 400 l 1
 300 400 l 1
 300 500 l 1
 0 500 l 1
 0 600 l 1
 300 600 l 1
 300 1100 l 1
EndSplineSet
EndChar

StartChar: SF530000
Encoding: 322 9579 322
Width: 900
HStem: 300 100<0 200 400 500 700 900>
VStem: 200 200<-300 300 400 1100> 500 200<-300 300 400 1100>
Fore
SplineSet
200 1100 m 1
 400 1100 l 1
 400 400 l 1
 500 400 l 1
 500 1100 l 1
 700 1100 l 1
 700 400 l 1
 900 400 l 1
 900 300 l 1
 700 300 l 1
 700 -300 l 1
 500 -300 l 1
 500 300 l 1
 400 300 l 1
 400 -300 l 1
 200 -300 l 1
 200 300 l 1
 0 300 l 1
 0 400 l 1
 200 400 l 1
 200 1100 l 1
EndSplineSet
EndChar

StartChar: SF440000
Encoding: 323 9580 323
Width: 900
HStem: 300 100<0 200 700 900> 500 100<0 200 700 900>
VStem: 200 200<-300 300 600 1100> 500 200<-300 300 600 1100>
Fore
SplineSet
200 1100 m 1
 400 1100 l 1
 400 500 l 1
 0 500 l 1
 0 600 l 1
 200 600 l 1
 200 1100 l 1
500 1100 m 1
 700 1100 l 1
 700 600 l 1
 900 600 l 1
 900 500 l 1
 500 500 l 1
 500 1100 l 1
0 400 m 1
 400 400 l 1
 400 -300 l 1
 200 -300 l 1
 200 300 l 1
 0 300 l 1
 0 400 l 1
500 400 m 1
 900 400 l 1
 900 300 l 1
 700 300 l 1
 700 -300 l 1
 500 -300 l 1
 500 400 l 1
EndSplineSet
EndChar

StartChar: upblock
Encoding: 324 9600 324
Width: 900
HStem: 400 700<0 900>
VStem: 0 900<400 1100>
Fore
SplineSet
0 1100 m 1
 900 1100 l 1
 900 400 l 1
 0 400 l 1
 0 1100 l 1
EndSplineSet
EndChar

StartChar: dnblock
Encoding: 325 9604 325
Width: 900
HStem: -300 700<0 900>
VStem: 0 900<-300 400>
Fore
SplineSet
0 400 m 1
 900 400 l 1
 900 -300 l 1
 0 -300 l 1
 0 400 l 1
EndSplineSet
EndChar

StartChar: block
Encoding: 326 9608 326
Width: 900
VStem: 0 900<-300 1100>
Fore
SplineSet
0 1100 m 1
 900 1100 l 1
 900 -300 l 1
 0 -300 l 1
 0 1100 l 1
EndSplineSet
EndChar

StartChar: lfblock
Encoding: 327 9612 327
Width: 900
VStem: 0 400<-300 1100>
Fore
SplineSet
0 1100 m 1
 400 1100 l 1
 400 -300 l 1
 0 -300 l 1
 0 1100 l 1
EndSplineSet
EndChar

StartChar: rtblock
Encoding: 328 9616 328
Width: 900
VStem: 400 500<-300 1100>
Fore
SplineSet
400 1100 m 1
 900 1100 l 1
 900 -300 l 1
 400 -300 l 1
 400 1100 l 1
EndSplineSet
EndChar

StartChar: ltshade
Encoding: 329 9617 329
Width: 900
HStem: -300 100<0 100 400 500> -200 100<200 300 600 700> -100 100<0 100 400 500> 0 100<200 300 600 700> 100 100<0 100 400 500> 200 100<200 300 600 700> 300 100<0 100 400 500> 400 100<200 300 600 700> 500 100<0 100 400 500> 600 100<200 300 600 700> 700 100<0 100 400 500> 800 100<200 300 600 700> 900 100<0 100 400 500> 1000 100<200 300 600 700>
VStem: 0 100<-300 -200 -100 0 100 200 300 400 500 600 700 800 900 1000> 200 100<-200 -100 0 100 200 300 400 500 600 700 800 900 1000 1100> 400 100<-300 -200 -100 0 100 200 300 400 500 600 700 800 900 1000> 600 100<-200 -100 0 100 200 300 400 500 600 700 800 900 1000 1100>
Fore
SplineSet
200 1100 m 1x0007c0
 300 1100 l 1
 300 1000 l 1
 200 1000 l 1
 200 1100 l 1x0007c0
600 1100 m 1
 700 1100 l 1
 700 1000 l 1
 600 1000 l 1
 600 1100 l 1
0 1000 m 1x000bc0
 100 1000 l 1
 100 900 l 1
 0 900 l 1
 0 1000 l 1x000bc0
400 1000 m 1
 500 1000 l 1
 500 900 l 1
 400 900 l 1
 400 1000 l 1
200 900 m 1x0013c0
 300 900 l 1
 300 800 l 1
 200 800 l 1
 200 900 l 1x0013c0
600 900 m 1
 700 900 l 1
 700 800 l 1
 600 800 l 1
 600 900 l 1
0 800 m 1x0023c0
 100 800 l 1
 100 700 l 1
 0 700 l 1
 0 800 l 1x0023c0
400 800 m 1
 500 800 l 1
 500 700 l 1
 400 700 l 1
 400 800 l 1
200 700 m 1x0043c0
 300 700 l 1
 300 600 l 1
 200 600 l 1
 200 700 l 1x0043c0
600 700 m 1
 700 700 l 1
 700 600 l 1
 600 600 l 1
 600 700 l 1
0 600 m 1x0083c0
 100 600 l 1
 100 500 l 1
 0 500 l 1
 0 600 l 1x0083c0
400 600 m 1
 500 600 l 1
 500 500 l 1
 400 500 l 1
 400 600 l 1
200 500 m 1x0103c0
 300 500 l 1
 300 400 l 1
 200 400 l 1
 200 500 l 1x0103c0
600 500 m 1
 700 500 l 1
 700 400 l 1
 600 400 l 1
 600 500 l 1
0 400 m 1x0203c0
 100 400 l 1
 100 300 l 1
 0 300 l 1
 0 400 l 1x0203c0
400 400 m 1
 500 400 l 1
 500 300 l 1
 400 300 l 1
 400 400 l 1
200 300 m 1x0403c0
 300 300 l 1
 300 200 l 1
 200 200 l 1
 200 300 l 1x0403c0
600 300 m 1
 700 300 l 1
 700 200 l 1
 600 200 l 1
 600 300 l 1
0 200 m 1x0803c0
 100 200 l 1
 100 100 l 1
 0 100 l 1
 0 200 l 1x0803c0
400 200 m 1
 500 200 l 1
 500 100 l 1
 400 100 l 1
 400 200 l 1
200 100 m 1x1003c0
 300 100 l 1
 300 0 l 1
 200 0 l 1
 200 100 l 1x1003c0
600 100 m 1
 700 100 l 1
 700 0 l 1
 600 0 l 1
 600 100 l 1
0 0 m 1x2003c0
 100 0 l 1
 100 -100 l 1
 0 -100 l 1
 0 0 l 1x2003c0
400 0 m 1
 500 0 l 1
 500 -100 l 1
 400 -100 l 1
 400 0 l 1
200 -100 m 1x4003c0
 300 -100 l 1
 300 -200 l 1
 200 -200 l 1
 200 -100 l 1x4003c0
600 -100 m 1
 700 -100 l 1
 700 -200 l 1
 600 -200 l 1
 600 -100 l 1
0 -200 m 1x8003c0
 100 -200 l 1
 100 -300 l 1
 0 -300 l 1
 0 -200 l 1x8003c0
400 -200 m 1
 500 -200 l 1
 500 -300 l 1
 400 -300 l 1
 400 -200 l 1
EndSplineSet
EndChar

StartChar: shade
Encoding: 330 9618 330
Width: 900
HStem: -300 100<0 100 200 300 400 500 600 700> -200 100<100 200 300 400 500 600 700 800> -100 100<0 100 200 300 400 500 600 700> 0 100<100 200 300 400 500 600 700 800> 100 100<0 100 200 300 400 500 600 700> 200 100<100 200 300 400 500 600 700 800> 300 100<0 100 200 300 400 500 600 700> 400 100<100 200 300 400 500 600 700 800> 500 100<0 100 200 300 400 500 600 700> 600 100<100 200 300 400 500 600 700 800> 700 100<0 100 200 300 400 500 600 700> 800 100<100 200 300 400 500 600 700 800> 900 100<0 100 200 300 400 500 600 700> 1000 100<100 200 300 400 500 600 700 800>
VStem: 0 100<-300 -200 -100 0 100 200 300 400 500 600 700 800 900 1000> 100 100<-200 -100 0 100 200 300 400 500 600 700 800 900 1000 1100> 200 100<-300 -200 -100 0 100 200 300 400 500 600 700 800 900 1000> 300 100<-200 -100 0 100 200 300 400 500 600 700 800 900 1000 1100> 400 100<-300 -200 -100 0 100 200 300 400 500 600 700 800 900 1000> 500 100<-200 -100 0 100 200 300 400 500 600 700 800 900 1000 1100> 600 100<-300 -200 -100 0 100 200 300 400 500 600 700 800 900 1000> 700 100<-200 -100 0 100 200 300 400 500 600 700 800 900 1000 1100>
Fore
SplineSet
100 1100 m 1x0005
 200 1100 l 1x0005
 200 1000 l 1x0009
 100 1000 l 1x000a
 100 1100 l 1x0005
300 1100 m 1x000440
 400 1100 l 1x000440
 400 1000 l 1x000840
 300 1000 l 1x000880
 300 1100 l 1x000440
500 1100 m 1x000410
 600 1100 l 1x000410
 600 1000 l 1x000810
 500 1000 l 1x000820
 500 1100 l 1x000410
700 1100 m 1x000404
 800 1100 l 1
 800 1000 l 1x000404
 700 1000 l 1x000808
 700 1100 l 1x000404
0 1000 m 1x000a
 100 1000 l 1x000a
 100 900 l 1x0012
 0 900 l 1
 0 1000 l 1x000a
200 1000 m 1x0009
 300 1000 l 1x000880
 300 900 l 1x001080
 200 900 l 1x0011
 200 1000 l 1x0009
400 1000 m 1x000840
 500 1000 l 1x000820
 500 900 l 1x001020
 400 900 l 1x001040
 400 1000 l 1x000840
600 1000 m 1x000810
 700 1000 l 1x000808
 700 900 l 1x001008
 600 900 l 1x001010
 600 1000 l 1x000810
100 900 m 1x0012
 200 900 l 1x0011
 200 800 l 1x0021
 100 800 l 1x0022
 100 900 l 1x0012
300 900 m 1x001080
 400 900 l 1x001040
 400 800 l 1x002040
 300 800 l 1x002080
 300 900 l 1x001080
500 900 m 1x001020
 600 900 l 1x001010
 600 800 l 1x002010
 500 800 l 1x002020
 500 900 l 1x001020
700 900 m 1x001008
 800 900 l 1
 800 800 l 1x001004
 700 800 l 1x002008
 700 900 l 1x001008
0 800 m 1x0022
 100 800 l 1x0022
 100 700 l 1x0042
 0 700 l 1
 0 800 l 1x0022
200 800 m 1x0021
 300 800 l 1x002080
 300 700 l 1x004080
 200 700 l 1x0041
 200 800 l 1x0021
400 800 m 1x002040
 500 800 l 1x002020
 500 700 l 1x004020
 400 700 l 1x004040
 400 800 l 1x002040
600 800 m 1x002010
 700 800 l 1x002008
 700 700 l 1x004008
 600 700 l 1x004010
 600 800 l 1x002010
100 700 m 1x0042
 200 700 l 1x0041
 200 600 l 1x0081
 100 600 l 1x0082
 100 700 l 1x0042
300 700 m 1x004080
 400 700 l 1x004040
 400 600 l 1x008040
 300 600 l 1x008080
 300 700 l 1x004080
500 700 m 1x004020
 600 700 l 1x004010
 600 600 l 1x008010
 500 600 l 1x008020
 500 700 l 1x004020
700 700 m 1x004008
 800 700 l 1
 800 600 l 1x004004
 700 600 l 1x008008
 700 700 l 1x004008
0 600 m 1x0082
 100 600 l 1x0082
 100 500 l 1x0102
 0 500 l 1
 0 600 l 1x0082
200 600 m 1x0081
 300 600 l 1x008080
 300 500 l 1x010080
 200 500 l 1x0101
 200 600 l 1x0081
400 600 m 1x008040
 500 600 l 1x008020
 500 500 l 1x010020
 400 500 l 1x010040
 400 600 l 1x008040
600 600 m 1x008010
 700 600 l 1x008008
 700 500 l 1x010008
 600 500 l 1x010010
 600 600 l 1x008010
100 500 m 1x0102
 200 500 l 1x0101
 200 400 l 1x0201
 100 400 l 1x0202
 100 500 l 1x0102
300 500 m 1x010080
 400 500 l 1x010040
 400 400 l 1x020040
 300 400 l 1x020080
 300 500 l 1x010080
500 500 m 1x010020
 600 500 l 1x010010
 600 400 l 1x020010
 500 400 l 1x020020
 500 500 l 1x010020
700 500 m 1x010008
 800 500 l 1
 800 400 l 1x010004
 700 400 l 1x020008
 700 500 l 1x010008
0 400 m 1x0202
 100 400 l 1x0202
 100 300 l 1x0402
 0 300 l 1
 0 400 l 1x0202
200 400 m 1x0201
 300 400 l 1x020080
 300 300 l 1x040080
 200 300 l 1x0401
 200 400 l 1x0201
400 400 m 1x020040
 500 400 l 1x020020
 500 300 l 1x040020
 400 300 l 1x040040
 400 400 l 1x020040
600 400 m 1x020010
 700 400 l 1x020008
 700 300 l 1x040008
 600 300 l 1x040010
 600 400 l 1x020010
100 300 m 1x0402
 200 300 l 1x0401
 200 200 l 1x0801
 100 200 l 1x0802
 100 300 l 1x0402
300 300 m 1x040080
 400 300 l 1x040040
 400 200 l 1x080040
 300 200 l 1x080080
 300 300 l 1x040080
500 300 m 1x040020
 600 300 l 1x040010
 600 200 l 1x080010
 500 200 l 1x080020
 500 300 l 1x040020
700 300 m 1x040008
 800 300 l 1
 800 200 l 1x040004
 700 200 l 1x080008
 700 300 l 1x040008
0 200 m 1x0802
 100 200 l 1x0802
 100 100 l 1x1002
 0 100 l 1
 0 200 l 1x0802
200 200 m 1x0801
 300 200 l 1x080080
 300 100 l 1x100080
 200 100 l 1x1001
 200 200 l 1x0801
400 200 m 1x080040
 500 200 l 1x080020
 500 100 l 1x100020
 400 100 l 1x100040
 400 200 l 1x080040
600 200 m 1x080010
 700 200 l 1x080008
 700 100 l 1x100008
 600 100 l 1x100010
 600 200 l 1x080010
100 100 m 1x1002
 200 100 l 1x1001
 200 0 l 1x2001
 100 0 l 1x2002
 100 100 l 1x1002
300 100 m 1x100080
 400 100 l 1x100040
 400 0 l 1x200040
 300 0 l 1x200080
 300 100 l 1x100080
500 100 m 1x100020
 600 100 l 1x100010
 600 0 l 1x200010
 500 0 l 1x200020
 500 100 l 1x100020
700 100 m 1x100008
 800 100 l 1
 800 0 l 1x100004
 700 0 l 1x200008
 700 100 l 1x100008
0 0 m 1x2002
 100 0 l 1x2002
 100 -100 l 1x4002
 0 -100 l 1
 0 0 l 1x2002
200 0 m 1x2001
 300 0 l 1x200080
 300 -100 l 1x400080
 200 -100 l 1x4001
 200 0 l 1x2001
400 0 m 1x200040
 500 0 l 1x200020
 500 -100 l 1x400020
 400 -100 l 1x400040
 400 0 l 1x200040
600 0 m 1x200010
 700 0 l 1x200008
 700 -100 l 1x400008
 600 -100 l 1x400010
 600 0 l 1x200010
100 -100 m 1x4002
 200 -100 l 1x4001
 200 -200 l 1x8001
 100 -200 l 1x8002
 100 -100 l 1x4002
300 -100 m 1x400080
 400 -100 l 1x400040
 400 -200 l 1x800040
 300 -200 l 1x800080
 300 -100 l 1x400080
500 -100 m 1x400020
 600 -100 l 1x400010
 600 -200 l 1x800010
 500 -200 l 1x800020
 500 -100 l 1x400020
700 -100 m 1x400008
 800 -100 l 1
 800 -200 l 1x400004
 700 -200 l 1x800008
 700 -100 l 1x400008
0 -200 m 1x8002
 100 -200 l 1
 100 -300 l 1
 0 -300 l 1
 0 -200 l 1x8002
200 -200 m 1x8001
 300 -200 l 1
 300 -300 l 1
 200 -300 l 1x800080
 200 -200 l 1x8001
400 -200 m 1x800040
 500 -200 l 1
 500 -300 l 1
 400 -300 l 1x800020
 400 -200 l 1x800040
600 -200 m 1x800010
 700 -200 l 1
 700 -300 l 1
 600 -300 l 1x800008
 600 -200 l 1x800010
EndSplineSet
EndChar

StartChar: dkshade
Encoding: 331 9619 331
Width: 900
HStem: -300 100<200 300 600 700> -200 100<0 100 400 500> -100 100<200 300 600 700> 0 100<0 100 400 500> 100 100<200 300 600 700> 200 100<0 100 400 500> 300 100<200 300 600 700> 400 100<0 100 400 500> 500 100<200 300 600 700> 600 100<0 100 400 500> 700 100<200 300 600 700> 800 100<0 100 400 500> 900 100<200 300 600 700> 1000 100<0 100 400 500>
VStem: 0 200<-200 -100 0 100 200 300 400 500 600 700 800 900 1000 1100> 100 300<-300 -200 -100 0 100 200 300 400 500 600 700 800 900 1000> 300 300<-200 -100 0 100 200 300 400 500 600 700 800 900 1000 1100> 500 300<-300 -200 -100 0 100 200 300 400 500 600 700 800 900 1000> 700 100<-200 -100 0 100 200 300 400 500 600 700 800 900 1000 1100>
Fore
SplineSet
500 1000 m 1x001540
 400 1000 l 1
 400 900 l 1
 500 900 l 1
 500 1000 l 1x001540
300 900 m 1x002a80
 200 900 l 1
 200 800 l 1
 300 800 l 1
 300 900 l 1x002a80
700 900 m 1x0028a0
 600 900 l 1
 600 800 l 1
 700 800 l 1
 700 900 l 1x0028a0
500 800 m 1x005140
 400 800 l 1
 400 700 l 1
 500 700 l 1
 500 800 l 1x005140
300 700 m 1x00a280
 200 700 l 1
 200 600 l 1
 300 600 l 1
 300 700 l 1x00a280
700 700 m 1x00a0a0
 600 700 l 1
 600 600 l 1
 700 600 l 1
 700 700 l 1x00a0a0
500 600 m 1x014140
 400 600 l 1
 400 500 l 1
 500 500 l 1
 500 600 l 1x014140
300 500 m 1x028280
 200 500 l 1
 200 400 l 1
 300 400 l 1
 300 500 l 1x028280
700 500 m 1x0280a0
 600 500 l 1
 600 400 l 1
 700 400 l 1
 700 500 l 1x0280a0
500 400 m 1x050140
 400 400 l 1
 400 300 l 1
 500 300 l 1
 500 400 l 1x050140
300 300 m 1x0a0280
 200 300 l 1
 200 200 l 1
 300 200 l 1
 300 300 l 1x0a0280
700 300 m 1x0a00a0
 600 300 l 1
 600 200 l 1
 700 200 l 1
 700 300 l 1x0a00a0
500 200 m 1x140140
 400 200 l 1
 400 100 l 1
 500 100 l 1
 500 200 l 1x140140
300 100 m 1x280280
 200 100 l 1
 200 0 l 1
 300 0 l 1
 300 100 l 1x280280
700 100 m 1x2800a0
 600 100 l 1
 600 0 l 1
 700 0 l 1
 700 100 l 1x2800a0
500 0 m 1x500140
 400 0 l 1
 400 -100 l 1
 500 -100 l 1
 500 0 l 1x500140
300 -100 m 1xa00280
 200 -100 l 1
 200 -200 l 1
 300 -200 l 1
 300 -100 l 1xa00280
700 -100 m 1xa000a0
 600 -100 l 1
 600 -200 l 1
 700 -200 l 1
 700 -100 l 1xa000a0
0 1100 m 1x5556
 200 1100 l 1x5556
 200 1000 l 1
 300 1000 l 1x000a80
 300 1100 l 1
 600 1100 l 1x000680
 600 1000 l 1
 700 1000 l 1x000aa0
 700 1100 l 1
 800 1100 l 1x0006a0
 800 -300 l 1
 500 -300 l 1x800440
 500 -200 l 1
 400 -200 l 1x400140
 400 -300 l 1
 100 -300 l 1x800140
 100 -200 l 1x400140
 0 -200 l 1
 0 -100 l 1x4002
 100 -100 l 1
 100 0 l 1x5001
 0 0 l 1
 0 100 l 1x5002
 100 100 l 1
 100 200 l 1x5401
 0 200 l 1
 0 300 l 1x5402
 100 300 l 1
 100 400 l 1x5501
 0 400 l 1
 0 500 l 1x5502
 100 500 l 1
 100 600 l 1x5541
 0 600 l 1
 0 700 l 1x5542
 100 700 l 1
 100 800 l 1x5551
 0 800 l 1
 0 900 l 1x5552
 100 900 l 1
 100 1000 l 1x5555
 0 1000 l 1
 0 1100 l 1x5556
EndSplineSet
EndChar

StartChar: filledbox
Encoding: 332 9632 332
Width: 900
HStem: 100 600<100 600>
VStem: 100 500<100 700>
Fore
SplineSet
100 700 m 1
 600 700 l 1
 600 100 l 1
 100 100 l 1
 100 700 l 1
EndSplineSet
Colour: f46a4b
EndChar

StartChar: filledrect
Encoding: 333 9644 333
Width: 900
HStem: 0 400<0 700>
Fore
SplineSet
0 400 m 1
 700 400 l 1
 700 0 l 1
 0 0 l 1
 0 400 l 1
EndSplineSet
EndChar

StartChar: triagup
Encoding: 334 9650 334
Width: 900
HStem: 100 200<0 100 600 700>
VStem: 200 300<500 700>
Fore
SplineSet
300 800 m 1
 400 800 l 1
 400 700 l 1
 500 700 l 1
 500 500 l 1
 600 500 l 1
 600 300 l 1
 700 300 l 1
 700 100 l 1
 0 100 l 1
 0 300 l 1
 100 300 l 1
 100 500 l 1
 200 500 l 1
 200 700 l 1
 300 700 l 1
 300 800 l 1
EndSplineSet
EndChar

StartChar: triagrt
Encoding: 335 9658 335
Width: 900
HStem: 0 21G<0 100> 300 300<300 500> 880 20G<0 100>
VStem: 0 300<200 300 600 700> 0 200<100 200 700 800> 0 100<0 100 800 900>
Fore
SplineSet
0 900 m 1xe4
 100 900 l 1
 100 800 l 1xe4
 200 800 l 1
 200 700 l 1xe8
 300 700 l 1
 300 600 l 1
 500 600 l 1
 500 500 l 1
 700 500 l 1
 700 400 l 1
 500 400 l 1
 500 300 l 1
 300 300 l 1
 300 200 l 1xf0
 200 200 l 1
 200 100 l 1xe8
 100 100 l 1
 100 0 l 1
 0 0 l 1
 0 900 l 1xe4
EndSplineSet
EndChar

StartChar: triagdn
Encoding: 336 9660 336
Width: 900
HStem: 600 200<0 100 600 700>
VStem: 200 300<200 400>
Fore
SplineSet
0 800 m 1
 700 800 l 1
 700 600 l 1
 600 600 l 1
 600 400 l 1
 500 400 l 1
 500 200 l 1
 400 200 l 1
 400 100 l 1
 300 100 l 1
 300 200 l 1
 200 200 l 1
 200 400 l 1
 100 400 l 1
 100 600 l 1
 0 600 l 1
 0 800 l 1
EndSplineSet
EndChar

StartChar: triaglf
Encoding: 337 9668 337
Width: 900
HStem: 0 21G<600 700> 300 300<200 400> 880 20G<600 700>
VStem: 400 300<200 300 600 700> 500 200<100 200 700 800> 600 100<0 100 800 900>
Fore
SplineSet
600 900 m 1xe4
 700 900 l 1
 700 0 l 1
 600 0 l 1
 600 100 l 1xe4
 500 100 l 1
 500 200 l 1xe8
 400 200 l 1
 400 300 l 1
 200 300 l 1
 200 400 l 1
 0 400 l 1
 0 500 l 1
 200 500 l 1
 200 600 l 1
 400 600 l 1
 400 700 l 1xf0
 500 700 l 1
 500 800 l 1xe8
 600 800 l 1
 600 900 l 1xe4
EndSplineSet
EndChar

StartChar: circle
Encoding: 338 9675 338
Width: 900
HStem: 100 200<200 300 500 600> 100 100<300 500> 500 200<200 300 500 600> 600 100<300 500>
VStem: 100 200<200 300 500 600> 100 100<300 500> 500 200<200 300 500 600> 600 100<300 500>
Fore
SplineSet
500 600 m 1x12
 300 600 l 1x1a
 300 500 l 1x2a
 200 500 l 1
 200 300 l 1xa4
 300 300 l 1xa8
 300 200 l 1
 500 200 l 1x4a
 500 300 l 1x8a
 600 300 l 1
 600 500 l 1xa1
 500 500 l 1xa2
 500 600 l 1x12
200 700 m 1x24
 600 700 l 1x25
 600 600 l 1x15
 700 600 l 1
 700 200 l 1x52
 600 200 l 1x51
 600 100 l 1
 200 100 l 1x85
 200 200 l 1x45
 100 200 l 1
 100 600 l 1x58
 200 600 l 1x54
 200 700 l 1x24
EndSplineSet
EndChar

StartChar: invbullet
Encoding: 339 9688 339
Width: 900
VStem: 0 300<200 300 500 600> 0 200<300 500> 500 300<200 300 500 600> 600 200<300 500>
Fore
SplineSet
500 600 m 1x20
 300 600 l 1
 300 500 l 1xa0
 200 500 l 1
 200 300 l 1x40
 300 300 l 1
 300 200 l 1
 500 200 l 1
 500 300 l 1xa0
 600 300 l 1
 600 500 l 1x10
 500 500 l 1
 500 600 l 1x20
0 1100 m 1x50
 800 1100 l 1
 800 -300 l 1
 0 -300 l 1
 0 1100 l 1x50
EndSplineSet
EndChar

StartChar: invcircle
Encoding: 340 9689 340
Width: 900
HStem: -300 400<200 600> 300 200<200 300 500 600> 580 20G<300 500> 700 400<200 600>
VStem: 0 200<100 200 600 700> 0 100<200 600> 300 200<200 300 500 600> 600 200<100 200 600 700> 700 100<200 600>
Fore
SplineSet
300 600 m 1xfb
 500 600 l 1
 500 500 l 1
 600 500 l 1
 600 300 l 1
 500 300 l 1
 500 200 l 1
 300 200 l 1
 300 300 l 1
 200 300 l 1
 200 500 l 1
 300 500 l 1
 300 600 l 1xfb
600 700 m 1
 200 700 l 1
 200 600 l 1xfb
 100 600 l 1
 100 200 l 1xf6
 200 200 l 1
 200 100 l 1
 600 100 l 1
 600 200 l 1xfb
 700 200 l 1
 700 600 l 1xf280
 600 600 l 1
 600 700 l 1
0 1100 m 1xf680
 800 1100 l 1
 800 -300 l 1
 0 -300 l 1
 0 1100 l 1xf680
EndSplineSet
EndChar

StartChar: smileface
Encoding: 341 9786 341
Width: 900
HStem: 0 100<100 700> 200 200<300 500> 300 100<200 300 500 600> 600 100<200 300 500 600> 800 100<100 700>
VStem: 0 100<100 800> 200 100<600 700> 300 200<200 300> 500 100<600 700> 700 100<100 800>
Fore
SplineSet
100 900 m 1x9c40
 700 900 l 1
 700 800 l 1
 100 800 l 1
 100 900 l 1x9c40
0 800 m 1
 100 800 l 1
 100 100 l 1
 0 100 l 1
 0 800 l 1
700 800 m 1
 800 800 l 1
 800 100 l 1
 700 100 l 1
 700 800 l 1
200 700 m 1x9e40
 300 700 l 1
 300 600 l 1
 200 600 l 1
 200 700 l 1x9e40
500 700 m 1x9cc0
 600 700 l 1
 600 600 l 1
 500 600 l 1
 500 700 l 1x9cc0
200 400 m 1xbe40
 600 400 l 1
 600 300 l 1xbec0
 500 300 l 1xbd40
 500 200 l 1
 300 200 l 1xdd40
 300 300 l 1xbd40
 200 300 l 1
 200 400 l 1xbe40
100 100 m 1
 700 100 l 1
 700 0 l 1
 100 0 l 1
 100 100 l 1
EndSplineSet
EndChar

StartChar: invsmileface
Encoding: 342 9787 342
Width: 900
HStem: 0 300<200 300 500 600> 0 200<300 500> 400 200<200 300 500 600> 700 200<200 300 500 600>
VStem: 0 200<300 400 600 700> 300 200<600 700> 600 200<300 400 600 700>
Fore
SplineSet
300 700 m 1x3e
 200 700 l 1
 200 600 l 1
 300 600 l 1
 300 700 l 1x3e
600 700 m 1
 500 700 l 1
 500 600 l 1
 600 600 l 1
 600 700 l 1
600 400 m 1
 200 400 l 1
 200 300 l 1
 300 300 l 1xbe
 300 200 l 1
 500 200 l 1x7e
 500 300 l 1
 600 300 l 1xbe
 600 400 l 1
100 900 m 1
 700 900 l 1
 700 800 l 1
 800 800 l 1
 800 100 l 1
 700 100 l 1
 700 0 l 1
 100 0 l 1x7e
 100 100 l 1
 0 100 l 1
 0 800 l 1
 100 800 l 1
 100 900 l 1
EndSplineSet
EndChar

StartChar: sun
Encoding: 343 9788 343
Width: 900
HStem: 0 21G<300 400> 100 100<0 100 600 700> 200 200<200 300 400 500> 400 100<0 100 600 700> 500 200<200 300 400 500> 700 100<0 100 600 700> 880 20G<300 400>
VStem: 0 200<400 500> 0 100<100 200 700 800> 100 200<300 400 500 600> 300 100<0 200 700 900> 400 200<300 400 500 600> 500 200<400 500> 600 100<100 200 700 800>
Fore
SplineSet
400 600 m 1xaa10
 300 600 l 1
 300 500 l 1xaa50
 200 500 l 1
 200 400 l 1xab
 300 400 l 1
 300 300 l 1
 400 300 l 1
 400 400 l 1xaa50
 500 400 l 1
 500 500 l 1xaa08
 400 500 l 1
 400 600 l 1xaa10
300 900 m 1x8aa0
 400 900 l 1
 400 700 l 1x8aa0
 600 700 l 1x86a4
 600 500 l 1x9610
 700 500 l 1
 700 400 l 1x9608
 600 400 l 1x9610
 600 200 l 1xd604
 400 200 l 1
 400 0 l 1
 300 0 l 1
 300 200 l 1xa224
 100 200 l 1xc2a4
 100 400 l 1xd240
 0 400 l 1
 0 500 l 1xd3
 100 500 l 1xd240
 100 700 l 1xd680
 300 700 l 1
 300 900 l 1x8aa0
0 800 m 1x8680
 100 800 l 1
 100 700 l 1
 0 700 l 1
 0 800 l 1x8680
600 800 m 1x8604
 700 800 l 1
 700 700 l 1
 600 700 l 1
 600 800 l 1x8604
0 200 m 1xc280
 100 200 l 1
 100 100 l 1
 0 100 l 1
 0 200 l 1xc280
600 200 m 1xc204
 700 200 l 1
 700 100 l 1
 600 100 l 1
 600 200 l 1xc204
EndSplineSet
EndChar

StartChar: female
Encoding: 344 9792 344
Width: 900
HStem: 0 21G<300 500> 200 100<100 300 500 700> 500 300<100 200 600 700> 800 100<300 500>
VStem: 100 200<500 800> 300 200<0 200 300 400> 500 200<500 800>
Fore
SplineSet
500 800 m 1xda
 300 800 l 1xda
 300 500 l 1
 500 500 l 1xea
 500 800 l 1xda
200 900 m 1
 600 900 l 1xd8
 600 800 l 1
 700 800 l 1
 700 500 l 1xea
 600 500 l 1
 600 400 l 1
 500 400 l 1
 500 300 l 1xe4
 700 300 l 1
 700 200 l 1xe2
 500 200 l 1
 500 0 l 1
 300 0 l 1
 300 200 l 1xe4
 100 200 l 1
 100 300 l 1xe8
 300 300 l 1
 300 400 l 1xe4
 200 400 l 1
 200 500 l 1
 100 500 l 1
 100 800 l 1
 200 800 l 1xe8
 200 900 l 1
EndSplineSet
EndChar

StartChar: male
Encoding: 345 9794 345
Width: 900
HStem: 0 100<200 400> 100 300<0 100 500 600> 400 200<200 300> 600 300<400 500 600 700> 700 200<500 600> 800 100<300 400>
VStem: 0 200<100 400> 200 200<500 600> 300 200<600 700> 400 200<100 400> 600 100<600 700>
Fore
SplineSet
400 400 m 1xa240
 200 400 l 1
 200 100 l 1
 400 100 l 1
 400 400 l 1xa240
300 900 m 1x0480
 700 900 l 1
 700 600 l 1
 600 600 l 1x10a0
 600 700 l 1
 500 700 l 1x08a0
 500 600 l 1x10a0
 400 600 l 1
 400 500 l 1x11
 500 500 l 1
 500 400 l 1x5080
 600 400 l 1
 600 100 l 1x5040
 500 100 l 1x5080
 500 0 l 1
 100 0 l 1x8080
 100 100 l 1
 0 100 l 1
 0 400 l 1
 100 400 l 1x4280
 100 500 l 1
 200 500 l 1
 200 600 l 1x21
 300 600 l 1
 300 700 l 1x2880
 400 700 l 1x2840
 400 800 l 1x0440
 300 800 l 1
 300 900 l 1x0480
EndSplineSet
EndChar

StartChar: spade
Encoding: 346 9824 346
Width: 900
HStem: 0 100<200 300 400 500> 300 300<0 100 600 700> 880 20G<300 400>
VStem: 100 100<200 300> 200 300<0 100 700 800> 300 100<100 300 800 900> 500 100<200 300>
Fore
SplineSet
300 900 m 1xe4
 400 900 l 1
 400 800 l 1xe4
 500 800 l 1
 500 700 l 1xe8
 600 700 l 1
 600 600 l 1
 700 600 l 1
 700 300 l 1
 600 300 l 1
 600 200 l 1
 500 200 l 1
 500 300 l 1
 400 300 l 1
 400 400 l 1
 300 400 l 1
 300 300 l 1
 200 300 l 1
 200 200 l 1
 100 200 l 1
 100 300 l 1
 0 300 l 1
 0 600 l 1
 100 600 l 1
 100 700 l 1xf6
 200 700 l 1
 200 800 l 1xe8
 300 800 l 1
 300 900 l 1xe4
300 300 m 1
 400 300 l 1
 400 100 l 1xe4
 500 100 l 1
 500 0 l 1
 200 0 l 1
 200 100 l 1xe8
 300 100 l 1
 300 300 l 1
EndSplineSet
EndChar

StartChar: club
Encoding: 347 9827 347
Width: 900
HStem: 0 100<200 300 500 600> 300 200<0 100 200 300 500 600 700 800> 580 20G<100 200 600 700> 600 200<200 300 500 600> 880 20G<300 500>
VStem: 100 100<200 300 500 600> 200 400<0 100 600 800> 300 200<100 300 500 600 800 900> 600 100<200 300 500 600>
Fore
SplineSet
300 900 m 1xd9
 500 900 l 1
 500 800 l 1xd9
 600 800 l 1xda
 600 600 l 1xea
 500 600 l 1
 500 500 l 1
 600 500 l 1xd980
 600 600 l 1xea
 700 600 l 1
 700 500 l 1
 800 500 l 1
 800 300 l 1
 700 300 l 1
 700 200 l 1
 600 200 l 1
 600 300 l 1
 500 300 l 1
 500 100 l 1xe980
 600 100 l 1
 600 0 l 1
 200 0 l 1
 200 100 l 1xea
 300 100 l 1
 300 300 l 1
 200 300 l 1
 200 200 l 1
 100 200 l 1
 100 300 l 1
 0 300 l 1
 0 500 l 1
 100 500 l 1
 100 600 l 1
 200 600 l 1xed
 200 500 l 1
 300 500 l 1
 300 600 l 1xdd
 200 600 l 1xed
 200 800 l 1xda
 300 800 l 1
 300 900 l 1xd9
EndSplineSet
EndChar

StartChar: heart
Encoding: 348 9829 348
Width: 900
HStem: 0 21G<300 400>
VStem: 100 200<700 800> 300 100<0 100> 400 200<700 800>
Fore
SplineSet
100 800 m 1xc0
 300 800 l 1xc0
 300 600 l 1xa0
 400 600 l 1
 400 800 l 1
 600 800 l 1
 600 700 l 1
 700 700 l 1
 700 300 l 1
 600 300 l 1
 600 200 l 1x90
 500 200 l 1
 500 100 l 1
 400 100 l 1
 400 0 l 1
 300 0 l 1
 300 100 l 1xa0
 200 100 l 1
 200 200 l 1
 100 200 l 1
 100 300 l 1
 0 300 l 1
 0 700 l 1
 100 700 l 1
 100 800 l 1xc0
EndSplineSet
EndChar

StartChar: diamond
Encoding: 349 9830 349
Width: 900
HStem: 0 21G<300 400> 300 200<0 100 600 700>
VStem: 200 300<100 200 600 700> 300 100<0 100 700 800>
Fore
SplineSet
300 800 m 1xd0
 400 800 l 1
 400 700 l 1xd0
 500 700 l 1
 500 600 l 1
 600 600 l 1
 600 500 l 1
 700 500 l 1
 700 300 l 1
 600 300 l 1
 600 200 l 1
 500 200 l 1
 500 100 l 1xe0
 400 100 l 1
 400 0 l 1
 300 0 l 1
 300 100 l 1xd0
 200 100 l 1
 200 200 l 1
 100 200 l 1
 100 300 l 1
 0 300 l 1
 0 500 l 1
 100 500 l 1
 100 600 l 1
 200 600 l 1
 200 700 l 1xe0
 300 700 l 1
 300 800 l 1xd0
EndSplineSet
EndChar

StartChar: musicalnote
Encoding: 350 9834 350
Width: 900
HStem: 0 300<100 400> 100 100<0 100> 800 100<500 600>
VStem: 400 200<800 900> 400 100<300 800 900 1000> 600 100<500 800>
Fore
SplineSet
400 1000 m 1xa8
 500 1000 l 1
 500 900 l 1xa8
 600 900 l 1
 600 800 l 1xb0
 500 800 l 1
 500 100 l 1
 400 100 l 1x68
 400 0 l 1
 100 0 l 1xa8
 100 100 l 1
 0 100 l 1
 0 200 l 1
 100 200 l 1x68
 100 300 l 1
 400 300 l 1
 400 1000 l 1xa8
600 800 m 1x30
 700 800 l 1
 700 500 l 1
 600 500 l 1x24
 600 800 l 1x30
EndSplineSet
EndChar

StartChar: musicalnotedbl
Encoding: 351 9835 351
Width: 900
HStem: -200 300<400 600> -200 200<300 400> 100 300<100 300> 200 100<0 100> 400 100<500 600> 700 100<500 600>
VStem: 100 200<100 200> 300 200<500 600 800 900> 300 100<400 500 600 800 900 1000> 500 100<700 800> 600 100<100 400 500 700>
Fore
SplineSet
300 1000 m 1x2480
 400 1000 l 1
 400 900 l 1x2480
 500 900 l 1
 500 800 l 1x25
 400 800 l 1
 400 600 l 1x2480
 500 600 l 1
 500 500 l 1x0d
 400 500 l 1
 400 200 l 1x1c80
 300 200 l 1x1e
 300 100 l 1
 100 100 l 1x26
 100 200 l 1
 0 200 l 1
 0 300 l 1
 100 300 l 1x16
 100 400 l 1x26
 300 400 l 1
 300 1000 l 1x2480
500 800 m 1x05
 600 800 l 1
 600 700 l 1
 500 700 l 1x0440
 500 800 l 1x05
600 700 m 1
 700 700 l 1
 700 -100 l 1
 600 -100 l 1
 600 -200 l 1x8c20
 300 -200 l 1
 300 0 l 1
 400 0 l 1x44a0
 400 100 l 1
 600 100 l 1
 600 400 l 1x8ca0
 500 400 l 1x8c40
 500 500 l 1
 600 500 l 1x8d20
 600 700 l 1
EndSplineSet
EndChar

StartChar: uniE0A0
Encoding: 352 57504 352
Width: 900
HStem: 0 200<200 300> 100 200<300 400> 200 200<400 500> 500 200<300 400 700 800> 600 200<400 490 600 700> 880 20G<490 600>
VStem: 0 200<-300 0 200 1100> 0 100<100 200> 100 200<0 100> 200 200<100 200> 300 200<200 300> 300 100<500 600> 400 200<300 400> 500 100<400 600 800 900> 700 100<500 600>
Fore
SplineSet
0 1100 m 1x4602
 200 1100 l 1
 200 200 l 1x8602
 100 200 l 1x2502
 100 100 l 1
 0 100 l 1x4502
 0 1100 l 1x4602
490 900 m 1
 600 900 l 1
 600 800 l 1
 700 800 l 1x0c06
 700 700 l 1
 800 700 l 1
 800 500 l 1
 700 500 l 1x1406
 700 600 l 1
 600 600 l 1x0c06
 600 300 l 1x4c0a
 500 300 l 1x4c22
 500 200 l 1x2422
 400 200 l 1x2442
 400 100 l 1x4442
 300 100 l 1x4482
 300 0 l 1x8482
 200 0 l 1
 200 -300 l 1
 0 -300 l 1
 0 0 l 1x8602
 100 0 l 1x8482
 100 100 l 1
 200 100 l 1x4542
 200 200 l 1
 300 200 l 1x8622
 300 300 l 1x4622
 400 300 l 1x440a
 400 400 l 1x240a
 500 400 l 1
 500 600 l 1
 400 600 l 1x2c16
 400 500 l 1
 300 500 l 1
 300 700 l 1x1416
 400 700 l 1x140a
 400 800 l 1
 490 800 l 1x0c0a
 490 900 l 1
EndSplineSet
EndChar

StartChar: uniE0A1
Encoding: 353 57505 353
Width: 900
HStem: 0 200<500 600> 100 200<400 500> 500 100<200 500>
VStem: 0 200<600 1000> 200 200<-100 100 300 400> 500 200<0 100> 600 100<-100 0 200 400>
Fore
SplineSet
0 1000 m 1x34
 200 1000 l 1
 200 600 l 1
 500 600 l 1
 500 500 l 1
 0 500 l 1
 0 1000 l 1x34
200 400 m 1x6c
 400 400 l 1
 400 300 l 1
 500 300 l 25x6c
 500 200 l 25xac
 600 200 l 1
 600 400 l 25
 700 400 l 25
 700 -100 l 25
 600 -100 l 17
 600 0 l 1xa2
 500 0 l 1xa4
 500 100 l 9
 400 100 l 25
 400 -100 l 25
 200 -100 l 25
 200 400 l 1x6c
EndSplineSet
EndChar

StartChar: uniE0A2
Encoding: 354 57506 354
Width: 900
HStem: 0 500<0 100 200 500 600 700> 800 100<200 500>
VStem: 100 100<500 800> 500 100<500 800>
Fore
SplineSet
200 900 m 25
 500 900 l 1
 500 800 l 25
 200 800 l 1
 200 900 l 25
100 800 m 9
 200 800 l 25
 200 500 l 25
 500 500 l 25
 500 800 l 25
 600 800 l 17
 600 500 l 1
 700 500 l 1
 700 0 l 9
 0 0 l 17
 0 500 l 1
 100 500 l 1
 100 800 l 9
EndSplineSet
EndChar

StartChar: uniE0A3
Encoding: 355 57507 355
Width: 900
HStem: 0 200<500 600> 100 200<400 500> 500 100<200 400> 600 100<400 500> 800 100<400 500> 900 100<200 400>
VStem: 0 200<600 900> 100 300<500 600 900 1000> 200 200<-100 100 300 400> 400 100<600 700 800 900> 500 200<0 100> 600 100<-100 0 200 400>
Fore
SplineSet
100 1000 m 1x15
 400 1000 l 1x15
 400 900 l 1x09
 200 900 l 1
 200 600 l 1x26
 400 600 l 1
 400 500 l 1
 100 500 l 1x25
 100 600 l 1x11
 0 600 l 1
 0 900 l 1x16
 100 900 l 1
 100 1000 l 1x15
400 900 m 1x09
 500 900 l 1
 500 800 l 1
 400 800 l 1x0840
 400 900 l 1x09
400 700 m 1x1040
 500 700 l 1
 500 600 l 1x1040
 400 600 l 1x21
 400 700 l 1x1040
200 400 m 1x40a0
 400 400 l 1
 400 300 l 1
 500 300 l 25x40a0
 500 200 l 25x80a0
 600 200 l 1
 600 400 l 25
 700 400 l 25
 700 -100 l 25
 600 -100 l 17
 600 0 l 1x8010
 500 0 l 1x8020
 500 100 l 9
 400 100 l 25
 400 -100 l 25
 200 -100 l 25
 200 400 l 1x40a0
EndSplineSet
EndChar

StartChar: uniE0B0
Encoding: 356 57520 356
Width: 900
HStem: 300 200<700 800>
VStem: 0 300<-200 -100 900 1000> 0 200<-300 -200 1000 1100>
Fore
SplineSet
0 1100 m 1xa0
 200 1100 l 1
 200 1000 l 1xa0
 300 1000 l 1
 300 900 l 1
 400 900 l 1
 400 800 l 1
 500 800 l 1
 500 700 l 1
 600 700 l 1
 600 600 l 1
 700 600 l 1
 700 500 l 1
 800 500 l 1
 800 300 l 1
 700 300 l 1
 700 200 l 1
 600 200 l 1
 600 100 l 1
 500 100 l 1
 500 0 l 1
 400 0 l 1
 400 -100 l 1
 300 -100 l 1
 300 -200 l 1xc0
 200 -200 l 1
 200 -300 l 1
 0 -300 l 1
 0 1100 l 1xa0
EndSplineSet
EndChar

